<svg id="SvgjsSvg1282" width="831" height="845" xmlns="http://www.w3.org/2000/svg" version="1.1" xmlns:xlink="http://www.w3.org/1999/xlink" xmlns:svgjs="http://svgjs.com/svgjs"><defs id="SvgjsDefs1283"><marker id="SvgjsMarker1320" markerWidth="14" markerHeight="12" refX="16" refY="6" viewBox="0 0 14 12" orient="auto" markerUnits="userSpaceOnUse"><path id="SvgjsPath1321" d="M1,1 L14,6 L1,11L1,1" fill="#ffffff" stroke="#323232" stroke-width="2"></path></marker><marker id="SvgjsMarker1402" markerWidth="16" markerHeight="16" refX="11" refY="8" viewBox="0 0 16 16" orient="auto" markerUnits="userSpaceOnUse"><path id="SvgjsPath1403" d="M0,0 L10,8 L0,16" fill="none" stroke="#323232" stroke-width="2"></path></marker><marker id="SvgjsMarker1406" markerWidth="14" markerHeight="12" refX="16" refY="6" viewBox="0 0 14 12" orient="auto" markerUnits="userSpaceOnUse"><path id="SvgjsPath1407" d="M1,1 L14,6 L1,11L1,1" fill="#ffffff" stroke="#323232" stroke-width="2"></path></marker><marker id="SvgjsMarker1410" markerWidth="16" markerHeight="16" refX="11" refY="8" viewBox="0 0 16 16" orient="auto" markerUnits="userSpaceOnUse"><path id="SvgjsPath1411" d="M0,0 L10,8 L0,16" fill="none" stroke="#323232" stroke-width="2"></path></marker><marker id="SvgjsMarker1414" markerWidth="14" markerHeight="12" refX="16" refY="6" viewBox="0 0 14 12" orient="auto" markerUnits="userSpaceOnUse"><path id="SvgjsPath1415" d="M1,1 L14,6 L1,11L1,1" fill="#ffffff" stroke="#323232" stroke-width="2"></path></marker><marker id="SvgjsMarker1418" markerWidth="14" markerHeight="12" refX="16" refY="6" viewBox="0 0 14 12" orient="auto" markerUnits="userSpaceOnUse"><path id="SvgjsPath1419" d="M1,1 L14,6 L1,11L1,1" fill="#ffffff" stroke="#323232" stroke-width="2"></path></marker></defs><g id="SvgjsG1284" transform="translate(28,25)"><path id="SvgjsPath1285" d="M 0 4Q 0 0 4 0L 771 0Q 775 0 775 4L 775 110Q 775 114 771 114L 4 114Q 0 114 0 110Z" stroke="#323232" stroke-width="2" fill-opacity="1" fill="#ffffff"></path><path id="SvgjsPath1286" d="M 0 32L 775 32M 0 62L 775 62" stroke="#323232" stroke-width="2" fill="none"></path><path id="SvgjsPath1287" d="M 0 0L 775 0L 775 114L 0 114Z" stroke="none" fill="none"></path><g id="SvgjsG1288"><text id="SvgjsText1289" font-family="微软雅黑" text-anchor="middle" font-size="13px" width="283" fill="#323232" font-weight="700" align="middle" anchor="middle" family="微软雅黑" size="13px" weight="700" font-style="" y="6.05" transform="rotate(0)"><tspan id="SvgjsTspan1290" dy="16" x="387.5"><tspan id="SvgjsTspan1291" style="text-decoration:;">AbstractUserDetailsAuthenticationProvider</tspan></tspan></text></g><g id="SvgjsG1292"><text id="SvgjsText1293" font-family="微软雅黑" text-anchor="start" font-size="13px" width="0" fill="#323232" font-weight="400" align="middle" anchor="start" family="微软雅黑" size="13px" weight="400" font-style="" y="37.05" transform="rotate(0)"></text></g><g id="SvgjsG1294"><text id="SvgjsText1295" font-family="微软雅黑" text-anchor="start" font-size="13px" width="627" fill="#323232" font-weight="400" align="middle" anchor="start" family="微软雅黑" size="13px" weight="400" font-style="" y="60.05" transform="rotate(0)"><tspan id="SvgjsTspan1296" dy="16" x="10"><tspan id="SvgjsTspan1297" style="text-decoration:;">authenticate(Authentication authentication):Authentication </tspan></tspan><tspan id="SvgjsTspan1298" dy="16" x="10"><tspan id="SvgjsTspan1299" style="text-decoration:;">retrieveUser(String var1, UsernamePasswordAuthenticationToken var2):UserDetails </tspan></tspan><tspan id="SvgjsTspan1300" dy="16" x="10"><tspan id="SvgjsTspan1301" style="text-decoration:;">additionalAuthenticationChecks(UserDetails var1, UsernamePasswordAuthenticationToken var2):void</tspan></tspan></text></g></g><g id="SvgjsG1302" transform="translate(28,204)"><path id="SvgjsPath1303" d="M 0 4Q 0 0 4 0L 771 0Q 775 0 775 4L 775 88Q 775 92 771 92L 4 92Q 0 92 0 88Z" stroke="#323232" stroke-width="2" fill-opacity="1" fill="#ffffff"></path><path id="SvgjsPath1304" d="M 0 30L 775 30M 0 62L 775 62" stroke="#323232" stroke-width="2" fill="none"></path><path id="SvgjsPath1305" d="M 0 0L 775 0L 775 92L 0 92Z" stroke="none" fill="none"></path><g id="SvgjsG1306"><text id="SvgjsText1307" font-family="微软雅黑" text-anchor="middle" font-size="13px" width="180" fill="#323232" font-weight="700" align="middle" anchor="middle" family="微软雅黑" size="13px" weight="700" font-style="" y="5.05" transform="rotate(0)"><tspan id="SvgjsTspan1308" dy="16" x="387.5"><tspan id="SvgjsTspan1309" style="text-decoration:;">DaoAuthenticationProvider</tspan></tspan></text></g><g id="SvgjsG1310"><text id="SvgjsText1311" font-family="微软雅黑" text-anchor="start" font-size="13px" width="452" fill="#323232" font-weight="400" align="middle" anchor="start" family="微软雅黑" size="13px" weight="400" font-style="" y="36.05" transform="rotate(0)"><tspan id="SvgjsTspan1312" dy="16" x="10"><tspan id="SvgjsTspan1313" style="text-decoration:;">passwordEncoder:PasswordEncoderuserDetailsService:UserDetailsService </tspan></tspan></text></g><g id="SvgjsG1314"><text id="SvgjsText1315" font-family="微软雅黑" text-anchor="start" font-size="13px" width="732" fill="#323232" font-weight="400" align="middle" anchor="start" family="微软雅黑" size="13px" weight="400" font-style="" y="67.05" transform="rotate(0)"><tspan id="SvgjsTspan1316" dy="16" x="10"><tspan id="SvgjsTspan1317" style="text-decoration:;">additionalAuthenticationChecks(UserDetails userDetails, UsernamePasswordAuthenticationToken authentication):void</tspan></tspan></text></g></g><g id="SvgjsG1318"><path id="SvgjsPath1319" d="M415.5 204L415.5 171.5L415.5 171.5L415.5 139" stroke="#323232" stroke-width="2" fill="none" marker-end="url(#SvgjsMarker1320)"></path></g><g id="SvgjsG1322" transform="translate(25,352)"><path id="SvgjsPath1323" d="M 0 4Q 0 0 4 0L 300 0Q 304 0 304 4L 304 63Q 304 67 300 67L 4 67Q 0 67 0 63Z" stroke="#323232" stroke-width="2" fill-opacity="1" fill="#ffffff"></path><path id="SvgjsPath1324" d="M 0 30L 304 30" stroke="#323232" stroke-width="2" fill="none"></path><path id="SvgjsPath1325" d="M 0 0L 304 0L 304 67L 0 67Z" stroke="none" fill="none"></path><g id="SvgjsG1326"><text id="SvgjsText1327" font-family="微软雅黑" text-anchor="middle" font-size="13px" width="121" fill="#323232" font-weight="700" align="middle" anchor="middle" family="微软雅黑" size="13px" weight="700" font-style="" y="5.05" transform="rotate(0)"><tspan id="SvgjsTspan1328" dy="16" x="152"><tspan id="SvgjsTspan1329" style="text-decoration:;">UserDetailsService</tspan></tspan></text></g><g id="SvgjsG1330"><text id="SvgjsText1331" font-family="微软雅黑" text-anchor="start" font-size="13px" width="283" fill="#323232" font-weight="400" align="middle" anchor="start" family="微软雅黑" size="13px" weight="400" font-style="" y="38.55" transform="rotate(0)"><tspan id="SvgjsTspan1332" dy="16" x="10"><tspan id="SvgjsTspan1333" style="text-decoration:;">loadUserByUsername(String var1):UserDetails </tspan></tspan></text></g></g><g id="SvgjsG1334" transform="translate(26.5,477)"><path id="SvgjsPath1335" d="M 0 4Q 0 0 4 0L 297 0Q 301 0 301 4L 301 86Q 301 90 297 90L 4 90Q 0 90 0 86Z" stroke="#323232" stroke-width="2" fill-opacity="1" fill="#ffffff"></path><path id="SvgjsPath1336" d="M 0 30L 301 30M 0 60L 301 60" stroke="#323232" stroke-width="2" fill="none"></path><path id="SvgjsPath1337" d="M 0 0L 301 0L 301 90L 0 90Z" stroke="none" fill="none"></path><g id="SvgjsG1338"><text id="SvgjsText1339" font-family="微软雅黑" text-anchor="middle" font-size="13px" width="150" fill="#323232" font-weight="700" align="middle" anchor="middle" family="微软雅黑" size="13px" weight="700" font-style="" y="5.05" transform="rotate(0)"><tspan id="SvgjsTspan1340" dy="16" x="150.5"><tspan id="SvgjsTspan1341" style="text-decoration:;">UserDetailsServiceImpl</tspan></tspan></text></g><g id="SvgjsG1342"><text id="SvgjsText1343" font-family="微软雅黑" text-anchor="start" font-size="13px" width="0" fill="#323232" font-weight="400" align="middle" anchor="start" family="微软雅黑" size="13px" weight="400" font-style="" y="35.05" transform="rotate(0)"></text></g><g id="SvgjsG1344"><text id="SvgjsText1345" font-family="微软雅黑" text-anchor="start" font-size="13px" width="280" fill="#323232" font-weight="400" align="middle" anchor="start" family="微软雅黑" size="13px" weight="400" font-style="" y="65.05" transform="rotate(0)"><tspan id="SvgjsTspan1346" dy="16" x="10"><tspan id="SvgjsTspan1347" style="text-decoration:;">loadUserByUsername(String ar1):UserDetails </tspan></tspan></text></g></g><g id="SvgjsG1348" transform="translate(464,344)"><path id="SvgjsPath1349" d="M 0 4Q 0 0 4 0L 338 0Q 342 0 342 4L 342 71Q 342 75 338 75L 4 75Q 0 75 0 71Z" stroke="#323232" stroke-width="2" fill-opacity="1" fill="#ffffff"></path><path id="SvgjsPath1350" d="M 0 30L 342 30" stroke="#323232" stroke-width="2" fill="none"></path><path id="SvgjsPath1351" d="M 0 0L 342 0L 342 75L 0 75Z" stroke="none" fill="none"></path><g id="SvgjsG1352"><text id="SvgjsText1353" font-family="微软雅黑" text-anchor="middle" font-size="13px" width="116" fill="#323232" font-weight="700" align="middle" anchor="middle" family="微软雅黑" size="13px" weight="700" font-style="" y="5.05" transform="rotate(0)"><tspan id="SvgjsTspan1354" dy="16" x="171"><tspan id="SvgjsTspan1355" style="text-decoration:;">PasswordEncoder</tspan></tspan></text></g><g id="SvgjsG1356"><text id="SvgjsText1357" font-family="微软雅黑" text-anchor="start" font-size="13px" width="309" fill="#323232" font-weight="400" align="middle" anchor="start" family="微软雅黑" size="13px" weight="400" font-style="" y="34.55" transform="rotate(0)"><tspan id="SvgjsTspan1358" dy="16" x="10"><tspan id="SvgjsTspan1359" style="text-decoration:;">encode(CharSequence var1):String</tspan></tspan><tspan id="SvgjsTspan1360" dy="16" x="10"><tspan id="SvgjsTspan1361" style="text-decoration:;">matches(CharSequence var1, String var2):boolean</tspan></tspan></text></g></g><g id="SvgjsG1362" transform="translate(464,473)"><path id="SvgjsPath1363" d="M 0 4Q 0 0 4 0L 338 0Q 342 0 342 4L 342 174Q 342 178 338 178L 4 178Q 0 178 0 174Z" stroke="#323232" stroke-width="2" fill-opacity="1" fill="#ffffff"></path><path id="SvgjsPath1364" d="M 0 30L 342 30" stroke="#323232" stroke-width="2" fill="none"></path><path id="SvgjsPath1365" d="M 0 0L 342 0L 342 178L 0 178Z" stroke="none" fill="none"></path><g id="SvgjsG1366"><text id="SvgjsText1367" font-family="微软雅黑" text-anchor="middle" font-size="13px" width="206" fill="#323232" font-weight="700" align="middle" anchor="middle" family="微软雅黑" size="13px" weight="700" font-style="" y="5.05" transform="rotate(0)"><tspan id="SvgjsTspan1368" dy="16" x="171"><tspan id="SvgjsTspan1369" style="text-decoration:;">WebSecurityConfigurerAdapter</tspan></tspan></text></g><g id="SvgjsG1370"><text id="SvgjsText1371" font-family="微软雅黑" text-anchor="start" font-size="13px" width="0" fill="#323232" font-weight="400" align="middle" anchor="start" family="微软雅黑" size="13px" weight="400" font-style="" y="94.05" transform="rotate(0)"></text></g></g><g id="SvgjsG1372" transform="translate(470,526)"><path id="SvgjsPath1373" d="M 0 4Q 0 0 4 0L 326 0Q 330 0 330 4L 330 112Q 330 116 326 116L 4 116Q 0 116 0 112Z" stroke="#323232" stroke-width="2" fill-opacity="1" fill="#ffffff"></path><path id="SvgjsPath1374" d="M 0 30L 330 30" stroke="#323232" stroke-width="2" fill="none"></path><path id="SvgjsPath1375" d="M 0 0L 330 0L 330 116L 0 116Z" stroke="none" fill="none"></path><g id="SvgjsG1376"><text id="SvgjsText1377" font-family="微软雅黑" text-anchor="middle" font-size="13px" width="144" fill="#323232" font-weight="700" align="middle" anchor="middle" family="微软雅黑" size="13px" weight="700" font-style="" y="5.05" transform="rotate(0)"><tspan id="SvgjsTspan1378" dy="16" x="165"><tspan id="SvgjsTspan1379" style="text-decoration:;">LazyPasswordEncoder</tspan></tspan></text></g><g id="SvgjsG1380"><text id="SvgjsText1381" font-family="微软雅黑" text-anchor="start" font-size="13px" width="309" fill="#323232" font-weight="400" align="middle" anchor="start" family="微软雅黑" size="13px" weight="400" font-style="" y="55.05" transform="rotate(0)"><tspan id="SvgjsTspan1382" dy="16" x="10"><tspan id="SvgjsTspan1383" style="text-decoration:;">encode(CharSequence var1):String</tspan></tspan><tspan id="SvgjsTspan1384" dy="16" x="10"><tspan id="SvgjsTspan1385" style="text-decoration:;">matches(CharSequence var1, String var2):boolean</tspan></tspan></text></g></g><g id="SvgjsG1386" transform="translate(485,700)"><path id="SvgjsPath1387" d="M 0 4Q 0 0 4 0L 296 0Q 300 0 300 4L 300 116Q 300 120 296 120L 4 120Q 0 120 0 116Z" stroke="#323232" stroke-width="2" fill-opacity="1" fill="#ffffff"></path><path id="SvgjsPath1388" d="M 0 30L 300 30M 0 62L 300 62" stroke="#323232" stroke-width="2" fill="none"></path><path id="SvgjsPath1389" d="M 0 0L 300 0L 300 120L 0 120Z" stroke="none" fill="none"></path><g id="SvgjsG1390"><text id="SvgjsText1391" font-family="微软雅黑" text-anchor="middle" font-size="13px" width="96" fill="#323232" font-weight="700" align="middle" anchor="middle" family="微软雅黑" size="13px" weight="700" font-style="" y="5.05" transform="rotate(0)"><tspan id="SvgjsTspan1392" dy="16" x="150"><tspan id="SvgjsTspan1393" style="text-decoration:;">SecurityConfig</tspan></tspan></text></g><g id="SvgjsG1394"><text id="SvgjsText1395" font-family="微软雅黑" text-anchor="start" font-size="13px" width="264" fill="#323232" font-weight="400" align="middle" anchor="start" family="微软雅黑" size="13px" weight="400" font-style="" y="36.05" transform="rotate(0)"><tspan id="SvgjsTspan1396" dy="16" x="10"><tspan id="SvgjsTspan1397" style="text-decoration:;">passwordEncoder:BCryptPasswordEncoder </tspan></tspan></text></g><g id="SvgjsG1398"><text id="SvgjsText1399" font-family="微软雅黑" text-anchor="start" font-size="13px" width="0" fill="#323232" font-weight="400" align="middle" anchor="start" family="微软雅黑" size="13px" weight="400" font-style="" y="67.05" transform="rotate(0)"></text></g></g><g id="SvgjsG1400"><path id="SvgjsPath1401" d="M177 352L177 324L177 324L177 296" stroke="#323232" stroke-width="2" fill="none" marker-end="url(#SvgjsMarker1402)"></path></g><g id="SvgjsG1404"><path id="SvgjsPath1405" d="M177 477L177 448L177 448L177 419" stroke-dasharray="8,5" stroke="#323232" stroke-width="2" fill="none" marker-end="url(#SvgjsMarker1406)"></path></g><g id="SvgjsG1408"><path id="SvgjsPath1409" d="M635 344L635 319.5L635 319.5L635 295" stroke="#323232" stroke-width="2" fill="none" marker-end="url(#SvgjsMarker1410)"></path></g><g id="SvgjsG1412"><path id="SvgjsPath1413" d="M635 473L635 446L635 446L635 419" stroke-dasharray="8,5" stroke="#323232" stroke-width="2" fill="none" marker-end="url(#SvgjsMarker1414)"></path></g><g id="SvgjsG1416"><path id="SvgjsPath1417" d="M635 700L635 675.5L635 675.5L635 651" stroke="#323232" stroke-width="2" fill="none" marker-end="url(#SvgjsMarker1418)"></path></g></svg>