<svg id="SvgjsSvg1206" width="1175" height="1097" xmlns="http://www.w3.org/2000/svg" version="1.1" xmlns:xlink="http://www.w3.org/1999/xlink" xmlns:svgjs="http://svgjs.com/svgjs"><defs id="SvgjsDefs1207"><marker id="SvgjsMarker1240" markerWidth="16" markerHeight="16" refX="11" refY="8" viewBox="0 0 16 16" orient="auto" markerUnits="userSpaceOnUse"><path id="SvgjsPath1241" d="M0,0 L10,8 L0,16" fill="none" stroke="#323232" stroke-width="2"></path></marker><marker id="SvgjsMarker1262" markerWidth="14" markerHeight="12" refX="16" refY="6" viewBox="0 0 14 12" orient="auto" markerUnits="userSpaceOnUse"><path id="SvgjsPath1263" d="M1,1 L14,6 L1,11L1,1" fill="#ffffff" stroke="#323232" stroke-width="2"></path></marker><marker id="SvgjsMarker1322" markerWidth="14" markerHeight="12" refX="16" refY="6" viewBox="0 0 14 12" orient="auto" markerUnits="userSpaceOnUse"><path id="SvgjsPath1323" d="M1,1 L14,6 L1,11L1,1" fill="#ffffff" stroke="#323232" stroke-width="2"></path></marker><marker id="SvgjsMarker1356" markerWidth="16" markerHeight="16" refX="11" refY="8" viewBox="0 0 16 16" orient="auto" markerUnits="userSpaceOnUse"><path id="SvgjsPath1357" d="M0,0 L10,8 L0,16" fill="none" stroke="#323232" stroke-width="2"></path></marker><marker id="SvgjsMarker1360" markerWidth="14" markerHeight="12" refX="16" refY="6" viewBox="0 0 14 12" orient="auto" markerUnits="userSpaceOnUse"><path id="SvgjsPath1361" d="M1,1 L14,6 L1,11L1,1" fill="#ffffff" stroke="#323232" stroke-width="2"></path></marker><marker id="SvgjsMarker1388" markerWidth="16" markerHeight="16" refX="11" refY="8" viewBox="0 0 16 16" orient="auto" markerUnits="userSpaceOnUse"><path id="SvgjsPath1389" d="M0,0 L10,8 L0,16" fill="none" stroke="#323232" stroke-width="2"></path></marker><marker id="SvgjsMarker1392" markerWidth="16" markerHeight="16" refX="11" refY="8" viewBox="0 0 16 16" orient="auto" markerUnits="userSpaceOnUse"><path id="SvgjsPath1393" d="M0,0 L10,8 L0,16" fill="none" stroke="#323232" stroke-width="2"></path></marker><marker id="SvgjsMarker1396" markerWidth="16" markerHeight="16" refX="11" refY="8" viewBox="0 0 16 16" orient="auto" markerUnits="userSpaceOnUse"><path id="SvgjsPath1397" d="M0,0 L10,8 L0,16" fill="none" stroke="#323232" stroke-width="2"></path></marker><marker id="SvgjsMarker1400" markerWidth="14" markerHeight="12" refX="16" refY="6" viewBox="0 0 14 12" orient="auto" markerUnits="userSpaceOnUse"><path id="SvgjsPath1401" d="M1,1 L14,6 L1,11L1,1" fill="#ffffff" stroke="#323232" stroke-width="2"></path></marker><marker id="SvgjsMarker1404" markerWidth="16" markerHeight="16" refX="11" refY="8" viewBox="0 0 16 16" orient="auto" markerUnits="userSpaceOnUse"><path id="SvgjsPath1405" d="M0,0 L10,8 L0,16" fill="none" stroke="#323232" stroke-width="2"></path></marker></defs><g id="SvgjsG1208" transform="translate(153,25)"><path id="SvgjsPath1209" d="M 0 4Q 0 0 4 0L 904 0Q 908 0 908 4L 908 130Q 908 134 904 134L 4 134Q 0 134 0 130Z" stroke="#323232" stroke-width="2" fill-opacity="1" fill="#ffffff"></path><path id="SvgjsPath1210" d="M 0 32L 908 32M 0 66L 908 66" stroke="#323232" stroke-width="2" fill="none"></path><path id="SvgjsPath1211" d="M 0 0L 908 0L 908 134L 0 134Z" stroke="none" fill="none"></path><g id="SvgjsG1212"><text id="SvgjsText1213" font-family="微软雅黑" text-anchor="middle" font-size="13px" width="252" fill="#323232" font-weight="700" align="middle" anchor="middle" family="微软雅黑" size="13px" weight="700" font-style="" y="6.05" transform="rotate(0)"><tspan id="SvgjsTspan1214" dy="16" x="454"><tspan id="SvgjsTspan1215" style="text-decoration:;">OAuth2AuthenticationProcessingFilter</tspan></tspan></text></g><g id="SvgjsG1216"><text id="SvgjsText1217" font-family="微软雅黑" text-anchor="start" font-size="13px" width="300" fill="#323232" font-weight="400" align="middle" anchor="start" family="微软雅黑" size="13px" weight="400" font-style="" y="30.05" transform="rotate(0)"><tspan id="SvgjsTspan1218" dy="16" x="10"><tspan id="SvgjsTspan1219" style="text-decoration:;">tokenExtractor: TokenExtractor </tspan></tspan><tspan id="SvgjsTspan1220" dy="16" x="10"><tspan id="SvgjsTspan1221" style="text-decoration:;">authenticationManager: AuthenticationManager</tspan></tspan></text></g><g id="SvgjsG1222"><text id="SvgjsText1223" font-family="微软雅黑" text-anchor="start" font-size="13px" width="449" fill="#323232" font-weight="400" align="middle" anchor="start" family="微软雅黑" size="13px" weight="400" font-style="" y="92.05" transform="rotate(0)"><tspan id="SvgjsTspan1224" dy="16" x="10"><tspan id="SvgjsTspan1225" style="text-decoration:;">doFilter(ServletRequest req, ServletResponse res, FilterChain chain): void </tspan></tspan></text></g></g><g id="SvgjsG1226" transform="translate(25,223)"><path id="SvgjsPath1227" d="M 0 4Q 0 0 4 0L 381.5 0Q 385.5 0 385.5 4L 385.5 82Q 385.5 86 381.5 86L 4 86Q 0 86 0 82Z" stroke="#323232" stroke-width="2" fill-opacity="1" fill="#ffffff"></path><path id="SvgjsPath1228" d="M 0 30L 385.5 30" stroke="#323232" stroke-width="2" fill="none"></path><path id="SvgjsPath1229" d="M 0 0L 385.5 0L 385.5 86L 0 86Z" stroke="none" fill="none"></path><g id="SvgjsG1230"><text id="SvgjsText1231" font-family="微软雅黑" text-anchor="middle" font-size="13px" width="100" fill="#323232" font-weight="700" align="middle" anchor="middle" family="微软雅黑" size="13px" weight="700" font-style="" y="5.05" transform="rotate(0)"><tspan id="SvgjsTspan1232" dy="16" x="193"><tspan id="SvgjsTspan1233" style="text-decoration:;">TokenExtractor</tspan></tspan></text></g><g id="SvgjsG1234"><text id="SvgjsText1235" font-family="微软雅黑" text-anchor="start" font-size="13px" width="305" fill="#323232" font-weight="400" align="middle" anchor="start" family="微软雅黑" size="13px" weight="400" font-style="" y="48.05" transform="rotate(0)"><tspan id="SvgjsTspan1236" dy="16" x="10"><tspan id="SvgjsTspan1237" style="text-decoration:;"> extract(HttpServletRequest var1): Authentication</tspan></tspan></text></g></g><g id="SvgjsG1238"><path id="SvgjsPath1239" d="M217.75 223L217.75 191L289.3726235741444 191L289.3726235741444 159" stroke="#323232" stroke-width="2" fill="none" marker-end="url(#SvgjsMarker1240)"></path></g><g id="SvgjsG1242" transform="translate(25,370)"><path id="SvgjsPath1243" d="M 0 4Q 0 0 4 0L 381.5 0Q 385.5 0 385.5 4L 385.5 126Q 385.5 130 381.5 130L 4 130Q 0 130 0 126Z" stroke="#323232" stroke-width="2" fill-opacity="1" fill="#ffffff"></path><path id="SvgjsPath1244" d="M 0 30L 385.5 30M 0 60L 385.5 60" stroke="#323232" stroke-width="2" fill="none"></path><path id="SvgjsPath1245" d="M 0 0L 385.5 0L 385.5 130L 0 130Z" stroke="none" fill="none"></path><g id="SvgjsG1246"><text id="SvgjsText1247" font-family="微软雅黑" text-anchor="middle" font-size="13px" width="142" fill="#323232" font-weight="700" align="middle" anchor="middle" family="微软雅黑" size="13px" weight="700" font-style="" y="5.05" transform="rotate(0)"><tspan id="SvgjsTspan1248" dy="16" x="193"><tspan id="SvgjsTspan1249" style="text-decoration:;">BearerTokenExtractor</tspan></tspan></text></g><g id="SvgjsG1250"><text id="SvgjsText1251" font-family="微软雅黑" text-anchor="start" font-size="13px" width="0" fill="#323232" font-weight="400" align="middle" anchor="start" family="微软雅黑" size="13px" weight="400" font-style="" y="35.05" transform="rotate(0)"></text></g><g id="SvgjsG1252"><text id="SvgjsText1253" font-family="微软雅黑" text-anchor="start" font-size="13px" width="350" fill="#323232" font-weight="400" align="middle" anchor="start" family="微软雅黑" size="13px" weight="400" font-style="" y="66.05" transform="rotate(0)"><tspan id="SvgjsTspan1254" dy="16" x="10"><tspan id="SvgjsTspan1255" style="text-decoration:;">extract(HttpServletRequest request): Authentication </tspan></tspan><tspan id="SvgjsTspan1256" dy="16" x="10"><tspan id="SvgjsTspan1257" style="text-decoration:;">extractToken(HttpServletRequest request): String</tspan></tspan><tspan id="SvgjsTspan1258" dy="16" x="10"><tspan id="SvgjsTspan1259" style="text-decoration:;">extractHeaderToken(HttpServletRequest request): String</tspan></tspan></text></g></g><g id="SvgjsG1260"><path id="SvgjsPath1261" d="M217.75 370L217.75 339.5L217.75 339.5L217.75 309" stroke-dasharray="8,5" stroke="#323232" stroke-width="2" fill="none" marker-end="url(#SvgjsMarker1262)"></path></g><g id="SvgjsG1264" transform="translate(468,223)"><path id="SvgjsPath1265" d="M 0 4Q 0 0 4 0L 336 0Q 340 0 340 4L 340 82Q 340 86 336 86L 4 86Q 0 86 0 82Z" stroke="#323232" stroke-width="2" fill-opacity="1" fill="#ffffff"></path><path id="SvgjsPath1266" d="M 0 30L 340 30" stroke="#323232" stroke-width="2" fill="none"></path><path id="SvgjsPath1267" d="M 0 0L 340 0L 340 86L 0 86Z" stroke="none" fill="none"></path><g id="SvgjsG1268"><text id="SvgjsText1269" font-family="微软雅黑" text-anchor="middle" font-size="13px" width="156" fill="#323232" font-weight="700" align="middle" anchor="middle" family="微软雅黑" size="13px" weight="700" font-style="" y="5.05" transform="rotate(0)"><tspan id="SvgjsTspan1270" dy="16" x="170"><tspan id="SvgjsTspan1271" style="text-decoration:;">AuthenticationManager</tspan></tspan></text></g><g id="SvgjsG1272"><text id="SvgjsText1273" font-family="微软雅黑" text-anchor="start" font-size="13px" width="308" fill="#323232" font-weight="400" align="middle" anchor="start" family="微软雅黑" size="13px" weight="400" font-style="" y="48.05" transform="rotate(0)"><tspan id="SvgjsTspan1274" dy="16" x="10"><tspan id="SvgjsTspan1275" style="text-decoration:;">authenticate(Authentication var1): Authentication </tspan></tspan></text></g></g><g id="SvgjsG1276" transform="translate(437,373)"><path id="SvgjsPath1277" d="M 0 4Q 0 0 4 0L 398 0Q 402 0 402 4L 402 86Q 402 90 398 90L 4 90Q 0 90 0 86Z" stroke="#323232" stroke-width="2" fill-opacity="1" fill="#ffffff"></path><path id="SvgjsPath1278" d="M 0 30L 402 30M 0 60L 402 60" stroke="#323232" stroke-width="2" fill="none"></path><path id="SvgjsPath1279" d="M 0 0L 402 0L 402 90L 0 90Z" stroke="none" fill="none"></path><g id="SvgjsG1280"><text id="SvgjsText1281" font-family="微软雅黑" text-anchor="middle" font-size="13px" width="207" fill="#323232" font-weight="700" align="middle" anchor="middle" family="微软雅黑" size="13px" weight="700" font-style="" y="5.05" transform="rotate(0)"><tspan id="SvgjsTspan1282" dy="16" x="201"><tspan id="SvgjsTspan1283" style="text-decoration:;">OAuth2AuthenticationManager</tspan></tspan></text></g><g id="SvgjsG1284"><text id="SvgjsText1285" font-family="微软雅黑" text-anchor="start" font-size="13px" width="277" fill="#323232" font-weight="400" align="middle" anchor="start" family="微软雅黑" size="13px" weight="400" font-style="" y="35.05" transform="rotate(0)"><tspan id="SvgjsTspan1286" dy="16" x="10"><tspan id="SvgjsTspan1287" style="text-decoration:;">tokenServices: ResourceServerTokenServices </tspan></tspan></text></g><g id="SvgjsG1288"><text id="SvgjsText1289" font-family="微软雅黑" text-anchor="start" font-size="13px" width="371" fill="#323232" font-weight="400" align="middle" anchor="start" family="微软雅黑" size="13px" weight="400" font-style="" y="65.05" transform="rotate(0)"><tspan id="SvgjsTspan1290" dy="16" x="10"><tspan id="SvgjsTspan1291" style="text-decoration:;">authenticate(Authentication authentication): Authentication </tspan></tspan></text></g></g><g id="SvgjsG1292" transform="translate(440,531)"><path id="SvgjsPath1293" d="M 0 4Q 0 0 4 0L 392 0Q 396 0 396 4L 396 60Q 396 64 392 64L 4 64Q 0 64 0 60Z" stroke="#323232" stroke-width="2" fill-opacity="1" fill="#ffffff"></path><path id="SvgjsPath1294" d="M 0 30L 396 30" stroke="#323232" stroke-width="2" fill="none"></path><path id="SvgjsPath1295" d="M 0 0L 396 0L 396 64L 0 64Z" stroke="none" fill="none"></path><g id="SvgjsG1296"><text id="SvgjsText1297" font-family="微软雅黑" text-anchor="middle" font-size="13px" width="195" fill="#323232" font-weight="700" align="middle" anchor="middle" family="微软雅黑" size="13px" weight="700" font-style="" y="5.05" transform="rotate(0)"><tspan id="SvgjsTspan1298" dy="16" x="198"><tspan id="SvgjsTspan1299" style="text-decoration:;">ResourceServerTokenServices</tspan></tspan></text></g><g id="SvgjsG1300"><text id="SvgjsText1301" font-family="微软雅黑" text-anchor="start" font-size="13px" width="352" fill="#323232" font-weight="400" align="middle" anchor="start" family="微软雅黑" size="13px" weight="400" font-style="" y="37.05" transform="rotate(0)"><tspan id="SvgjsTspan1302" dy="16" x="10"><tspan id="SvgjsTspan1303" style="text-decoration:;">loadAuthentication(String var1)： OAuth2Authentication</tspan></tspan></text></g></g><g id="SvgjsG1304" transform="translate(410.5,659)"><path id="SvgjsPath1305" d="M 0 4Q 0 0 4 0L 451 0Q 455 0 455 4L 455 94Q 455 98 451 98L 4 98Q 0 98 0 94Z" stroke="#323232" stroke-width="2" fill-opacity="1" fill="#ffffff"></path><path id="SvgjsPath1306" d="M 0 30L 455 30M 0 60L 455 60" stroke="#323232" stroke-width="2" fill="none"></path><path id="SvgjsPath1307" d="M 0 0L 455 0L 455 98L 0 98Z" stroke="none" fill="none"></path><g id="SvgjsG1308"><text id="SvgjsText1309" font-family="微软雅黑" text-anchor="middle" font-size="13px" width="142" fill="#323232" font-weight="700" align="middle" anchor="middle" family="微软雅黑" size="13px" weight="700" font-style="" y="5.05" transform="rotate(0)"><tspan id="SvgjsTspan1310" dy="16" x="227.5"><tspan id="SvgjsTspan1311" style="text-decoration:;">DefaultTokenServices</tspan></tspan></text></g><g id="SvgjsG1312"><text id="SvgjsText1313" font-family="微软雅黑" text-anchor="start" font-size="13px" width="146" fill="#323232" font-weight="400" align="middle" anchor="start" family="微软雅黑" size="13px" weight="400" font-style="" y="35.05" transform="rotate(0)"><tspan id="SvgjsTspan1314" dy="16" x="10"><tspan id="SvgjsTspan1315" style="text-decoration:;">tokenStore: TokenStore </tspan></tspan></text></g><g id="SvgjsG1316"><text id="SvgjsText1317" font-family="微软雅黑" text-anchor="start" font-size="13px" width="428" fill="#323232" font-weight="400" align="middle" anchor="start" family="微软雅黑" size="13px" weight="400" font-style="" y="65.05" transform="rotate(0)"><tspan id="SvgjsTspan1318" dy="16" x="10"><tspan id="SvgjsTspan1319" style="text-decoration:;">loadAuthentication(String accessTokenValue): OAuth2Authentication </tspan></tspan></text></g></g><g id="SvgjsG1320"><path id="SvgjsPath1321" d="M638 659L638 627L638 627L638 595" stroke-dasharray="8,5" stroke="#323232" stroke-width="2" fill="none" marker-end="url(#SvgjsMarker1322)"></path></g><g id="SvgjsG1324" transform="translate(405.375,825)"><path id="SvgjsPath1325" d="M 0 4Q 0 0 4 0L 461.25 0Q 465.25 0 465.25 4L 465.25 78Q 465.25 82 461.25 82L 4 82Q 0 82 0 78Z" stroke="#323232" stroke-width="2" fill-opacity="1" fill="#ffffff"></path><path id="SvgjsPath1326" d="M 0 30L 465.25 30" stroke="#323232" stroke-width="2" fill="none"></path><path id="SvgjsPath1327" d="M 0 0L 465.25 0L 465.25 82L 0 82Z" stroke="none" fill="none"></path><g id="SvgjsG1328"><text id="SvgjsText1329" font-family="微软雅黑" text-anchor="middle" font-size="13px" width="75" fill="#323232" font-weight="700" align="middle" anchor="middle" family="微软雅黑" size="13px" weight="700" font-style="" y="5.05" transform="rotate(0)"><tspan id="SvgjsTspan1330" dy="16" x="233"><tspan id="SvgjsTspan1331" style="text-decoration:;">TokenStore </tspan></tspan></text></g><g id="SvgjsG1332"><text id="SvgjsText1333" font-family="微软雅黑" text-anchor="start" font-size="13px" width="434" fill="#323232" font-weight="400" align="middle" anchor="start" family="微软雅黑" size="13px" weight="400" font-style="" y="38.05" transform="rotate(0)"><tspan id="SvgjsTspan1334" dy="16" x="10"><tspan id="SvgjsTspan1335" style="text-decoration:;">readAccessToken(String var1): OAuth2AccessToken </tspan></tspan><tspan id="SvgjsTspan1336" dy="16" x="10"><tspan id="SvgjsTspan1337" style="text-decoration:;">readAuthentication(OAuth2AccessToken var1): OAuth2Authentication</tspan></tspan></text></g></g><g id="SvgjsG1338" transform="translate(403.9375,970)"><path id="SvgjsPath1339" d="M 0 4Q 0 0 4 0L 464.125 0Q 468.125 0 468.125 4L 468.125 98Q 468.125 102 464.125 102L 4 102Q 0 102 0 98Z" stroke="#323232" stroke-width="2" fill-opacity="1" fill="#ffffff"></path><path id="SvgjsPath1340" d="M 0 30L 468.125 30M 0 60L 468.125 60" stroke="#323232" stroke-width="2" fill="none"></path><path id="SvgjsPath1341" d="M 0 0L 468.125 0L 468.125 102L 0 102Z" stroke="none" fill="none"></path><g id="SvgjsG1342"><text id="SvgjsText1343" font-family="微软雅黑" text-anchor="middle" font-size="13px" width="110" fill="#323232" font-weight="700" align="middle" anchor="middle" family="微软雅黑" size="13px" weight="700" font-style="" y="5.05" transform="rotate(0)"><tspan id="SvgjsTspan1344" dy="16" x="234.5"><tspan id="SvgjsTspan1345" style="text-decoration:;">RedisTokenStore</tspan></tspan></text></g><g id="SvgjsG1346"><text id="SvgjsText1347" font-family="微软雅黑" text-anchor="start" font-size="13px" width="0" fill="#323232" font-weight="400" align="middle" anchor="start" family="微软雅黑" size="13px" weight="400" font-style="" y="35.05" transform="rotate(0)"></text></g><g id="SvgjsG1348"><text id="SvgjsText1349" font-family="微软雅黑" text-anchor="start" font-size="13px" width="443" fill="#323232" font-weight="400" align="middle" anchor="start" family="微软雅黑" size="13px" weight="400" font-style="" y="58.05" transform="rotate(0)"><tspan id="SvgjsTspan1350" dy="16" x="10"><tspan id="SvgjsTspan1351" style="text-decoration:;">readAccessToken(String tokenValue): OAuth2AccessToken </tspan></tspan><tspan id="SvgjsTspan1352" dy="16" x="10"><tspan id="SvgjsTspan1353" style="text-decoration:;">readAuthentication(OAuth2AccessToken token): OAuth2Authentication </tspan></tspan></text></g></g><g id="SvgjsG1354"><path id="SvgjsPath1355" d="M638 825L638 791L638 791L638 757" stroke="#323232" stroke-width="2" fill="none" marker-end="url(#SvgjsMarker1356)"></path></g><g id="SvgjsG1358"><path id="SvgjsPath1359" d="M638 970L638 938.5L638 938.5L638 907" stroke-dasharray="8,5" stroke="#323232" stroke-width="2" fill="none" marker-end="url(#SvgjsMarker1360)"></path></g><g id="SvgjsG1362" transform="translate(854,223)"><path id="SvgjsPath1363" d="M 0 4Q 0 0 4 0L 292 0Q 296 0 296 4L 296 82Q 296 86 292 86L 4 86Q 0 86 0 82Z" stroke="#323232" stroke-width="2" fill-opacity="1" fill="#ffffff"></path><path id="SvgjsPath1364" d="M 0 30L 296 30" stroke="#323232" stroke-width="2" fill="none"></path><path id="SvgjsPath1365" d="M 0 0L 296 0L 296 86L 0 86Z" stroke="none" fill="none"></path><g id="SvgjsG1366"><text id="SvgjsText1367" font-family="微软雅黑" text-anchor="middle" font-size="13px" width="149" fill="#323232" font-weight="700" align="middle" anchor="middle" family="微软雅黑" size="13px" weight="700" font-style="" y="5.05" transform="rotate(0)"><tspan id="SvgjsTspan1368" dy="16" x="148"><tspan id="SvgjsTspan1369" style="text-decoration:;">SecurityContextHolder</tspan></tspan></text></g><g id="SvgjsG1370"><text id="SvgjsText1371" font-family="微软雅黑" text-anchor="start" font-size="13px" width="183" fill="#323232" font-weight="400" align="middle" anchor="start" family="微软雅黑" size="13px" weight="400" font-style="" y="48.05" transform="rotate(0)"><tspan id="SvgjsTspan1372" dy="16" x="10"><tspan id="SvgjsTspan1373" style="text-decoration:;">getContext(): SecurityContext </tspan></tspan></text></g></g><g id="SvgjsG1374" transform="translate(854,373)"><path id="SvgjsPath1375" d="M 0 4Q 0 0 4 0L 292 0Q 296 0 296 4L 296 65Q 296 69 292 69L 4 69Q 0 69 0 65Z" stroke="#323232" stroke-width="2" fill-opacity="1" fill="#ffffff"></path><path id="SvgjsPath1376" d="M 0 30L 296 30" stroke="#323232" stroke-width="2" fill="none"></path><path id="SvgjsPath1377" d="M 0 0L 296 0L 296 69L 0 69Z" stroke="none" fill="none"></path><g id="SvgjsG1378"><text id="SvgjsText1379" font-family="微软雅黑" text-anchor="middle" font-size="13px" width="104" fill="#323232" font-weight="700" align="middle" anchor="middle" family="微软雅黑" size="13px" weight="700" font-style="" y="5.05" transform="rotate(0)"><tspan id="SvgjsTspan1380" dy="16" x="148"><tspan id="SvgjsTspan1381" style="text-decoration:;">SecurityContext </tspan></tspan></text></g><g id="SvgjsG1382"><text id="SvgjsText1383" font-family="微软雅黑" text-anchor="start" font-size="13px" width="275" fill="#323232" font-weight="400" align="middle" anchor="start" family="微软雅黑" size="13px" weight="400" font-style="" y="39.55" transform="rotate(0)"><tspan id="SvgjsTspan1384" dy="16" x="10"><tspan id="SvgjsTspan1385" style="text-decoration:;">setAuthentication(Authentication var1): void</tspan></tspan></text></g></g><g id="SvgjsG1386"><path id="SvgjsPath1387" d="M1002 373L1002 309" stroke="#323232" stroke-width="2" fill="none" marker-end="url(#SvgjsMarker1388)"></path></g><g id="SvgjsG1390"><path id="SvgjsPath1391" d="M1002 223L1002 191L950 191L950 159" stroke="#323232" stroke-width="2" fill="none" marker-end="url(#SvgjsMarker1392)"></path></g><g id="SvgjsG1394"><path id="SvgjsPath1395" d="M638 223L639 159" stroke="#323232" stroke-width="2" fill="none" marker-end="url(#SvgjsMarker1396)"></path></g><g id="SvgjsG1398"><path id="SvgjsPath1399" d="M638 373L638 309" stroke-dasharray="8,5" stroke="#323232" stroke-width="2" fill="none" marker-end="url(#SvgjsMarker1400)"></path></g><g id="SvgjsG1402"><path id="SvgjsPath1403" d="M638 531L638 497L638 497L638 463" stroke="#323232" stroke-width="2" fill="none" marker-end="url(#SvgjsMarker1404)"></path></g></svg>