<svg id="SvgjsSvg2068" width="1246.3000030517578" height="1851.2000122070312" xmlns="http://www.w3.org/2000/svg" version="1.1" xmlns:xlink="http://www.w3.org/1999/xlink" xmlns:svgjs="http://svgjs.com/svgjs"><defs id="SvgjsDefs2069"><marker id="SvgjsMarker2138" markerWidth="14" markerHeight="12" refX="16" refY="6" viewBox="0 0 14 12" orient="auto" markerUnits="userSpaceOnUse"><path id="SvgjsPath2139" d="M1,1 L14,6 L1,11L1,1" fill="#ffffff" stroke="#323232" stroke-width="2"></path></marker><marker id="SvgjsMarker2158" markerWidth="14" markerHeight="12" refX="16" refY="6" viewBox="0 0 14 12" orient="auto" markerUnits="userSpaceOnUse"><path id="SvgjsPath2159" d="M1,1 L14,6 L1,11L1,1" fill="#ffffff" stroke="#323232" stroke-width="2"></path></marker><marker id="SvgjsMarker2188" markerWidth="14" markerHeight="12" refX="16" refY="6" viewBox="0 0 14 12" orient="auto" markerUnits="userSpaceOnUse"><path id="SvgjsPath2189" d="M1,1 L14,6 L1,11L1,1" fill="#ffffff" stroke="#323232" stroke-width="2"></path></marker><marker id="SvgjsMarker2192" markerWidth="16" markerHeight="16" refX="11" refY="8" viewBox="0 0 16 16" orient="auto" markerUnits="userSpaceOnUse"><path id="SvgjsPath2193" d="M0,0 L10,8 L0,16" fill="none" stroke="#323232" stroke-width="2"></path></marker><marker id="SvgjsMarker2196" markerWidth="16" markerHeight="16" refX="11" refY="8" viewBox="0 0 16 16" orient="auto" markerUnits="userSpaceOnUse"><path id="SvgjsPath2197" d="M0,0 L10,8 L0,16" fill="none" stroke="#323232" stroke-width="2"></path></marker><marker id="SvgjsMarker2230" markerWidth="14" markerHeight="12" refX="16" refY="6" viewBox="0 0 14 12" orient="auto" markerUnits="userSpaceOnUse"><path id="SvgjsPath2231" d="M1,1 L14,6 L1,11L1,1" fill="#ffffff" stroke="#323232" stroke-width="2"></path></marker><marker id="SvgjsMarker2246" markerWidth="16" markerHeight="16" refX="11" refY="8" viewBox="0 0 16 16" orient="auto" markerUnits="userSpaceOnUse"><path id="SvgjsPath2247" d="M0,0 L10,8 L0,16" fill="none" stroke="#323232" stroke-width="2"></path></marker><marker id="SvgjsMarker2266" markerWidth="14" markerHeight="12" refX="16" refY="6" viewBox="0 0 14 12" orient="auto" markerUnits="userSpaceOnUse"><path id="SvgjsPath2267" d="M1,1 L14,6 L1,11L1,1" fill="#ffffff" stroke="#323232" stroke-width="2"></path></marker><marker id="SvgjsMarker2282" markerWidth="16" markerHeight="16" refX="11" refY="8" viewBox="0 0 16 16" orient="auto" markerUnits="userSpaceOnUse"><path id="SvgjsPath2283" d="M0,0 L10,8 L0,16" fill="none" stroke="#323232" stroke-width="2"></path></marker><marker id="SvgjsMarker2306" markerWidth="14" markerHeight="12" refX="16" refY="6" viewBox="0 0 14 12" orient="auto" markerUnits="userSpaceOnUse"><path id="SvgjsPath2307" d="M1,1 L14,6 L1,11L1,1" fill="#ffffff" stroke="#323232" stroke-width="2"></path></marker><marker id="SvgjsMarker2326" markerWidth="16" markerHeight="16" refX="11" refY="8" viewBox="0 0 16 16" orient="auto" markerUnits="userSpaceOnUse"><path id="SvgjsPath2327" d="M0,0 L10,8 L0,16" fill="none" stroke="#323232" stroke-width="2"></path></marker><marker id="SvgjsMarker2344" markerWidth="14" markerHeight="12" refX="16" refY="6" viewBox="0 0 14 12" orient="auto" markerUnits="userSpaceOnUse"><path id="SvgjsPath2345" d="M1,1 L14,6 L1,11L1,1" fill="#ffffff" stroke="#323232" stroke-width="2"></path></marker><marker id="SvgjsMarker2360" markerWidth="14" markerHeight="12" refX="16" refY="6" viewBox="0 0 14 12" orient="auto" markerUnits="userSpaceOnUse"><path id="SvgjsPath2361" d="M1,1 L14,6 L1,11L1,1" fill="#ffffff" stroke="#323232" stroke-width="2"></path></marker><marker id="SvgjsMarker2364" markerWidth="16" markerHeight="16" refX="11" refY="8" viewBox="0 0 16 16" orient="auto" markerUnits="userSpaceOnUse"><path id="SvgjsPath2365" d="M0,0 L10,8 L0,16" fill="none" stroke="#323232" stroke-width="2"></path></marker><marker id="SvgjsMarker2382" markerWidth="14" markerHeight="12" refX="16" refY="6" viewBox="0 0 14 12" orient="auto" markerUnits="userSpaceOnUse"><path id="SvgjsPath2383" d="M1,1 L14,6 L1,11L1,1" fill="#ffffff" stroke="#323232" stroke-width="2"></path></marker><marker id="SvgjsMarker2386" markerWidth="14" markerHeight="12" refX="16" refY="6" viewBox="0 0 14 12" orient="auto" markerUnits="userSpaceOnUse"><path id="SvgjsPath2387" d="M1,1 L14,6 L1,11L1,1" fill="#ffffff" stroke="#323232" stroke-width="2"></path></marker><marker id="SvgjsMarker2416" markerWidth="16" markerHeight="16" refX="11" refY="8" viewBox="0 0 16 16" orient="auto" markerUnits="userSpaceOnUse"><path id="SvgjsPath2417" d="M0,0 L10,8 L0,16" fill="none" stroke="#323232" stroke-width="2"></path></marker><marker id="SvgjsMarker2420" markerWidth="14" markerHeight="12" refX="16" refY="6" viewBox="0 0 14 12" orient="auto" markerUnits="userSpaceOnUse"><path id="SvgjsPath2421" d="M1,1 L14,6 L1,11L1,1" fill="#ffffff" stroke="#323232" stroke-width="2"></path></marker></defs><g id="SvgjsG2070" transform="translate(128.30623424053192,245.20001220703125)"><path id="SvgjsPath2071" d="M 0 4Q 0 0 4 0L 1088.9000035524368 0Q 1092.9000035524368 0 1092.9000035524368 4L 1092.9000035524368 86.79999542236328Q 1092.9000035524368 90.79999542236328 1088.9000035524368 90.79999542236328L 4 90.79999542236328Q 0 90.79999542236328 0 86.79999542236328Z" stroke="#323232" stroke-width="2" fill-opacity="1" fill="#ffffff"></path><path id="SvgjsPath2072" d="M 0 30L 1092.9000035524368 30M 0 60L 1092.9000035524368 60" stroke="#323232" stroke-width="2" fill="none"></path><path id="SvgjsPath2073" d="M 0 0L 1092.9000035524368 0L 1092.9000035524368 90.79999542236328L 0 90.79999542236328Z" stroke="none" fill="none"></path><g id="SvgjsG2074"><text id="SvgjsText2075" font-family="微软雅黑" text-anchor="middle" font-size="13px" width="100" fill="#323232" font-weight="700" align="middle" anchor="middle" family="微软雅黑" size="13px" weight="700" font-style="" y="5.05" transform="rotate(0)"><tspan id="SvgjsTspan2076" dy="16" x="546.5"><tspan id="SvgjsTspan2077" style="text-decoration:;">TokenEndpoint</tspan></tspan></text></g><g id="SvgjsG2078"><text id="SvgjsText2079" font-family="微软雅黑" text-anchor="start" font-size="13px" width="0" fill="#323232" font-weight="400" align="middle" anchor="start" family="微软雅黑" size="13px" weight="400" font-style="" y="35.05" transform="rotate(0)"></text></g><g id="SvgjsG2080"><text id="SvgjsText2081" font-family="微软雅黑" text-anchor="start" font-size="13px" width="545" fill="#323232" font-weight="400" align="middle" anchor="start" family="微软雅黑" size="13px" weight="400" font-style="" y="65.05" transform="rotate(0)"><tspan id="SvgjsTspan2082" dy="16" x="10"><tspan id="SvgjsTspan2083" style="text-decoration:;">postAccessToken(Principal principal, @RequestParam Map&lt;String, String&gt; parameters): ResponseEntity&lt;OAuth2AccessToken&gt; </tspan></tspan></text></g></g><g id="SvgjsG2084" transform="translate(31.20623779296875,537.2000122070312)"><path id="SvgjsPath2085" d="M 0 4Q 0 0 4 0L 327.8000030517578 0Q 331.8000030517578 0 331.8000030517578 4L 331.8000030517578 95Q 331.8000030517578 99 327.8000030517578 99L 4 99Q 0 99 0 95Z" stroke="#323232" stroke-width="2" fill-opacity="1" fill="#ffffff"></path><path id="SvgjsPath2086" d="M 0 30L 331.8000030517578 30M 0 62L 331.8000030517578 62" stroke="#323232" stroke-width="2" fill="none"></path><path id="SvgjsPath2087" d="M 0 0L 331.8000030517578 0L 331.8000030517578 99L 0 99Z" stroke="none" fill="none"></path><g id="SvgjsG2088"><text id="SvgjsText2089" font-family="微软雅黑" text-anchor="middle" font-size="13px" width="159" fill="#323232" font-weight="700" align="middle" anchor="middle" family="微软雅黑" size="13px" weight="700" font-style="" y="5.05" transform="rotate(0)"><tspan id="SvgjsTspan2090" dy="16" x="166"><tspan id="SvgjsTspan2091" style="text-decoration:;">JdbcClientDetailsService</tspan></tspan></text></g><g id="SvgjsG2092"><text id="SvgjsText2093" font-family="微软雅黑" text-anchor="start" font-size="13px" width="0" fill="#323232" font-weight="400" align="middle" anchor="start" family="微软雅黑" size="13px" weight="400" font-style="" y="35.05" transform="rotate(0)"></text></g><g id="SvgjsG2094"><text id="SvgjsText2095" font-family="微软雅黑" text-anchor="start" font-size="13px" width="306" fill="#323232" font-weight="400" align="middle" anchor="start" family="微软雅黑" size="13px" weight="400" font-style="" y="76.05" transform="rotate(0)"><tspan id="SvgjsTspan2096" dy="16" x="10"><tspan id="SvgjsTspan2097" style="text-decoration:;">loadClientByClientId(String clientId): ClientDetails </tspan></tspan></text></g></g><g id="SvgjsG2098" transform="translate(389.23123690485954,25.000015258789062)"><path id="SvgjsPath2099" d="M 0 4Q 0 0 4 0L 567.0499982237816 0Q 571.0499982237816 0 571.0499982237816 4L 571.0499982237816 154Q 571.0499982237816 158 567.0499982237816 158L 4 158Q 0 158 0 154Z" stroke="#323232" stroke-width="2" fill-opacity="1" fill="#ffffff"></path><path id="SvgjsPath2100" d="M 0 30L 571.0499982237816 30M 0 96L 571.0499982237816 96" stroke="#323232" stroke-width="2" fill="none"></path><path id="SvgjsPath2101" d="M 0 0L 571.0499982237816 0L 571.0499982237816 158L 0 158Z" stroke="none" fill="none"></path><g id="SvgjsG2102"><text id="SvgjsText2103" font-family="微软雅黑" text-anchor="middle" font-size="13px" width="115" fill="#323232" font-weight="700" align="middle" anchor="middle" family="微软雅黑" size="13px" weight="700" font-style="" y="5.05" transform="rotate(0)"><tspan id="SvgjsTspan2104" dy="16" x="286"><tspan id="SvgjsTspan2105" style="text-decoration:;">AbstractEndpoint</tspan></tspan></text></g><g id="SvgjsG2106"><text id="SvgjsText2107" font-family="微软雅黑" text-anchor="start" font-size="13px" width="339" fill="#323232" font-weight="400" align="middle" anchor="start" family="微软雅黑" size="13px" weight="400" font-style="" y="28.05" transform="rotate(0)"><tspan id="SvgjsTspan2108" dy="16" x="10"><tspan id="SvgjsTspan2109" style="text-decoration:;">tokenGranter: TokenGranter</tspan></tspan><tspan id="SvgjsTspan2110" dy="16" x="10"><tspan id="SvgjsTspan2111" style="text-decoration:;">clientDetailsService: ClientDetailsService</tspan></tspan><tspan id="SvgjsTspan2112" dy="16" x="10"><tspan id="SvgjsTspan2113" style="text-decoration:;">oAuth2RequestFactory: OAuth2RequestFactory</tspan></tspan><tspan id="SvgjsTspan2114" dy="16" x="10"><tspan id="SvgjsTspan2115" style="text-decoration:;">defaultOAuth2RequestFactory: OAuth2RequestFactory</tspan></tspan></text></g><g id="SvgjsG2116"><text id="SvgjsText2117" font-family="微软雅黑" text-anchor="start" font-size="13px" width="325" fill="#323232" font-weight="400" align="middle" anchor="start" family="微软雅黑" size="13px" weight="400" font-style="" y="100.64999847412109" transform="rotate(0)"><tspan id="SvgjsTspan2118" dy="16" x="10"><tspan id="SvgjsTspan2119" style="text-decoration:;">getClientDetailsService(): ClientDetailsService </tspan></tspan><tspan id="SvgjsTspan2120" dy="16" x="10"><tspan id="SvgjsTspan2121" style="text-decoration:;">getOAuth2RequestFactory(): OAuth2RequestFactory</tspan></tspan><tspan id="SvgjsTspan2122" dy="16" x="10"><tspan id="SvgjsTspan2123" style="text-decoration:;">getTokenGranter(): TokenGranter</tspan></tspan></text></g></g><g id="SvgjsG2124" transform="translate(30.20623779296875,401.20001220703125)"><path id="SvgjsPath2125" d="M 0 4Q 0 0 4 0L 329.8000030517578 0Q 333.8000030517578 0 333.8000030517578 4L 333.8000030517578 67Q 333.8000030517578 71 329.8000030517578 71L 4 71Q 0 71 0 67Z" stroke="#323232" stroke-width="2" fill-opacity="1" fill="#ffffff"></path><path id="SvgjsPath2126" d="M 0 30L 333.8000030517578 30" stroke="#323232" stroke-width="2" fill="none"></path><path id="SvgjsPath2127" d="M 0 0L 333.8000030517578 0L 333.8000030517578 71L 0 71Z" stroke="none" fill="none"></path><g id="SvgjsG2128"><text id="SvgjsText2129" font-family="微软雅黑" text-anchor="middle" font-size="13px" width="129" fill="#323232" font-weight="700" align="middle" anchor="middle" family="微软雅黑" size="13px" weight="700" font-style="" y="5.05" transform="rotate(0)"><tspan id="SvgjsTspan2130" dy="16" x="167"><tspan id="SvgjsTspan2131" style="text-decoration:;">ClientDetailsService</tspan></tspan></text></g><g id="SvgjsG2132"><text id="SvgjsText2133" font-family="微软雅黑" text-anchor="start" font-size="13px" width="287" fill="#323232" font-weight="400" align="middle" anchor="start" family="微软雅黑" size="13px" weight="400" font-style="" y="40.55" transform="rotate(0)"><tspan id="SvgjsTspan2134" dy="16" x="10"><tspan id="SvgjsTspan2135" style="text-decoration:;">loadClientByClientId(String var1): ClientDetails </tspan></tspan></text></g></g><g id="SvgjsG2136"><path id="SvgjsPath2137" d="M197.10623931884766 537.2000122070312L197.10623931884766 504.70001220703125L197.10623931884766 504.70001220703125L197.10623931884766 472.20001220703125" stroke-dasharray="8,5" stroke="#323232" stroke-width="2" fill="none" marker-end="url(#SvgjsMarker2138)"></path></g><g id="SvgjsG2140" transform="translate(30.20623779296875,698.2000122070312)"><path id="SvgjsPath2141" d="M 0 4Q 0 0 4 0L 329.8000030517578 0Q 333.8000030517578 0 333.8000030517578 4L 333.8000030517578 92Q 333.8000030517578 96 329.8000030517578 96L 4 96Q 0 96 0 92Z" stroke="#323232" stroke-width="2" fill-opacity="1" fill="#ffffff"></path><path id="SvgjsPath2142" d="M 0 30L 333.8000030517578 30M 0 60L 333.8000030517578 60" stroke="#323232" stroke-width="2" fill="none"></path><path id="SvgjsPath2143" d="M 0 0L 333.8000030517578 0L 333.8000030517578 96L 0 96Z" stroke="none" fill="none"></path><g id="SvgjsG2144"><text id="SvgjsText2145" font-family="微软雅黑" text-anchor="middle" font-size="13px" width="165" fill="#323232" font-weight="700" align="middle" anchor="middle" family="微软雅黑" size="13px" weight="700" font-style="" y="5.05" transform="rotate(0)"><tspan id="SvgjsTspan2146" dy="16" x="167"><tspan id="SvgjsTspan2147" style="text-decoration:;">RedisClientDetailsService</tspan></tspan></text></g><g id="SvgjsG2148"><text id="SvgjsText2149" font-family="微软雅黑" text-anchor="start" font-size="13px" width="263" fill="#323232" font-weight="400" align="middle" anchor="start" family="微软雅黑" size="13px" weight="400" font-style="" y="35.05" transform="rotate(0)"><tspan id="SvgjsTspan2150" dy="16" x="10"><tspan id="SvgjsTspan2151" style="text-decoration:;">stringRedisTemplate: StringRedisTemplate </tspan></tspan></text></g><g id="SvgjsG2152"><text id="SvgjsText2153" font-family="微软雅黑" text-anchor="start" font-size="13px" width="306" fill="#323232" font-weight="400" align="middle" anchor="start" family="微软雅黑" size="13px" weight="400" font-style="" y="65.05" transform="rotate(0)"><tspan id="SvgjsTspan2154" dy="16" x="10"><tspan id="SvgjsTspan2155" style="text-decoration:;">loadClientByClientId(String clientId): ClientDetails </tspan></tspan></text></g></g><g id="SvgjsG2156"><path id="SvgjsPath2157" d="M197.10623931884766 698.2000122070312L197.10623931884766 667.2000122070312L197.10623931884766 667.2000122070312L197.10623931884766 636.2000122070312" stroke="#323232" stroke-width="2" fill="none" marker-end="url(#SvgjsMarker2158)"></path></g><g id="SvgjsG2160" transform="translate(526.0062408447266,401.20001220703125)"><path id="SvgjsPath2161" d="M 0 4Q 0 0 4 0L 530 0Q 534 0 534 4L 534 67Q 534 71 530 71L 4 71Q 0 71 0 67Z" stroke="#323232" stroke-width="2" fill-opacity="1" fill="#ffffff"></path><path id="SvgjsPath2162" d="M 0 30L 534 30" stroke="#323232" stroke-width="2" fill="none"></path><path id="SvgjsPath2163" d="M 0 0L 534 0L 534 71L 0 71Z" stroke="none" fill="none"></path><g id="SvgjsG2164"><text id="SvgjsText2165" font-family="微软雅黑" text-anchor="middle" font-size="13px" width="152" fill="#323232" font-weight="700" align="middle" anchor="middle" family="微软雅黑" size="13px" weight="700" font-style="" y="5.05" transform="rotate(0)"><tspan id="SvgjsTspan2166" dy="16" x="267"><tspan id="SvgjsTspan2167" style="text-decoration:;">OAuth2RequestFactory</tspan></tspan></text></g><g id="SvgjsG2168"><text id="SvgjsText2169" font-family="微软雅黑" text-anchor="start" font-size="13px" width="405" fill="#323232" font-weight="400" align="middle" anchor="start" family="微软雅黑" size="13px" weight="400" font-style="" y="40.55" transform="rotate(0)"><tspan id="SvgjsTspan2170" dy="16" x="10"><tspan id="SvgjsTspan2171" style="text-decoration:;">createTokenRequest(Map&lt;String, String&gt; var1, ClientDetails var2): TokenRequest </tspan></tspan></text></g></g><g id="SvgjsG2172" transform="translate(376.00624084472656,537.2000122070312)"><path id="SvgjsPath2173" d="M 0 4Q 0 0 4 0L 730 0Q 734 0 734 4L 734 95Q 734 99 730 99L 4 99Q 0 99 0 95Z" stroke="#323232" stroke-width="2" fill-opacity="1" fill="#ffffff"></path><path id="SvgjsPath2174" d="M 0 30L 734 30M 0 62L 734 62" stroke="#323232" stroke-width="2" fill="none"></path><path id="SvgjsPath2175" d="M 0 0L 734 0L 734 99L 0 99Z" stroke="none" fill="none"></path><g id="SvgjsG2176"><text id="SvgjsText2177" font-family="微软雅黑" text-anchor="middle" font-size="13px" width="200" fill="#323232" font-weight="700" align="middle" anchor="middle" family="微软雅黑" size="13px" weight="700" font-style="" y="5.05" transform="rotate(0)"><tspan id="SvgjsTspan2178" dy="16" x="367"><tspan id="SvgjsTspan2179" style="text-decoration:;">DefaultOAuth2RequestFactory</tspan></tspan></text></g><g id="SvgjsG2180"><text id="SvgjsText2181" font-family="微软雅黑" text-anchor="start" font-size="13px" width="0" fill="#323232" font-weight="400" align="middle" anchor="start" family="微软雅黑" size="13px" weight="400" font-style="" y="35.05" transform="rotate(0)"></text></g><g id="SvgjsG2182"><text id="SvgjsText2183" font-family="微软雅黑" text-anchor="start" font-size="13px" width="591" fill="#323232" font-weight="400" align="middle" anchor="start" family="微软雅黑" size="13px" weight="400" font-style="" y="67.05" transform="rotate(0)"><tspan id="SvgjsTspan2184" dy="16" x="10"><tspan id="SvgjsTspan2185" style="text-decoration:;">createTokenRequest(Map&lt;String, String&gt; requestParameters, ClientDetails authenticatedClient): TokenRequest </tspan></tspan></text></g></g><g id="SvgjsG2186"><path id="SvgjsPath2187" d="M743.0062408447266 537.2000122070312L743.0062408447266 504.70001220703125L793.0062408447266 504.70001220703125L793.0062408447266 472.20001220703125" stroke-dasharray="8,5" stroke="#323232" stroke-width="2" fill="none" marker-end="url(#SvgjsMarker2188)"></path></g><g id="SvgjsG2190"><path id="SvgjsPath2191" d="M793.0062408447266 401.20001220703125L793.0062408447266 370.30001068115234L793.0062408447266 370.30001068115234L793.0062408447266 339.40000915527344" stroke="#323232" stroke-width="2" fill="none" marker-end="url(#SvgjsMarker2192)"></path></g><g id="SvgjsG2194"><path id="SvgjsPath2195" d="M197.10623931884766 401.20001220703125L197.10623931884766 369.80001068115234L197.10623931884766 369.80001068115234L197.10623931884766 338.40000915527344" stroke="#323232" stroke-width="2" fill="none" marker-end="url(#SvgjsMarker2196)"></path></g><g id="SvgjsG2198" transform="translate(816.9062403440475,837.4000244140625)"><path id="SvgjsPath2199" d="M 0 4Q 0 0 4 0L 396 0Q 400 0 400 4L 400 59Q 400 63 396 63L 4 63Q 0 63 0 59Z" stroke="#323232" stroke-width="2" fill-opacity="1" fill="#ffffff"></path><path id="SvgjsPath2200" d="M 0 30L 400 30" stroke="#323232" stroke-width="2" fill="none"></path><path id="SvgjsPath2201" d="M 0 0L 400 0L 400 63L 0 63Z" stroke="none" fill="none"></path><g id="SvgjsG2202"><text id="SvgjsText2203" font-family="微软雅黑" text-anchor="middle" font-size="13px" width="90" fill="#323232" font-weight="700" align="middle" anchor="middle" family="微软雅黑" size="13px" weight="700" font-style="" y="5.05" transform="rotate(0)"><tspan id="SvgjsTspan2204" dy="16" x="200"><tspan id="SvgjsTspan2205" style="text-decoration:;">TokenGranter </tspan></tspan></text></g><g id="SvgjsG2206"><text id="SvgjsText2207" font-family="微软雅黑" text-anchor="start" font-size="13px" width="370" fill="#323232" font-weight="400" align="middle" anchor="start" family="微软雅黑" size="13px" weight="400" font-style="" y="36.55" transform="rotate(0)"><tspan id="SvgjsTspan2208" dy="16" x="10"><tspan id="SvgjsTspan2209" style="text-decoration:;">grant(String var1, TokenRequest var2): OAuth2AccessToken </tspan></tspan></text></g></g><g id="SvgjsG2210" transform="translate(612.506239771843,970.4000244140625)"><path id="SvgjsPath2211" d="M 0 4Q 0 0 4 0L 600.4000005722046 0Q 604.4000005722046 0 604.4000005722046 4L 604.4000005722046 100Q 604.4000005722046 104 600.4000005722046 104L 4 104Q 0 104 0 100Z" stroke="#323232" stroke-width="2" fill-opacity="1" fill="#ffffff"></path><path id="SvgjsPath2212" d="M 0 30L 604.4000005722046 30M 0 62L 604.4000005722046 62" stroke="#323232" stroke-width="2" fill="none"></path><path id="SvgjsPath2213" d="M 0 0L 604.4000005722046 0L 604.4000005722046 104L 0 104Z" stroke="none" fill="none"></path><g id="SvgjsG2214"><text id="SvgjsText2215" font-family="微软雅黑" text-anchor="middle" font-size="13px" width="146" fill="#323232" font-weight="700" align="middle" anchor="middle" family="微软雅黑" size="13px" weight="700" font-style="" y="5.05" transform="rotate(0)"><tspan id="SvgjsTspan2216" dy="16" x="302.5"><tspan id="SvgjsTspan2217" style="text-decoration:;">AbstractTokenGranter</tspan></tspan></text></g><g id="SvgjsG2218"><text id="SvgjsText2219" font-family="微软雅黑" text-anchor="start" font-size="13px" width="304" fill="#323232" font-weight="400" align="middle" anchor="start" family="微软雅黑" size="13px" weight="400" font-style="" y="36.05" transform="rotate(0)"><tspan id="SvgjsTspan2220" dy="16" x="10"><tspan id="SvgjsTspan2221" style="text-decoration:;">tokenServices: AuthorizationServerTokenServices </tspan></tspan></text></g><g id="SvgjsG2222"><text id="SvgjsText2223" font-family="微软雅黑" text-anchor="start" font-size="13px" width="545" fill="#323232" font-weight="400" align="middle" anchor="start" family="微软雅黑" size="13px" weight="400" font-style="" y="60.05" transform="rotate(0)"><tspan id="SvgjsTspan2224" dy="16" x="10"><tspan id="SvgjsTspan2225" style="text-decoration:;">grant(String grantType, TokenRequest tokenRequest): OAuth2AccessToken </tspan></tspan><tspan id="SvgjsTspan2226" dy="16" x="10"><tspan id="SvgjsTspan2227" style="text-decoration:;">getAccessToken(ClientDetails client, TokenRequest tokenRequest): OAuth2AccessToken</tspan></tspan></text></g></g><g id="SvgjsG2228"><path id="SvgjsPath2229" d="M914.7062400579453 970.4000244140625L914.7062400579453 935.4000244140625L1016.9062403440475 935.4000244140625L1016.9062403440475 900.4000244140625" stroke-dasharray="8,5" stroke="#323232" stroke-width="2" fill="none" marker-end="url(#SvgjsMarker2230)"></path></g><g id="SvgjsG2232" transform="translate(612.506239771843,1135.4000244140625)"><path id="SvgjsPath2233" d="M 0 4Q 0 0 4 0L 600.4000005722046 0Q 604.4000005722046 0 604.4000005722046 4L 604.4000005722046 70Q 604.4000005722046 74 600.4000005722046 74L 4 74Q 0 74 0 70Z" stroke="#323232" stroke-width="2" fill-opacity="1" fill="#ffffff"></path><path id="SvgjsPath2234" d="M 0 32L 604.4000005722046 32" stroke="#323232" stroke-width="2" fill="none"></path><path id="SvgjsPath2235" d="M 0 0L 604.4000005722046 0L 604.4000005722046 74L 0 74Z" stroke="none" fill="none"></path><g id="SvgjsG2236"><text id="SvgjsText2237" font-family="微软雅黑" text-anchor="middle" font-size="13px" width="225" fill="#323232" font-weight="700" align="middle" anchor="middle" family="微软雅黑" size="13px" weight="700" font-style="" y="6.05" transform="rotate(0)"><tspan id="SvgjsTspan2238" dy="16" x="302.5"><tspan id="SvgjsTspan2239" style="text-decoration:;">AuthorizationServerTokenServices</tspan></tspan></text></g><g id="SvgjsG2240"><text id="SvgjsText2241" font-family="微软雅黑" text-anchor="start" font-size="13px" width="432" fill="#323232" font-weight="400" align="middle" anchor="start" family="微软雅黑" size="13px" weight="400" font-style="" y="43.05" transform="rotate(0)"><tspan id="SvgjsTspan2242" dy="16" x="10"><tspan id="SvgjsTspan2243" style="text-decoration:;">createAccessToken(OAuth2Authentication var1): OAuth2AccessToken </tspan></tspan></text></g></g><g id="SvgjsG2244"><path id="SvgjsPath2245" d="M914.7062400579453 1135.4000244140625L914.7062400579453 1104.9000244140625L914.7062400579453 1104.9000244140625L914.7062400579453 1074.4000244140625" stroke="#323232" stroke-width="2" fill="none" marker-end="url(#SvgjsMarker2246)"></path></g><g id="SvgjsG2248" transform="translate(612.506239771843,1270.4000244140625)"><path id="SvgjsPath2249" d="M 0 4Q 0 0 4 0L 600.4000005722046 0Q 604.4000005722046 0 604.4000005722046 4L 604.4000005722046 100Q 604.4000005722046 104 600.4000005722046 104L 4 104Q 0 104 0 100Z" stroke="#323232" stroke-width="2" fill-opacity="1" fill="#ffffff"></path><path id="SvgjsPath2250" d="M 0 30L 604.4000005722046 30M 0 62L 604.4000005722046 62" stroke="#323232" stroke-width="2" fill="none"></path><path id="SvgjsPath2251" d="M 0 0L 604.4000005722046 0L 604.4000005722046 104L 0 104Z" stroke="none" fill="none"></path><g id="SvgjsG2252"><text id="SvgjsText2253" font-family="微软雅黑" text-anchor="middle" font-size="13px" width="142" fill="#323232" font-weight="700" align="middle" anchor="middle" family="微软雅黑" size="13px" weight="700" font-style="" y="5.05" transform="rotate(0)"><tspan id="SvgjsTspan2254" dy="16" x="302.5"><tspan id="SvgjsTspan2255" style="text-decoration:;">DefaultTokenServices</tspan></tspan></text></g><g id="SvgjsG2256"><text id="SvgjsText2257" font-family="微软雅黑" text-anchor="start" font-size="13px" width="146" fill="#323232" font-weight="400" align="middle" anchor="start" family="微软雅黑" size="13px" weight="400" font-style="" y="35.05" transform="rotate(0)"><tspan id="SvgjsTspan2258" dy="16" x="10"><tspan id="SvgjsTspan2259" style="text-decoration:;">tokenStore: TokenStore </tspan></tspan></text></g><g id="SvgjsG2260"><text id="SvgjsText2261" font-family="微软雅黑" text-anchor="start" font-size="13px" width="492" fill="#323232" font-weight="400" align="middle" anchor="start" family="微软雅黑" size="13px" weight="400" font-style="" y="76.05" transform="rotate(0)"><tspan id="SvgjsTspan2262" dy="16" x="10"><tspan id="SvgjsTspan2263" style="text-decoration:;">OAuth2AccessToken createAccessToken(OAuth2Authentication authentication)</tspan></tspan></text></g></g><g id="SvgjsG2264"><path id="SvgjsPath2265" d="M914.7062400579453 1270.4000244140625L914.7062400579453 1239.9000244140625L914.7062400579453 1239.9000244140625L914.7062400579453 1209.4000244140625" stroke-dasharray="8,5" stroke="#323232" stroke-width="2" fill="none" marker-end="url(#SvgjsMarker2266)"></path></g><g id="SvgjsG2268" transform="translate(616.3062402009964,1435.4000244140625)"><path id="SvgjsPath2269" d="M 0 4Q 0 0 4 0L 592.7999997138977 0Q 596.7999997138977 0 596.7999997138977 4L 596.7999997138977 64Q 596.7999997138977 68 592.7999997138977 68L 4 68Q 0 68 0 64Z" stroke="#323232" stroke-width="2" fill-opacity="1" fill="#ffffff"></path><path id="SvgjsPath2270" d="M 0 30L 596.7999997138977 30" stroke="#323232" stroke-width="2" fill="none"></path><path id="SvgjsPath2271" d="M 0 0L 596.7999997138977 0L 596.7999997138977 68L 0 68Z" stroke="none" fill="none"></path><g id="SvgjsG2272"><text id="SvgjsText2273" font-family="微软雅黑" text-anchor="middle" font-size="13px" width="75" fill="#323232" font-weight="700" align="middle" anchor="middle" family="微软雅黑" size="13px" weight="700" font-style="" y="5.05" transform="rotate(0)"><tspan id="SvgjsTspan2274" dy="16" x="298.5"><tspan id="SvgjsTspan2275" style="text-decoration:;">TokenStore</tspan></tspan></text></g><g id="SvgjsG2276"><text id="SvgjsText2277" font-family="微软雅黑" text-anchor="start" font-size="13px" width="414" fill="#323232" font-weight="400" align="middle" anchor="start" family="微软雅黑" size="13px" weight="400" font-style="" y="39.05" transform="rotate(0)"><tspan id="SvgjsTspan2278" dy="16" x="10"><tspan id="SvgjsTspan2279" style="text-decoration:;">getAccessToken(OAuth2Authentication var1): OAuth2AccessToken </tspan></tspan></text></g></g><g id="SvgjsG2280"><path id="SvgjsPath2281" d="M914.7062400579453 1435.4000244140625L914.7062400579453 1404.9000244140625L914.7062400579453 1404.9000244140625L914.7062400579453 1374.4000244140625" stroke="#323232" stroke-width="2" fill="none" marker-end="url(#SvgjsMarker2282)"></path></g><g id="SvgjsG2284" transform="translate(614.4062399864197,1567.4000854492188)"><path id="SvgjsPath2285" d="M 0 4Q 0 0 4 0L 596.6000001430511 0Q 600.6000001430511 0 600.6000001430511 4L 600.6000001430511 116.7999267578125Q 600.6000001430511 120.7999267578125 596.6000001430511 120.7999267578125L 4 120.7999267578125Q 0 120.7999267578125 0 116.7999267578125Z" stroke="#323232" stroke-width="2" fill-opacity="1" fill="#ffffff"></path><path id="SvgjsPath2286" d="M 0 30L 600.6000001430511 30M 0 60L 600.6000001430511 60" stroke="#323232" stroke-width="2" fill="none"></path><path id="SvgjsPath2287" d="M 0 0L 600.6000001430511 0L 600.6000001430511 120.7999267578125L 0 120.7999267578125Z" stroke="none" fill="none"></path><g id="SvgjsG2288"><text id="SvgjsText2289" font-family="微软雅黑" text-anchor="middle" font-size="13px" width="110" fill="#323232" font-weight="700" align="middle" anchor="middle" family="微软雅黑" size="13px" weight="700" font-style="" y="5.05" transform="rotate(0)"><tspan id="SvgjsTspan2290" dy="16" x="300.5"><tspan id="SvgjsTspan2291" style="text-decoration:;">RedisTokenStore</tspan></tspan></text></g><g id="SvgjsG2292"><text id="SvgjsText2293" font-family="微软雅黑" text-anchor="start" font-size="13px" width="359" fill="#323232" font-weight="400" align="middle" anchor="start" family="微软雅黑" size="13px" weight="400" font-style="" y="35.05" transform="rotate(0)"><tspan id="SvgjsTspan2294" dy="16" x="10"><tspan id="SvgjsTspan2295" style="text-decoration:;">authenticationKeyGenerator: AuthenticationKeyGenerator</tspan></tspan></text></g><g id="SvgjsG2296"><text id="SvgjsText2297" font-family="微软雅黑" text-anchor="start" font-size="13px" width="478" fill="#323232" font-weight="400" align="middle" anchor="start" family="微软雅黑" size="13px" weight="400" font-style="" y="58.05" transform="rotate(0)"><tspan id="SvgjsTspan2298" dy="16" x="10"><tspan id="SvgjsTspan2299" style="text-decoration:;">getAccessToken(OAuth2Authentication authentication): OAuth2AccessToken</tspan></tspan><tspan id="SvgjsTspan2300" dy="16" x="10"><tspan id="SvgjsTspan2301" style="text-decoration:;">serializeKey(String object): byte[]</tspan></tspan><tspan id="SvgjsTspan2302" dy="16" x="10"><tspan id="SvgjsTspan2303" style="text-decoration:;">deserializeAccessToken(byte[] bytes): OAuth2AccessToken </tspan></tspan></text></g></g><g id="SvgjsG2304"><path id="SvgjsPath2305" d="M914.7062400579453 1567.4000854492188L914.7062400579453 1535.4000549316406L914.7062400579453 1535.4000549316406L914.7062400579453 1503.4000244140625" stroke-dasharray="8,5" stroke="#323232" stroke-width="2" fill="none" marker-end="url(#SvgjsMarker2306)"></path></g><g id="SvgjsG2308" transform="translate(27.20623779296875,1413.1500244140625)"><path id="SvgjsPath2309" d="M 0 4Q 0 0 4 0L 462.3999786376953 0Q 466.3999786376953 0 466.3999786376953 4L 466.3999786376953 108.5Q 466.3999786376953 112.5 462.3999786376953 112.5L 4 112.5Q 0 112.5 0 108.5Z" stroke="#323232" stroke-width="2" fill-opacity="1" fill="#ffffff"></path><path id="SvgjsPath2310" d="M 0 30L 466.3999786376953 30M 0 62L 466.3999786376953 62" stroke="#323232" stroke-width="2" fill="none"></path><path id="SvgjsPath2311" d="M 0 0L 466.3999786376953 0L 466.3999786376953 112.5L 0 112.5Z" stroke="none" fill="none"></path><g id="SvgjsG2312"><text id="SvgjsText2313" font-family="微软雅黑" text-anchor="middle" font-size="13px" width="175" fill="#323232" font-weight="700" align="middle" anchor="middle" family="微软雅黑" size="13px" weight="700" font-style="" y="5.05" transform="rotate(0)"><tspan id="SvgjsTspan2314" dy="16" x="233.5"><tspan id="SvgjsTspan2315" style="text-decoration:;">AuthorizationServerConfig</tspan></tspan></text></g><g id="SvgjsG2316"><text id="SvgjsText2317" font-family="微软雅黑" text-anchor="start" font-size="13px" width="0" fill="#323232" font-weight="400" align="middle" anchor="start" family="微软雅黑" size="13px" weight="400" font-style="" y="35.05" transform="rotate(0)"></text></g><g id="SvgjsG2318"><text id="SvgjsText2319" font-family="微软雅黑" text-anchor="start" font-size="13px" width="421" fill="#323232" font-weight="400" align="middle" anchor="start" family="微软雅黑" size="13px" weight="400" font-style="" y="70.3" transform="rotate(0)"><tspan id="SvgjsTspan2320" dy="16" x="10"><tspan id="SvgjsTspan2321" style="text-decoration:;">tokenStore(): TokenStore </tspan></tspan><tspan id="SvgjsTspan2322" dy="16" x="10"><tspan id="SvgjsTspan2323" style="text-decoration:;">configure(AuthorizationServerEndpointsConfigurer endpoints): void</tspan></tspan></text></g></g><g id="SvgjsG2324"><path id="SvgjsPath2325" d="M616.3062402009964 1469.4000244140625L554.9562283158302 1469.4000244140625L554.9562283158302 1469.4000244140625L493.60621643066406 1469.4000244140625" stroke="#323232" stroke-width="2" fill="none" marker-end="url(#SvgjsMarker2326)"></path></g><g id="SvgjsG2328" transform="translate(27.20623779296875,1261.4000244140625)"><path id="SvgjsPath2329" d="M 0 4Q 0 0 4 0L 462.3999786376953 0Q 466.3999786376953 0 466.3999786376953 4L 466.3999786376953 88Q 466.3999786376953 92 462.3999786376953 92L 4 92Q 0 92 0 88Z" stroke="#323232" stroke-width="2" fill-opacity="1" fill="#ffffff"></path><path id="SvgjsPath2330" d="M 0 32L 466.3999786376953 32M 0 64L 466.3999786376953 64" stroke="#323232" stroke-width="2" fill="none"></path><path id="SvgjsPath2331" d="M 0 0L 466.3999786376953 0L 466.3999786376953 92L 0 92Z" stroke="none" fill="none"></path><g id="SvgjsG2332"><text id="SvgjsText2333" font-family="微软雅黑" text-anchor="middle" font-size="13px" width="255" fill="#323232" font-weight="700" align="middle" anchor="middle" family="微软雅黑" size="13px" weight="700" font-style="" y="6.05" transform="rotate(0)"><tspan id="SvgjsTspan2334" dy="16" x="233.5"><tspan id="SvgjsTspan2335" style="text-decoration:;">AuthorizationServerConfigurerAdapter</tspan></tspan></text></g><g id="SvgjsG2336"><text id="SvgjsText2337" font-family="微软雅黑" text-anchor="start" font-size="13px" width="0" fill="#323232" font-weight="400" align="middle" anchor="start" family="微软雅黑" size="13px" weight="400" font-style="" y="37.05" transform="rotate(0)"></text></g><g id="SvgjsG2338"><text id="SvgjsText2339" font-family="微软雅黑" text-anchor="start" font-size="13px" width="421" fill="#323232" font-weight="400" align="middle" anchor="start" family="微软雅黑" size="13px" weight="400" font-style="" y="69.05" transform="rotate(0)"><tspan id="SvgjsTspan2340" dy="16" x="10"><tspan id="SvgjsTspan2341" style="text-decoration:;">configure(AuthorizationServerEndpointsConfigurer endpoints): void </tspan></tspan></text></g></g><g id="SvgjsG2342"><path id="SvgjsPath2343" d="M260.4062271118164 1413.1500244140625L260.4062271118164 1383.2750244140625L260.4062271118164 1383.2750244140625L260.4062271118164 1353.4000244140625" stroke="#323232" stroke-width="2" fill="none" marker-end="url(#SvgjsMarker2344)"></path></g><g id="SvgjsG2346" transform="translate(27.20623779296875,1135.4000244140625)"><path id="SvgjsPath2347" d="M 0 4Q 0 0 4 0L 462.3999786376953 0Q 466.3999786376953 0 466.3999786376953 4L 466.3999786376953 70Q 466.3999786376953 74 462.3999786376953 74L 4 74Q 0 74 0 70Z" stroke="#323232" stroke-width="2" fill-opacity="1" fill="#ffffff"></path><path id="SvgjsPath2348" d="M 0 30L 466.3999786376953 30" stroke="#323232" stroke-width="2" fill="none"></path><path id="SvgjsPath2349" d="M 0 0L 466.3999786376953 0L 466.3999786376953 74L 0 74Z" stroke="none" fill="none"></path><g id="SvgjsG2350"><text id="SvgjsText2351" font-family="微软雅黑" text-anchor="middle" font-size="13px" width="202" fill="#323232" font-weight="700" align="middle" anchor="middle" family="微软雅黑" size="13px" weight="700" font-style="" y="5.05" transform="rotate(0)"><tspan id="SvgjsTspan2352" dy="16" x="233.5"><tspan id="SvgjsTspan2353" style="text-decoration:;">AuthorizationServerConfigurer</tspan></tspan></text></g><g id="SvgjsG2354"><text id="SvgjsText2355" font-family="微软雅黑" text-anchor="start" font-size="13px" width="351" fill="#323232" font-weight="400" align="middle" anchor="start" family="微软雅黑" size="13px" weight="400" font-style="" y="42.05" transform="rotate(0)"><tspan id="SvgjsTspan2356" dy="16" x="10"><tspan id="SvgjsTspan2357" style="text-decoration:;">configure(AuthorizationServerEndpointsConfigurer var1)</tspan></tspan></text></g></g><g id="SvgjsG2358"><path id="SvgjsPath2359" d="M260.4062271118164 1261.4000244140625L260.4062271118164 1235.4000244140625L260.4062271118164 1235.4000244140625L260.4062271118164 1209.4000244140625" stroke-dasharray="8,5" stroke="#323232" stroke-width="2" fill="none" marker-end="url(#SvgjsMarker2360)"></path></g><g id="SvgjsG2362"><path id="SvgjsPath2363" d="M1016.9062403440475 837.4000244140625L1016.9062403440475 719.2000198364258L1156.8062405586243 719.2000198364258L1156.8062405586243 345.00001525878906" stroke="#323232" stroke-width="2" fill="none" marker-end="url(#SvgjsMarker2364)"></path></g><g id="SvgjsG2366" transform="translate(27.20623779296875,970.4000244140625)"><path id="SvgjsPath2367" d="M 0 4Q 0 0 4 0L 491 0Q 495 0 495 4L 495 86Q 495 90 491 90L 4 90Q 0 90 0 86Z" stroke="#323232" stroke-width="2" fill-opacity="1" fill="#ffffff"></path><path id="SvgjsPath2368" d="M 0 30L 495 30M 0 60L 495 60" stroke="#323232" stroke-width="2" fill="none"></path><path id="SvgjsPath2369" d="M 0 0L 495 0L 495 90L 0 90Z" stroke="none" fill="none"></path><g id="SvgjsG2370"><text id="SvgjsText2371" font-family="微软雅黑" text-anchor="middle" font-size="13px" width="201" fill="#323232" font-weight="700" align="middle" anchor="middle" family="微软雅黑" size="13px" weight="700" font-style="" y="5.05" transform="rotate(0)"><tspan id="SvgjsTspan2372" dy="16" x="247.5"><tspan id="SvgjsTspan2373" style="text-decoration:;">ClientCredentialsTokenGranter</tspan></tspan></text></g><g id="SvgjsG2374"><text id="SvgjsText2375" font-family="微软雅黑" text-anchor="start" font-size="13px" width="0" fill="#323232" font-weight="400" align="middle" anchor="start" family="微软雅黑" size="13px" weight="400" font-style="" y="35.05" transform="rotate(0)"></text></g><g id="SvgjsG2376"><text id="SvgjsText2377" font-family="微软雅黑" text-anchor="start" font-size="13px" width="466" fill="#323232" font-weight="400" align="middle" anchor="start" family="微软雅黑" size="13px" weight="400" font-style="" y="65.05" transform="rotate(0)"><tspan id="SvgjsTspan2378" dy="16" x="10"><tspan id="SvgjsTspan2379" style="text-decoration:;">grant(String grantType, TokenRequest tokenRequest): OAuth2AccessToken </tspan></tspan></text></g></g><g id="SvgjsG2380"><path id="SvgjsPath2381" d="M522.2062377929688 1022.4000244140625L567.3562387824059 1022.4000244140625L567.3562387824059 1022.4000244140625L612.506239771843 1022.4000244140625" stroke="#323232" stroke-width="2" fill="none" marker-end="url(#SvgjsMarker2382)"></path></g><g id="SvgjsG2384"><path id="SvgjsPath2385" d="M674.7562360167503 245.20001220703125L674.7562360167503 214.10001373291016L674.7562360167503 214.10001373291016L674.7562360167503 183.00001525878906" stroke="#323232" stroke-width="2" fill="none" marker-end="url(#SvgjsMarker2386)"></path></g><g id="SvgjsG2388" transform="translate(25.0062255859375,1592.300048828125)"><path id="SvgjsPath2389" d="M 0 4Q 0 0 4 0L 466.8000030517578 0Q 470.8000030517578 0 470.8000030517578 4L 470.8000030517578 67Q 470.8000030517578 71 466.8000030517578 71L 4 71Q 0 71 0 67Z" stroke="#323232" stroke-width="2" fill-opacity="1" fill="#ffffff"></path><path id="SvgjsPath2390" d="M 0 30L 470.8000030517578 30" stroke="#323232" stroke-width="2" fill="none"></path><path id="SvgjsPath2391" d="M 0 0L 470.8000030517578 0L 470.8000030517578 71L 0 71Z" stroke="none" fill="none"></path><g id="SvgjsG2392"><text id="SvgjsText2393" font-family="微软雅黑" text-anchor="middle" font-size="13px" width="188" fill="#323232" font-weight="700" align="middle" anchor="middle" family="微软雅黑" size="13px" weight="700" font-style="" y="5.05" transform="rotate(0)"><tspan id="SvgjsTspan2394" dy="16" x="235.5"><tspan id="SvgjsTspan2395" style="text-decoration:;">AuthenticationKeyGenerator</tspan></tspan></text></g><g id="SvgjsG2396"><text id="SvgjsText2397" font-family="微软雅黑" text-anchor="start" font-size="13px" width="288" fill="#323232" font-weight="400" align="middle" anchor="start" family="微软雅黑" size="13px" weight="400" font-style="" y="40.55" transform="rotate(0)"><tspan id="SvgjsTspan2398" dy="16" x="10"><tspan id="SvgjsTspan2399" style="text-decoration:;">extractKey(OAuth2Authentication var1): String </tspan></tspan></text></g></g><g id="SvgjsG2400" transform="translate(27.20623779296875,1716.2000122070312)"><path id="SvgjsPath2401" d="M 0 4Q 0 0 4 0L 462.3999786376953 0Q 466.3999786376953 0 466.3999786376953 4L 466.3999786376953 106Q 466.3999786376953 110 462.3999786376953 110L 4 110Q 0 110 0 106Z" stroke="#323232" stroke-width="2" fill-opacity="1" fill="#ffffff"></path><path id="SvgjsPath2402" d="M 0 32L 466.3999786376953 32M 0 64L 466.3999786376953 64" stroke="#323232" stroke-width="2" fill="none"></path><path id="SvgjsPath2403" d="M 0 0L 466.3999786376953 0L 466.3999786376953 110L 0 110Z" stroke="none" fill="none"></path><g id="SvgjsG2404"><text id="SvgjsText2405" font-family="微软雅黑" text-anchor="middle" font-size="13px" width="242" fill="#323232" font-weight="700" align="middle" anchor="middle" family="微软雅黑" size="13px" weight="700" font-style="" y="6.05" transform="rotate(0)"><tspan id="SvgjsTspan2406" dy="16" x="233.5"><tspan id="SvgjsTspan2407" style="text-decoration:;">RandomAuthenticationKeyGenerator</tspan></tspan></text></g><g id="SvgjsG2408"><text id="SvgjsText2409" font-family="微软雅黑" text-anchor="start" font-size="13px" width="0" fill="#323232" font-weight="400" align="middle" anchor="start" family="微软雅黑" size="13px" weight="400" font-style="" y="37.05" transform="rotate(0)"></text></g><g id="SvgjsG2410"><text id="SvgjsText2411" font-family="微软雅黑" text-anchor="start" font-size="13px" width="352" fill="#323232" font-weight="400" align="middle" anchor="start" family="微软雅黑" size="13px" weight="400" font-style="" y="70.05" transform="rotate(0)"><tspan id="SvgjsTspan2412" dy="16" x="10"><tspan id="SvgjsTspan2413" style="text-decoration:;">extractKey(OAuth2Authentication authentication): String </tspan></tspan></text></g></g><g id="SvgjsG2414"><path id="SvgjsPath2415" d="M614.4062399864197 1627.800048828125L495.8062286376953 1627.800048828125" stroke="#323232" stroke-width="2" fill="none" marker-end="url(#SvgjsMarker2416)"></path></g><g id="SvgjsG2418"><path id="SvgjsPath2419" d="M260.4062271118164 1716.2000122070312L260.4062271118164 1663.300048828125" stroke-dasharray="8,5" stroke="#323232" stroke-width="2" fill="none" marker-end="url(#SvgjsMarker2420)"></path></g></svg>