<svg id="SvgjsSvg1360" width="1246.3000030517578" height="1851.2000122070312" xmlns="http://www.w3.org/2000/svg" version="1.1" xmlns:xlink="http://www.w3.org/1999/xlink" xmlns:svgjs="http://svgjs.com/svgjs"><defs id="SvgjsDefs1361"><marker id="SvgjsMarker1430" markerWidth="14" markerHeight="12" refX="16" refY="6" viewBox="0 0 14 12" orient="auto" markerUnits="userSpaceOnUse"><path id="SvgjsPath1431" d="M1,1 L14,6 L1,11L1,1" fill="#ffffff" stroke="#323232" stroke-width="2"></path></marker><marker id="SvgjsMarker1450" markerWidth="14" markerHeight="12" refX="16" refY="6" viewBox="0 0 14 12" orient="auto" markerUnits="userSpaceOnUse"><path id="SvgjsPath1451" d="M1,1 L14,6 L1,11L1,1" fill="#ffffff" stroke="#323232" stroke-width="2"></path></marker><marker id="SvgjsMarker1480" markerWidth="14" markerHeight="12" refX="16" refY="6" viewBox="0 0 14 12" orient="auto" markerUnits="userSpaceOnUse"><path id="SvgjsPath1481" d="M1,1 L14,6 L1,11L1,1" fill="#ffffff" stroke="#323232" stroke-width="2"></path></marker><marker id="SvgjsMarker1484" markerWidth="16" markerHeight="16" refX="11" refY="8" viewBox="0 0 16 16" orient="auto" markerUnits="userSpaceOnUse"><path id="SvgjsPath1485" d="M0,0 L10,8 L0,16" fill="none" stroke="#323232" stroke-width="2"></path></marker><marker id="SvgjsMarker1488" markerWidth="16" markerHeight="16" refX="11" refY="8" viewBox="0 0 16 16" orient="auto" markerUnits="userSpaceOnUse"><path id="SvgjsPath1489" d="M0,0 L10,8 L0,16" fill="none" stroke="#323232" stroke-width="2"></path></marker><marker id="SvgjsMarker1522" markerWidth="14" markerHeight="12" refX="16" refY="6" viewBox="0 0 14 12" orient="auto" markerUnits="userSpaceOnUse"><path id="SvgjsPath1523" d="M1,1 L14,6 L1,11L1,1" fill="#ffffff" stroke="#323232" stroke-width="2"></path></marker><marker id="SvgjsMarker1538" markerWidth="16" markerHeight="16" refX="11" refY="8" viewBox="0 0 16 16" orient="auto" markerUnits="userSpaceOnUse"><path id="SvgjsPath1539" d="M0,0 L10,8 L0,16" fill="none" stroke="#323232" stroke-width="2"></path></marker><marker id="SvgjsMarker1558" markerWidth="14" markerHeight="12" refX="16" refY="6" viewBox="0 0 14 12" orient="auto" markerUnits="userSpaceOnUse"><path id="SvgjsPath1559" d="M1,1 L14,6 L1,11L1,1" fill="#ffffff" stroke="#323232" stroke-width="2"></path></marker><marker id="SvgjsMarker1574" markerWidth="16" markerHeight="16" refX="11" refY="8" viewBox="0 0 16 16" orient="auto" markerUnits="userSpaceOnUse"><path id="SvgjsPath1575" d="M0,0 L10,8 L0,16" fill="none" stroke="#323232" stroke-width="2"></path></marker><marker id="SvgjsMarker1598" markerWidth="14" markerHeight="12" refX="16" refY="6" viewBox="0 0 14 12" orient="auto" markerUnits="userSpaceOnUse"><path id="SvgjsPath1599" d="M1,1 L14,6 L1,11L1,1" fill="#ffffff" stroke="#323232" stroke-width="2"></path></marker><marker id="SvgjsMarker1618" markerWidth="16" markerHeight="16" refX="11" refY="8" viewBox="0 0 16 16" orient="auto" markerUnits="userSpaceOnUse"><path id="SvgjsPath1619" d="M0,0 L10,8 L0,16" fill="none" stroke="#323232" stroke-width="2"></path></marker><marker id="SvgjsMarker1636" markerWidth="14" markerHeight="12" refX="16" refY="6" viewBox="0 0 14 12" orient="auto" markerUnits="userSpaceOnUse"><path id="SvgjsPath1637" d="M1,1 L14,6 L1,11L1,1" fill="#ffffff" stroke="#323232" stroke-width="2"></path></marker><marker id="SvgjsMarker1652" markerWidth="14" markerHeight="12" refX="16" refY="6" viewBox="0 0 14 12" orient="auto" markerUnits="userSpaceOnUse"><path id="SvgjsPath1653" d="M1,1 L14,6 L1,11L1,1" fill="#ffffff" stroke="#323232" stroke-width="2"></path></marker><marker id="SvgjsMarker1656" markerWidth="16" markerHeight="16" refX="11" refY="8" viewBox="0 0 16 16" orient="auto" markerUnits="userSpaceOnUse"><path id="SvgjsPath1657" d="M0,0 L10,8 L0,16" fill="none" stroke="#323232" stroke-width="2"></path></marker><marker id="SvgjsMarker1674" markerWidth="14" markerHeight="12" refX="16" refY="6" viewBox="0 0 14 12" orient="auto" markerUnits="userSpaceOnUse"><path id="SvgjsPath1675" d="M1,1 L14,6 L1,11L1,1" fill="#ffffff" stroke="#323232" stroke-width="2"></path></marker><marker id="SvgjsMarker1678" markerWidth="14" markerHeight="12" refX="16" refY="6" viewBox="0 0 14 12" orient="auto" markerUnits="userSpaceOnUse"><path id="SvgjsPath1679" d="M1,1 L14,6 L1,11L1,1" fill="#ffffff" stroke="#323232" stroke-width="2"></path></marker><marker id="SvgjsMarker1708" markerWidth="16" markerHeight="16" refX="11" refY="8" viewBox="0 0 16 16" orient="auto" markerUnits="userSpaceOnUse"><path id="SvgjsPath1709" d="M0,0 L10,8 L0,16" fill="none" stroke="#323232" stroke-width="2"></path></marker><marker id="SvgjsMarker1712" markerWidth="14" markerHeight="12" refX="16" refY="6" viewBox="0 0 14 12" orient="auto" markerUnits="userSpaceOnUse"><path id="SvgjsPath1713" d="M1,1 L14,6 L1,11L1,1" fill="#ffffff" stroke="#323232" stroke-width="2"></path></marker></defs><g id="SvgjsG1362" transform="translate(128.30623424053192,245.20001220703125)"><path id="SvgjsPath1363" d="M 0 4Q 0 0 4 0L 1088.9000035524368 0Q 1092.9000035524368 0 1092.9000035524368 4L 1092.9000035524368 86.79999542236328Q 1092.9000035524368 90.79999542236328 1088.9000035524368 90.79999542236328L 4 90.79999542236328Q 0 90.79999542236328 0 86.79999542236328Z" stroke="#323232" stroke-width="2" fill-opacity="1" fill="#ffffff"></path><path id="SvgjsPath1364" d="M 0 30L 1092.9000035524368 30M 0 60L 1092.9000035524368 60" stroke="#323232" stroke-width="2" fill="none"></path><path id="SvgjsPath1365" d="M 0 0L 1092.9000035524368 0L 1092.9000035524368 90.79999542236328L 0 90.79999542236328Z" stroke="none" fill="none"></path><g id="SvgjsG1366"><text id="SvgjsText1367" font-family="微软雅黑" text-anchor="middle" font-size="13px" width="100" fill="#323232" font-weight="700" align="middle" anchor="middle" family="微软雅黑" size="13px" weight="700" font-style="" y="5.05" transform="rotate(0)"><tspan id="SvgjsTspan1368" dy="16" x="546.5"><tspan id="SvgjsTspan1369" style="text-decoration:;">TokenEndpoint</tspan></tspan></text></g><g id="SvgjsG1370"><text id="SvgjsText1371" font-family="微软雅黑" text-anchor="start" font-size="13px" width="0" fill="#323232" font-weight="400" align="middle" anchor="start" family="微软雅黑" size="13px" weight="400" font-style="" y="35.05" transform="rotate(0)"></text></g><g id="SvgjsG1372"><text id="SvgjsText1373" font-family="微软雅黑" text-anchor="start" font-size="13px" width="545" fill="#323232" font-weight="400" align="middle" anchor="start" family="微软雅黑" size="13px" weight="400" font-style="" y="65.05" transform="rotate(0)"><tspan id="SvgjsTspan1374" dy="16" x="10"><tspan id="SvgjsTspan1375" style="text-decoration:;">postAccessToken(Principal principal, @RequestParam Map&lt;String, String&gt; parameters): ResponseEntity&lt;OAuth2AccessToken&gt; </tspan></tspan></text></g></g><g id="SvgjsG1376" transform="translate(31.20623779296875,537.2000122070312)"><path id="SvgjsPath1377" d="M 0 4Q 0 0 4 0L 327.8000030517578 0Q 331.8000030517578 0 331.8000030517578 4L 331.8000030517578 95Q 331.8000030517578 99 327.8000030517578 99L 4 99Q 0 99 0 95Z" stroke="#323232" stroke-width="2" fill-opacity="1" fill="#ffffff"></path><path id="SvgjsPath1378" d="M 0 30L 331.8000030517578 30M 0 62L 331.8000030517578 62" stroke="#323232" stroke-width="2" fill="none"></path><path id="SvgjsPath1379" d="M 0 0L 331.8000030517578 0L 331.8000030517578 99L 0 99Z" stroke="none" fill="none"></path><g id="SvgjsG1380"><text id="SvgjsText1381" font-family="微软雅黑" text-anchor="middle" font-size="13px" width="159" fill="#323232" font-weight="700" align="middle" anchor="middle" family="微软雅黑" size="13px" weight="700" font-style="" y="5.05" transform="rotate(0)"><tspan id="SvgjsTspan1382" dy="16" x="166"><tspan id="SvgjsTspan1383" style="text-decoration:;">JdbcClientDetailsService</tspan></tspan></text></g><g id="SvgjsG1384"><text id="SvgjsText1385" font-family="微软雅黑" text-anchor="start" font-size="13px" width="0" fill="#323232" font-weight="400" align="middle" anchor="start" family="微软雅黑" size="13px" weight="400" font-style="" y="35.05" transform="rotate(0)"></text></g><g id="SvgjsG1386"><text id="SvgjsText1387" font-family="微软雅黑" text-anchor="start" font-size="13px" width="306" fill="#323232" font-weight="400" align="middle" anchor="start" family="微软雅黑" size="13px" weight="400" font-style="" y="76.05" transform="rotate(0)"><tspan id="SvgjsTspan1388" dy="16" x="10"><tspan id="SvgjsTspan1389" style="text-decoration:;">loadClientByClientId(String clientId): ClientDetails </tspan></tspan></text></g></g><g id="SvgjsG1390" transform="translate(389.23123690485954,25.000015258789062)"><path id="SvgjsPath1391" d="M 0 4Q 0 0 4 0L 567.0499982237816 0Q 571.0499982237816 0 571.0499982237816 4L 571.0499982237816 154Q 571.0499982237816 158 567.0499982237816 158L 4 158Q 0 158 0 154Z" stroke="#323232" stroke-width="2" fill-opacity="1" fill="#ffffff"></path><path id="SvgjsPath1392" d="M 0 30L 571.0499982237816 30M 0 96L 571.0499982237816 96" stroke="#323232" stroke-width="2" fill="none"></path><path id="SvgjsPath1393" d="M 0 0L 571.0499982237816 0L 571.0499982237816 158L 0 158Z" stroke="none" fill="none"></path><g id="SvgjsG1394"><text id="SvgjsText1395" font-family="微软雅黑" text-anchor="middle" font-size="13px" width="115" fill="#323232" font-weight="700" align="middle" anchor="middle" family="微软雅黑" size="13px" weight="700" font-style="" y="5.05" transform="rotate(0)"><tspan id="SvgjsTspan1396" dy="16" x="286"><tspan id="SvgjsTspan1397" style="text-decoration:;">AbstractEndpoint</tspan></tspan></text></g><g id="SvgjsG1398"><text id="SvgjsText1399" font-family="微软雅黑" text-anchor="start" font-size="13px" width="339" fill="#323232" font-weight="400" align="middle" anchor="start" family="微软雅黑" size="13px" weight="400" font-style="" y="28.05" transform="rotate(0)"><tspan id="SvgjsTspan1400" dy="16" x="10"><tspan id="SvgjsTspan1401" style="text-decoration:;">tokenGranter: TokenGranter</tspan></tspan><tspan id="SvgjsTspan1402" dy="16" x="10"><tspan id="SvgjsTspan1403" style="text-decoration:;">clientDetailsService: ClientDetailsService</tspan></tspan><tspan id="SvgjsTspan1404" dy="16" x="10"><tspan id="SvgjsTspan1405" style="text-decoration:;">oAuth2RequestFactory: OAuth2RequestFactory</tspan></tspan><tspan id="SvgjsTspan1406" dy="16" x="10"><tspan id="SvgjsTspan1407" style="text-decoration:;">defaultOAuth2RequestFactory: OAuth2RequestFactory</tspan></tspan></text></g><g id="SvgjsG1408"><text id="SvgjsText1409" font-family="微软雅黑" text-anchor="start" font-size="13px" width="325" fill="#323232" font-weight="400" align="middle" anchor="start" family="微软雅黑" size="13px" weight="400" font-style="" y="100.64999847412109" transform="rotate(0)"><tspan id="SvgjsTspan1410" dy="16" x="10"><tspan id="SvgjsTspan1411" style="text-decoration:;">getClientDetailsService(): ClientDetailsService </tspan></tspan><tspan id="SvgjsTspan1412" dy="16" x="10"><tspan id="SvgjsTspan1413" style="text-decoration:;">getOAuth2RequestFactory(): OAuth2RequestFactory</tspan></tspan><tspan id="SvgjsTspan1414" dy="16" x="10"><tspan id="SvgjsTspan1415" style="text-decoration:;">getTokenGranter(): TokenGranter</tspan></tspan></text></g></g><g id="SvgjsG1416" transform="translate(30.20623779296875,401.20001220703125)"><path id="SvgjsPath1417" d="M 0 4Q 0 0 4 0L 329.8000030517578 0Q 333.8000030517578 0 333.8000030517578 4L 333.8000030517578 67Q 333.8000030517578 71 329.8000030517578 71L 4 71Q 0 71 0 67Z" stroke="#323232" stroke-width="2" fill-opacity="1" fill="#ffffff"></path><path id="SvgjsPath1418" d="M 0 30L 333.8000030517578 30" stroke="#323232" stroke-width="2" fill="none"></path><path id="SvgjsPath1419" d="M 0 0L 333.8000030517578 0L 333.8000030517578 71L 0 71Z" stroke="none" fill="none"></path><g id="SvgjsG1420"><text id="SvgjsText1421" font-family="微软雅黑" text-anchor="middle" font-size="13px" width="129" fill="#323232" font-weight="700" align="middle" anchor="middle" family="微软雅黑" size="13px" weight="700" font-style="" y="5.05" transform="rotate(0)"><tspan id="SvgjsTspan1422" dy="16" x="167"><tspan id="SvgjsTspan1423" style="text-decoration:;">ClientDetailsService</tspan></tspan></text></g><g id="SvgjsG1424"><text id="SvgjsText1425" font-family="微软雅黑" text-anchor="start" font-size="13px" width="287" fill="#323232" font-weight="400" align="middle" anchor="start" family="微软雅黑" size="13px" weight="400" font-style="" y="40.55" transform="rotate(0)"><tspan id="SvgjsTspan1426" dy="16" x="10"><tspan id="SvgjsTspan1427" style="text-decoration:;">loadClientByClientId(String var1): ClientDetails </tspan></tspan></text></g></g><g id="SvgjsG1428"><path id="SvgjsPath1429" d="M197.10623931884766 537.2000122070312L197.10623931884766 504.70001220703125L197.10623931884766 504.70001220703125L197.10623931884766 472.20001220703125" stroke-dasharray="8,5" stroke="#323232" stroke-width="2" fill="none" marker-end="url(#SvgjsMarker1430)"></path></g><g id="SvgjsG1432" transform="translate(30.20623779296875,698.2000122070312)"><path id="SvgjsPath1433" d="M 0 4Q 0 0 4 0L 329.8000030517578 0Q 333.8000030517578 0 333.8000030517578 4L 333.8000030517578 92Q 333.8000030517578 96 329.8000030517578 96L 4 96Q 0 96 0 92Z" stroke="#323232" stroke-width="2" fill-opacity="1" fill="#ffffff"></path><path id="SvgjsPath1434" d="M 0 30L 333.8000030517578 30M 0 60L 333.8000030517578 60" stroke="#323232" stroke-width="2" fill="none"></path><path id="SvgjsPath1435" d="M 0 0L 333.8000030517578 0L 333.8000030517578 96L 0 96Z" stroke="none" fill="none"></path><g id="SvgjsG1436"><text id="SvgjsText1437" font-family="微软雅黑" text-anchor="middle" font-size="13px" width="165" fill="#323232" font-weight="700" align="middle" anchor="middle" family="微软雅黑" size="13px" weight="700" font-style="" y="5.05" transform="rotate(0)"><tspan id="SvgjsTspan1438" dy="16" x="167"><tspan id="SvgjsTspan1439" style="text-decoration:;">RedisClientDetailsService</tspan></tspan></text></g><g id="SvgjsG1440"><text id="SvgjsText1441" font-family="微软雅黑" text-anchor="start" font-size="13px" width="263" fill="#323232" font-weight="400" align="middle" anchor="start" family="微软雅黑" size="13px" weight="400" font-style="" y="35.05" transform="rotate(0)"><tspan id="SvgjsTspan1442" dy="16" x="10"><tspan id="SvgjsTspan1443" style="text-decoration:;">stringRedisTemplate: StringRedisTemplate </tspan></tspan></text></g><g id="SvgjsG1444"><text id="SvgjsText1445" font-family="微软雅黑" text-anchor="start" font-size="13px" width="306" fill="#323232" font-weight="400" align="middle" anchor="start" family="微软雅黑" size="13px" weight="400" font-style="" y="65.05" transform="rotate(0)"><tspan id="SvgjsTspan1446" dy="16" x="10"><tspan id="SvgjsTspan1447" style="text-decoration:;">loadClientByClientId(String clientId): ClientDetails </tspan></tspan></text></g></g><g id="SvgjsG1448"><path id="SvgjsPath1449" d="M197.10623931884766 698.2000122070312L197.10623931884766 667.2000122070312L197.10623931884766 667.2000122070312L197.10623931884766 636.2000122070312" stroke="#323232" stroke-width="2" fill="none" marker-end="url(#SvgjsMarker1450)"></path></g><g id="SvgjsG1452" transform="translate(526.0062408447266,401.20001220703125)"><path id="SvgjsPath1453" d="M 0 4Q 0 0 4 0L 530 0Q 534 0 534 4L 534 67Q 534 71 530 71L 4 71Q 0 71 0 67Z" stroke="#323232" stroke-width="2" fill-opacity="1" fill="#ffffff"></path><path id="SvgjsPath1454" d="M 0 30L 534 30" stroke="#323232" stroke-width="2" fill="none"></path><path id="SvgjsPath1455" d="M 0 0L 534 0L 534 71L 0 71Z" stroke="none" fill="none"></path><g id="SvgjsG1456"><text id="SvgjsText1457" font-family="微软雅黑" text-anchor="middle" font-size="13px" width="152" fill="#323232" font-weight="700" align="middle" anchor="middle" family="微软雅黑" size="13px" weight="700" font-style="" y="5.05" transform="rotate(0)"><tspan id="SvgjsTspan1458" dy="16" x="267"><tspan id="SvgjsTspan1459" style="text-decoration:;">OAuth2RequestFactory</tspan></tspan></text></g><g id="SvgjsG1460"><text id="SvgjsText1461" font-family="微软雅黑" text-anchor="start" font-size="13px" width="405" fill="#323232" font-weight="400" align="middle" anchor="start" family="微软雅黑" size="13px" weight="400" font-style="" y="40.55" transform="rotate(0)"><tspan id="SvgjsTspan1462" dy="16" x="10"><tspan id="SvgjsTspan1463" style="text-decoration:;">createTokenRequest(Map&lt;String, String&gt; var1, ClientDetails var2): TokenRequest </tspan></tspan></text></g></g><g id="SvgjsG1464" transform="translate(376.00624084472656,537.2000122070312)"><path id="SvgjsPath1465" d="M 0 4Q 0 0 4 0L 730 0Q 734 0 734 4L 734 95Q 734 99 730 99L 4 99Q 0 99 0 95Z" stroke="#323232" stroke-width="2" fill-opacity="1" fill="#ffffff"></path><path id="SvgjsPath1466" d="M 0 30L 734 30M 0 62L 734 62" stroke="#323232" stroke-width="2" fill="none"></path><path id="SvgjsPath1467" d="M 0 0L 734 0L 734 99L 0 99Z" stroke="none" fill="none"></path><g id="SvgjsG1468"><text id="SvgjsText1469" font-family="微软雅黑" text-anchor="middle" font-size="13px" width="200" fill="#323232" font-weight="700" align="middle" anchor="middle" family="微软雅黑" size="13px" weight="700" font-style="" y="5.05" transform="rotate(0)"><tspan id="SvgjsTspan1470" dy="16" x="367"><tspan id="SvgjsTspan1471" style="text-decoration:;">DefaultOAuth2RequestFactory</tspan></tspan></text></g><g id="SvgjsG1472"><text id="SvgjsText1473" font-family="微软雅黑" text-anchor="start" font-size="13px" width="0" fill="#323232" font-weight="400" align="middle" anchor="start" family="微软雅黑" size="13px" weight="400" font-style="" y="35.05" transform="rotate(0)"></text></g><g id="SvgjsG1474"><text id="SvgjsText1475" font-family="微软雅黑" text-anchor="start" font-size="13px" width="591" fill="#323232" font-weight="400" align="middle" anchor="start" family="微软雅黑" size="13px" weight="400" font-style="" y="67.05" transform="rotate(0)"><tspan id="SvgjsTspan1476" dy="16" x="10"><tspan id="SvgjsTspan1477" style="text-decoration:;">createTokenRequest(Map&lt;String, String&gt; requestParameters, ClientDetails authenticatedClient): TokenRequest </tspan></tspan></text></g></g><g id="SvgjsG1478"><path id="SvgjsPath1479" d="M743.0062408447266 537.2000122070312L743.0062408447266 504.70001220703125L793.0062408447266 504.70001220703125L793.0062408447266 472.20001220703125" stroke-dasharray="8,5" stroke="#323232" stroke-width="2" fill="none" marker-end="url(#SvgjsMarker1480)"></path></g><g id="SvgjsG1482"><path id="SvgjsPath1483" d="M793.0062408447266 401.20001220703125L793.0062408447266 370.30001068115234L793.0062408447266 370.30001068115234L793.0062408447266 339.40000915527344" stroke="#323232" stroke-width="2" fill="none" marker-end="url(#SvgjsMarker1484)"></path></g><g id="SvgjsG1486"><path id="SvgjsPath1487" d="M197.10623931884766 401.20001220703125L197.10623931884766 369.80001068115234L197.10623931884766 369.80001068115234L197.10623931884766 338.40000915527344" stroke="#323232" stroke-width="2" fill="none" marker-end="url(#SvgjsMarker1488)"></path></g><g id="SvgjsG1490" transform="translate(816.9062403440475,837.4000244140625)"><path id="SvgjsPath1491" d="M 0 4Q 0 0 4 0L 396 0Q 400 0 400 4L 400 59Q 400 63 396 63L 4 63Q 0 63 0 59Z" stroke="#323232" stroke-width="2" fill-opacity="1" fill="#ffffff"></path><path id="SvgjsPath1492" d="M 0 30L 400 30" stroke="#323232" stroke-width="2" fill="none"></path><path id="SvgjsPath1493" d="M 0 0L 400 0L 400 63L 0 63Z" stroke="none" fill="none"></path><g id="SvgjsG1494"><text id="SvgjsText1495" font-family="微软雅黑" text-anchor="middle" font-size="13px" width="90" fill="#323232" font-weight="700" align="middle" anchor="middle" family="微软雅黑" size="13px" weight="700" font-style="" y="5.05" transform="rotate(0)"><tspan id="SvgjsTspan1496" dy="16" x="200"><tspan id="SvgjsTspan1497" style="text-decoration:;">TokenGranter </tspan></tspan></text></g><g id="SvgjsG1498"><text id="SvgjsText1499" font-family="微软雅黑" text-anchor="start" font-size="13px" width="370" fill="#323232" font-weight="400" align="middle" anchor="start" family="微软雅黑" size="13px" weight="400" font-style="" y="36.55" transform="rotate(0)"><tspan id="SvgjsTspan1500" dy="16" x="10"><tspan id="SvgjsTspan1501" style="text-decoration:;">grant(String var1, TokenRequest var2): OAuth2AccessToken </tspan></tspan></text></g></g><g id="SvgjsG1502" transform="translate(612.506239771843,970.4000244140625)"><path id="SvgjsPath1503" d="M 0 4Q 0 0 4 0L 600.4000005722046 0Q 604.4000005722046 0 604.4000005722046 4L 604.4000005722046 100Q 604.4000005722046 104 600.4000005722046 104L 4 104Q 0 104 0 100Z" stroke="#323232" stroke-width="2" fill-opacity="1" fill="#ffffff"></path><path id="SvgjsPath1504" d="M 0 30L 604.4000005722046 30M 0 62L 604.4000005722046 62" stroke="#323232" stroke-width="2" fill="none"></path><path id="SvgjsPath1505" d="M 0 0L 604.4000005722046 0L 604.4000005722046 104L 0 104Z" stroke="none" fill="none"></path><g id="SvgjsG1506"><text id="SvgjsText1507" font-family="微软雅黑" text-anchor="middle" font-size="13px" width="146" fill="#323232" font-weight="700" align="middle" anchor="middle" family="微软雅黑" size="13px" weight="700" font-style="" y="5.05" transform="rotate(0)"><tspan id="SvgjsTspan1508" dy="16" x="302.5"><tspan id="SvgjsTspan1509" style="text-decoration:;">AbstractTokenGranter</tspan></tspan></text></g><g id="SvgjsG1510"><text id="SvgjsText1511" font-family="微软雅黑" text-anchor="start" font-size="13px" width="304" fill="#323232" font-weight="400" align="middle" anchor="start" family="微软雅黑" size="13px" weight="400" font-style="" y="36.05" transform="rotate(0)"><tspan id="SvgjsTspan1512" dy="16" x="10"><tspan id="SvgjsTspan1513" style="text-decoration:;">tokenServices: AuthorizationServerTokenServices </tspan></tspan></text></g><g id="SvgjsG1514"><text id="SvgjsText1515" font-family="微软雅黑" text-anchor="start" font-size="13px" width="545" fill="#323232" font-weight="400" align="middle" anchor="start" family="微软雅黑" size="13px" weight="400" font-style="" y="60.05" transform="rotate(0)"><tspan id="SvgjsTspan1516" dy="16" x="10"><tspan id="SvgjsTspan1517" style="text-decoration:;">grant(String grantType, TokenRequest tokenRequest): OAuth2AccessToken </tspan></tspan><tspan id="SvgjsTspan1518" dy="16" x="10"><tspan id="SvgjsTspan1519" style="text-decoration:;">getAccessToken(ClientDetails client, TokenRequest tokenRequest): OAuth2AccessToken</tspan></tspan></text></g></g><g id="SvgjsG1520"><path id="SvgjsPath1521" d="M914.7062400579453 970.4000244140625L914.7062400579453 935.4000244140625L1016.9062403440475 935.4000244140625L1016.9062403440475 900.4000244140625" stroke-dasharray="8,5" stroke="#323232" stroke-width="2" fill="none" marker-end="url(#SvgjsMarker1522)"></path></g><g id="SvgjsG1524" transform="translate(612.506239771843,1135.4000244140625)"><path id="SvgjsPath1525" d="M 0 4Q 0 0 4 0L 600.4000005722046 0Q 604.4000005722046 0 604.4000005722046 4L 604.4000005722046 70Q 604.4000005722046 74 600.4000005722046 74L 4 74Q 0 74 0 70Z" stroke="#323232" stroke-width="2" fill-opacity="1" fill="#ffffff"></path><path id="SvgjsPath1526" d="M 0 32L 604.4000005722046 32" stroke="#323232" stroke-width="2" fill="none"></path><path id="SvgjsPath1527" d="M 0 0L 604.4000005722046 0L 604.4000005722046 74L 0 74Z" stroke="none" fill="none"></path><g id="SvgjsG1528"><text id="SvgjsText1529" font-family="微软雅黑" text-anchor="middle" font-size="13px" width="225" fill="#323232" font-weight="700" align="middle" anchor="middle" family="微软雅黑" size="13px" weight="700" font-style="" y="6.05" transform="rotate(0)"><tspan id="SvgjsTspan1530" dy="16" x="302.5"><tspan id="SvgjsTspan1531" style="text-decoration:;">AuthorizationServerTokenServices</tspan></tspan></text></g><g id="SvgjsG1532"><text id="SvgjsText1533" font-family="微软雅黑" text-anchor="start" font-size="13px" width="432" fill="#323232" font-weight="400" align="middle" anchor="start" family="微软雅黑" size="13px" weight="400" font-style="" y="43.05" transform="rotate(0)"><tspan id="SvgjsTspan1534" dy="16" x="10"><tspan id="SvgjsTspan1535" style="text-decoration:;">createAccessToken(OAuth2Authentication var1): OAuth2AccessToken </tspan></tspan></text></g></g><g id="SvgjsG1536"><path id="SvgjsPath1537" d="M914.7062400579453 1135.4000244140625L914.7062400579453 1104.9000244140625L914.7062400579453 1104.9000244140625L914.7062400579453 1074.4000244140625" stroke="#323232" stroke-width="2" fill="none" marker-end="url(#SvgjsMarker1538)"></path></g><g id="SvgjsG1540" transform="translate(612.506239771843,1270.4000244140625)"><path id="SvgjsPath1541" d="M 0 4Q 0 0 4 0L 600.4000005722046 0Q 604.4000005722046 0 604.4000005722046 4L 604.4000005722046 100Q 604.4000005722046 104 600.4000005722046 104L 4 104Q 0 104 0 100Z" stroke="#323232" stroke-width="2" fill-opacity="1" fill="#ffffff"></path><path id="SvgjsPath1542" d="M 0 30L 604.4000005722046 30M 0 62L 604.4000005722046 62" stroke="#323232" stroke-width="2" fill="none"></path><path id="SvgjsPath1543" d="M 0 0L 604.4000005722046 0L 604.4000005722046 104L 0 104Z" stroke="none" fill="none"></path><g id="SvgjsG1544"><text id="SvgjsText1545" font-family="微软雅黑" text-anchor="middle" font-size="13px" width="142" fill="#323232" font-weight="700" align="middle" anchor="middle" family="微软雅黑" size="13px" weight="700" font-style="" y="5.05" transform="rotate(0)"><tspan id="SvgjsTspan1546" dy="16" x="302.5"><tspan id="SvgjsTspan1547" style="text-decoration:;">DefaultTokenServices</tspan></tspan></text></g><g id="SvgjsG1548"><text id="SvgjsText1549" font-family="微软雅黑" text-anchor="start" font-size="13px" width="146" fill="#323232" font-weight="400" align="middle" anchor="start" family="微软雅黑" size="13px" weight="400" font-style="" y="35.05" transform="rotate(0)"><tspan id="SvgjsTspan1550" dy="16" x="10"><tspan id="SvgjsTspan1551" style="text-decoration:;">tokenStore: TokenStore </tspan></tspan></text></g><g id="SvgjsG1552"><text id="SvgjsText1553" font-family="微软雅黑" text-anchor="start" font-size="13px" width="492" fill="#323232" font-weight="400" align="middle" anchor="start" family="微软雅黑" size="13px" weight="400" font-style="" y="76.05" transform="rotate(0)"><tspan id="SvgjsTspan1554" dy="16" x="10"><tspan id="SvgjsTspan1555" style="text-decoration:;">OAuth2AccessToken createAccessToken(OAuth2Authentication authentication)</tspan></tspan></text></g></g><g id="SvgjsG1556"><path id="SvgjsPath1557" d="M914.7062400579453 1270.4000244140625L914.7062400579453 1239.9000244140625L914.7062400579453 1239.9000244140625L914.7062400579453 1209.4000244140625" stroke-dasharray="8,5" stroke="#323232" stroke-width="2" fill="none" marker-end="url(#SvgjsMarker1558)"></path></g><g id="SvgjsG1560" transform="translate(616.3062402009964,1435.4000244140625)"><path id="SvgjsPath1561" d="M 0 4Q 0 0 4 0L 592.7999997138977 0Q 596.7999997138977 0 596.7999997138977 4L 596.7999997138977 64Q 596.7999997138977 68 592.7999997138977 68L 4 68Q 0 68 0 64Z" stroke="#323232" stroke-width="2" fill-opacity="1" fill="#ffffff"></path><path id="SvgjsPath1562" d="M 0 30L 596.7999997138977 30" stroke="#323232" stroke-width="2" fill="none"></path><path id="SvgjsPath1563" d="M 0 0L 596.7999997138977 0L 596.7999997138977 68L 0 68Z" stroke="none" fill="none"></path><g id="SvgjsG1564"><text id="SvgjsText1565" font-family="微软雅黑" text-anchor="middle" font-size="13px" width="75" fill="#323232" font-weight="700" align="middle" anchor="middle" family="微软雅黑" size="13px" weight="700" font-style="" y="5.05" transform="rotate(0)"><tspan id="SvgjsTspan1566" dy="16" x="298.5"><tspan id="SvgjsTspan1567" style="text-decoration:;">TokenStore</tspan></tspan></text></g><g id="SvgjsG1568"><text id="SvgjsText1569" font-family="微软雅黑" text-anchor="start" font-size="13px" width="414" fill="#323232" font-weight="400" align="middle" anchor="start" family="微软雅黑" size="13px" weight="400" font-style="" y="39.05" transform="rotate(0)"><tspan id="SvgjsTspan1570" dy="16" x="10"><tspan id="SvgjsTspan1571" style="text-decoration:;">getAccessToken(OAuth2Authentication var1): OAuth2AccessToken </tspan></tspan></text></g></g><g id="SvgjsG1572"><path id="SvgjsPath1573" d="M914.7062400579453 1435.4000244140625L914.7062400579453 1404.9000244140625L914.7062400579453 1404.9000244140625L914.7062400579453 1374.4000244140625" stroke="#323232" stroke-width="2" fill="none" marker-end="url(#SvgjsMarker1574)"></path></g><g id="SvgjsG1576" transform="translate(614.4062399864197,1567.4000854492188)"><path id="SvgjsPath1577" d="M 0 4Q 0 0 4 0L 596.6000001430511 0Q 600.6000001430511 0 600.6000001430511 4L 600.6000001430511 116.7999267578125Q 600.6000001430511 120.7999267578125 596.6000001430511 120.7999267578125L 4 120.7999267578125Q 0 120.7999267578125 0 116.7999267578125Z" stroke="#323232" stroke-width="2" fill-opacity="1" fill="#ffffff"></path><path id="SvgjsPath1578" d="M 0 30L 600.6000001430511 30M 0 60L 600.6000001430511 60" stroke="#323232" stroke-width="2" fill="none"></path><path id="SvgjsPath1579" d="M 0 0L 600.6000001430511 0L 600.6000001430511 120.7999267578125L 0 120.7999267578125Z" stroke="none" fill="none"></path><g id="SvgjsG1580"><text id="SvgjsText1581" font-family="微软雅黑" text-anchor="middle" font-size="13px" width="110" fill="#323232" font-weight="700" align="middle" anchor="middle" family="微软雅黑" size="13px" weight="700" font-style="" y="5.05" transform="rotate(0)"><tspan id="SvgjsTspan1582" dy="16" x="300.5"><tspan id="SvgjsTspan1583" style="text-decoration:;">RedisTokenStore</tspan></tspan></text></g><g id="SvgjsG1584"><text id="SvgjsText1585" font-family="微软雅黑" text-anchor="start" font-size="13px" width="359" fill="#323232" font-weight="400" align="middle" anchor="start" family="微软雅黑" size="13px" weight="400" font-style="" y="35.05" transform="rotate(0)"><tspan id="SvgjsTspan1586" dy="16" x="10"><tspan id="SvgjsTspan1587" style="text-decoration:;">authenticationKeyGenerator: AuthenticationKeyGenerator</tspan></tspan></text></g><g id="SvgjsG1588"><text id="SvgjsText1589" font-family="微软雅黑" text-anchor="start" font-size="13px" width="478" fill="#323232" font-weight="400" align="middle" anchor="start" family="微软雅黑" size="13px" weight="400" font-style="" y="58.05" transform="rotate(0)"><tspan id="SvgjsTspan1590" dy="16" x="10"><tspan id="SvgjsTspan1591" style="text-decoration:;">getAccessToken(OAuth2Authentication authentication): OAuth2AccessToken</tspan></tspan><tspan id="SvgjsTspan1592" dy="16" x="10"><tspan id="SvgjsTspan1593" style="text-decoration:;">serializeKey(String object): byte[]</tspan></tspan><tspan id="SvgjsTspan1594" dy="16" x="10"><tspan id="SvgjsTspan1595" style="text-decoration:;">deserializeAccessToken(byte[] bytes): OAuth2AccessToken </tspan></tspan></text></g></g><g id="SvgjsG1596"><path id="SvgjsPath1597" d="M914.7062400579453 1567.4000854492188L914.7062400579453 1535.4000549316406L914.7062400579453 1535.4000549316406L914.7062400579453 1503.4000244140625" stroke-dasharray="8,5" stroke="#323232" stroke-width="2" fill="none" marker-end="url(#SvgjsMarker1598)"></path></g><g id="SvgjsG1600" transform="translate(27.20623779296875,1413.1500244140625)"><path id="SvgjsPath1601" d="M 0 4Q 0 0 4 0L 462.3999786376953 0Q 466.3999786376953 0 466.3999786376953 4L 466.3999786376953 108.5Q 466.3999786376953 112.5 462.3999786376953 112.5L 4 112.5Q 0 112.5 0 108.5Z" stroke="#323232" stroke-width="2" fill-opacity="1" fill="#ffffff"></path><path id="SvgjsPath1602" d="M 0 30L 466.3999786376953 30M 0 62L 466.3999786376953 62" stroke="#323232" stroke-width="2" fill="none"></path><path id="SvgjsPath1603" d="M 0 0L 466.3999786376953 0L 466.3999786376953 112.5L 0 112.5Z" stroke="none" fill="none"></path><g id="SvgjsG1604"><text id="SvgjsText1605" font-family="微软雅黑" text-anchor="middle" font-size="13px" width="175" fill="#323232" font-weight="700" align="middle" anchor="middle" family="微软雅黑" size="13px" weight="700" font-style="" y="5.05" transform="rotate(0)"><tspan id="SvgjsTspan1606" dy="16" x="233.5"><tspan id="SvgjsTspan1607" style="text-decoration:;">AuthorizationServerConfig</tspan></tspan></text></g><g id="SvgjsG1608"><text id="SvgjsText1609" font-family="微软雅黑" text-anchor="start" font-size="13px" width="0" fill="#323232" font-weight="400" align="middle" anchor="start" family="微软雅黑" size="13px" weight="400" font-style="" y="35.05" transform="rotate(0)"></text></g><g id="SvgjsG1610"><text id="SvgjsText1611" font-family="微软雅黑" text-anchor="start" font-size="13px" width="421" fill="#323232" font-weight="400" align="middle" anchor="start" family="微软雅黑" size="13px" weight="400" font-style="" y="70.3" transform="rotate(0)"><tspan id="SvgjsTspan1612" dy="16" x="10"><tspan id="SvgjsTspan1613" style="text-decoration:;">tokenStore(): TokenStore </tspan></tspan><tspan id="SvgjsTspan1614" dy="16" x="10"><tspan id="SvgjsTspan1615" style="text-decoration:;">configure(AuthorizationServerEndpointsConfigurer endpoints): void</tspan></tspan></text></g></g><g id="SvgjsG1616"><path id="SvgjsPath1617" d="M616.3062402009964 1469.4000244140625L554.9562283158302 1469.4000244140625L554.9562283158302 1469.4000244140625L493.60621643066406 1469.4000244140625" stroke="#323232" stroke-width="2" fill="none" marker-end="url(#SvgjsMarker1618)"></path></g><g id="SvgjsG1620" transform="translate(27.20623779296875,1261.4000244140625)"><path id="SvgjsPath1621" d="M 0 4Q 0 0 4 0L 462.3999786376953 0Q 466.3999786376953 0 466.3999786376953 4L 466.3999786376953 88Q 466.3999786376953 92 462.3999786376953 92L 4 92Q 0 92 0 88Z" stroke="#323232" stroke-width="2" fill-opacity="1" fill="#ffffff"></path><path id="SvgjsPath1622" d="M 0 32L 466.3999786376953 32M 0 64L 466.3999786376953 64" stroke="#323232" stroke-width="2" fill="none"></path><path id="SvgjsPath1623" d="M 0 0L 466.3999786376953 0L 466.3999786376953 92L 0 92Z" stroke="none" fill="none"></path><g id="SvgjsG1624"><text id="SvgjsText1625" font-family="微软雅黑" text-anchor="middle" font-size="13px" width="255" fill="#323232" font-weight="700" align="middle" anchor="middle" family="微软雅黑" size="13px" weight="700" font-style="" y="6.05" transform="rotate(0)"><tspan id="SvgjsTspan1626" dy="16" x="233.5"><tspan id="SvgjsTspan1627" style="text-decoration:;">AuthorizationServerConfigurerAdapter</tspan></tspan></text></g><g id="SvgjsG1628"><text id="SvgjsText1629" font-family="微软雅黑" text-anchor="start" font-size="13px" width="0" fill="#323232" font-weight="400" align="middle" anchor="start" family="微软雅黑" size="13px" weight="400" font-style="" y="37.05" transform="rotate(0)"></text></g><g id="SvgjsG1630"><text id="SvgjsText1631" font-family="微软雅黑" text-anchor="start" font-size="13px" width="421" fill="#323232" font-weight="400" align="middle" anchor="start" family="微软雅黑" size="13px" weight="400" font-style="" y="69.05" transform="rotate(0)"><tspan id="SvgjsTspan1632" dy="16" x="10"><tspan id="SvgjsTspan1633" style="text-decoration:;">configure(AuthorizationServerEndpointsConfigurer endpoints): void </tspan></tspan></text></g></g><g id="SvgjsG1634"><path id="SvgjsPath1635" d="M260.4062271118164 1413.1500244140625L260.4062271118164 1383.2750244140625L260.4062271118164 1383.2750244140625L260.4062271118164 1353.4000244140625" stroke="#323232" stroke-width="2" fill="none" marker-end="url(#SvgjsMarker1636)"></path></g><g id="SvgjsG1638" transform="translate(27.20623779296875,1135.4000244140625)"><path id="SvgjsPath1639" d="M 0 4Q 0 0 4 0L 462.3999786376953 0Q 466.3999786376953 0 466.3999786376953 4L 466.3999786376953 70Q 466.3999786376953 74 462.3999786376953 74L 4 74Q 0 74 0 70Z" stroke="#323232" stroke-width="2" fill-opacity="1" fill="#ffffff"></path><path id="SvgjsPath1640" d="M 0 30L 466.3999786376953 30" stroke="#323232" stroke-width="2" fill="none"></path><path id="SvgjsPath1641" d="M 0 0L 466.3999786376953 0L 466.3999786376953 74L 0 74Z" stroke="none" fill="none"></path><g id="SvgjsG1642"><text id="SvgjsText1643" font-family="微软雅黑" text-anchor="middle" font-size="13px" width="202" fill="#323232" font-weight="700" align="middle" anchor="middle" family="微软雅黑" size="13px" weight="700" font-style="" y="5.05" transform="rotate(0)"><tspan id="SvgjsTspan1644" dy="16" x="233.5"><tspan id="SvgjsTspan1645" style="text-decoration:;">AuthorizationServerConfigurer</tspan></tspan></text></g><g id="SvgjsG1646"><text id="SvgjsText1647" font-family="微软雅黑" text-anchor="start" font-size="13px" width="351" fill="#323232" font-weight="400" align="middle" anchor="start" family="微软雅黑" size="13px" weight="400" font-style="" y="42.05" transform="rotate(0)"><tspan id="SvgjsTspan1648" dy="16" x="10"><tspan id="SvgjsTspan1649" style="text-decoration:;">configure(AuthorizationServerEndpointsConfigurer var1)</tspan></tspan></text></g></g><g id="SvgjsG1650"><path id="SvgjsPath1651" d="M260.4062271118164 1261.4000244140625L260.4062271118164 1235.4000244140625L260.4062271118164 1235.4000244140625L260.4062271118164 1209.4000244140625" stroke-dasharray="8,5" stroke="#323232" stroke-width="2" fill="none" marker-end="url(#SvgjsMarker1652)"></path></g><g id="SvgjsG1654"><path id="SvgjsPath1655" d="M1016.9062403440475 837.4000244140625L1016.9062403440475 719.2000198364258L1156.8062405586243 719.2000198364258L1156.8062405586243 345.00001525878906" stroke="#323232" stroke-width="2" fill="none" marker-end="url(#SvgjsMarker1656)"></path></g><g id="SvgjsG1658" transform="translate(27.20623779296875,970.4000244140625)"><path id="SvgjsPath1659" d="M 0 4Q 0 0 4 0L 491 0Q 495 0 495 4L 495 100Q 495 104 491 104L 4 104Q 0 104 0 100Z" stroke="#323232" stroke-width="2" fill-opacity="1" fill="#ffffff"></path><path id="SvgjsPath1660" d="M 0 30L 495 30M 0 62L 495 62" stroke="#323232" stroke-width="2" fill="none"></path><path id="SvgjsPath1661" d="M 0 0L 495 0L 495 104L 0 104Z" stroke="none" fill="none"></path><g id="SvgjsG1662"><text id="SvgjsText1663" font-family="微软雅黑" text-anchor="middle" font-size="13px" width="201" fill="#323232" font-weight="700" align="middle" anchor="middle" family="微软雅黑" size="13px" weight="700" font-style="" y="5.05" transform="rotate(0)"><tspan id="SvgjsTspan1664" dy="16" x="247.5"><tspan id="SvgjsTspan1665" style="text-decoration:;">ClientCredentialsTokenGranter</tspan></tspan></text></g><g id="SvgjsG1666"><text id="SvgjsText1667" font-family="微软雅黑" text-anchor="start" font-size="13px" width="0" fill="#323232" font-weight="400" align="middle" anchor="start" family="微软雅黑" size="13px" weight="400" font-style="" y="35.05" transform="rotate(0)"></text></g><g id="SvgjsG1668"><text id="SvgjsText1669" font-family="微软雅黑" text-anchor="start" font-size="13px" width="463" fill="#323232" font-weight="400" align="middle" anchor="start" family="微软雅黑" size="13px" weight="400" font-style="" y="70.44999389648437" transform="rotate(0)"><tspan id="SvgjsTspan1670" dy="16" x="10"><tspan id="SvgjsTspan1671" style="text-decoration:;">OAuth2AccessToken grant(String grantType, TokenRequest tokenRequest)</tspan></tspan></text></g></g><g id="SvgjsG1672"><path id="SvgjsPath1673" d="M522.2062377929688 1022.4000244140625L567.3562387824059 1022.4000244140625L567.3562387824059 1022.4000244140625L612.506239771843 1022.4000244140625" stroke="#323232" stroke-width="2" fill="none" marker-end="url(#SvgjsMarker1674)"></path></g><g id="SvgjsG1676"><path id="SvgjsPath1677" d="M674.7562360167503 245.20001220703125L674.7562360167503 214.10001373291016L674.7562360167503 214.10001373291016L674.7562360167503 183.00001525878906" stroke="#323232" stroke-width="2" fill="none" marker-end="url(#SvgjsMarker1678)"></path></g><g id="SvgjsG1680" transform="translate(25.0062255859375,1592.300048828125)"><path id="SvgjsPath1681" d="M 0 4Q 0 0 4 0L 466.8000030517578 0Q 470.8000030517578 0 470.8000030517578 4L 470.8000030517578 67Q 470.8000030517578 71 466.8000030517578 71L 4 71Q 0 71 0 67Z" stroke="#323232" stroke-width="2" fill-opacity="1" fill="#ffffff"></path><path id="SvgjsPath1682" d="M 0 30L 470.8000030517578 30" stroke="#323232" stroke-width="2" fill="none"></path><path id="SvgjsPath1683" d="M 0 0L 470.8000030517578 0L 470.8000030517578 71L 0 71Z" stroke="none" fill="none"></path><g id="SvgjsG1684"><text id="SvgjsText1685" font-family="微软雅黑" text-anchor="middle" font-size="13px" width="188" fill="#323232" font-weight="700" align="middle" anchor="middle" family="微软雅黑" size="13px" weight="700" font-style="" y="5.05" transform="rotate(0)"><tspan id="SvgjsTspan1686" dy="16" x="235.5"><tspan id="SvgjsTspan1687" style="text-decoration:;">AuthenticationKeyGenerator</tspan></tspan></text></g><g id="SvgjsG1688"><text id="SvgjsText1689" font-family="微软雅黑" text-anchor="start" font-size="13px" width="288" fill="#323232" font-weight="400" align="middle" anchor="start" family="微软雅黑" size="13px" weight="400" font-style="" y="40.55" transform="rotate(0)"><tspan id="SvgjsTspan1690" dy="16" x="10"><tspan id="SvgjsTspan1691" style="text-decoration:;">extractKey(OAuth2Authentication var1): String </tspan></tspan></text></g></g><g id="SvgjsG1692" transform="translate(27.20623779296875,1716.2000122070312)"><path id="SvgjsPath1693" d="M 0 4Q 0 0 4 0L 462.3999786376953 0Q 466.3999786376953 0 466.3999786376953 4L 466.3999786376953 106Q 466.3999786376953 110 462.3999786376953 110L 4 110Q 0 110 0 106Z" stroke="#323232" stroke-width="2" fill-opacity="1" fill="#ffffff"></path><path id="SvgjsPath1694" d="M 0 32L 466.3999786376953 32M 0 64L 466.3999786376953 64" stroke="#323232" stroke-width="2" fill="none"></path><path id="SvgjsPath1695" d="M 0 0L 466.3999786376953 0L 466.3999786376953 110L 0 110Z" stroke="none" fill="none"></path><g id="SvgjsG1696"><text id="SvgjsText1697" font-family="微软雅黑" text-anchor="middle" font-size="13px" width="242" fill="#323232" font-weight="700" align="middle" anchor="middle" family="微软雅黑" size="13px" weight="700" font-style="" y="6.05" transform="rotate(0)"><tspan id="SvgjsTspan1698" dy="16" x="233.5"><tspan id="SvgjsTspan1699" style="text-decoration:;">RandomAuthenticationKeyGenerator</tspan></tspan></text></g><g id="SvgjsG1700"><text id="SvgjsText1701" font-family="微软雅黑" text-anchor="start" font-size="13px" width="0" fill="#323232" font-weight="400" align="middle" anchor="start" family="微软雅黑" size="13px" weight="400" font-style="" y="37.05" transform="rotate(0)"></text></g><g id="SvgjsG1702"><text id="SvgjsText1703" font-family="微软雅黑" text-anchor="start" font-size="13px" width="352" fill="#323232" font-weight="400" align="middle" anchor="start" family="微软雅黑" size="13px" weight="400" font-style="" y="70.05" transform="rotate(0)"><tspan id="SvgjsTspan1704" dy="16" x="10"><tspan id="SvgjsTspan1705" style="text-decoration:;">extractKey(OAuth2Authentication authentication): String </tspan></tspan></text></g></g><g id="SvgjsG1706"><path id="SvgjsPath1707" d="M614.4062399864197 1627.800048828125L495.8062286376953 1627.800048828125" stroke="#323232" stroke-width="2" fill="none" marker-end="url(#SvgjsMarker1708)"></path></g><g id="SvgjsG1710"><path id="SvgjsPath1711" d="M260.4062271118164 1716.2000122070312L260.4062271118164 1663.300048828125" stroke-dasharray="8,5" stroke="#323232" stroke-width="2" fill="none" marker-end="url(#SvgjsMarker1712)"></path></g></svg>