<svg id="SvgjsSvg3250" width="1315.1062316894531" height="1902.2000122070312" xmlns="http://www.w3.org/2000/svg" version="1.1" xmlns:xlink="http://www.w3.org/1999/xlink" xmlns:svgjs="http://svgjs.com/svgjs"><defs id="SvgjsDefs3251"><marker id="SvgjsMarker3320" markerWidth="14" markerHeight="12" refX="16" refY="6" viewBox="0 0 14 12" orient="auto" markerUnits="userSpaceOnUse"><path id="SvgjsPath3321" d="M1,1 L14,6 L1,11L1,1" fill="#ffffff" stroke="#323232" stroke-width="2"></path></marker><marker id="SvgjsMarker3340" markerWidth="14" markerHeight="12" refX="16" refY="6" viewBox="0 0 14 12" orient="auto" markerUnits="userSpaceOnUse"><path id="SvgjsPath3341" d="M1,1 L14,6 L1,11L1,1" fill="#ffffff" stroke="#323232" stroke-width="2"></path></marker><marker id="SvgjsMarker3370" markerWidth="14" markerHeight="12" refX="16" refY="6" viewBox="0 0 14 12" orient="auto" markerUnits="userSpaceOnUse"><path id="SvgjsPath3371" d="M1,1 L14,6 L1,11L1,1" fill="#ffffff" stroke="#323232" stroke-width="2"></path></marker><marker id="SvgjsMarker3374" markerWidth="16" markerHeight="16" refX="11" refY="8" viewBox="0 0 16 16" orient="auto" markerUnits="userSpaceOnUse"><path id="SvgjsPath3375" d="M0,0 L10,8 L0,16" fill="none" stroke="#323232" stroke-width="2"></path></marker><marker id="SvgjsMarker3378" markerWidth="16" markerHeight="16" refX="11" refY="8" viewBox="0 0 16 16" orient="auto" markerUnits="userSpaceOnUse"><path id="SvgjsPath3379" d="M0,0 L10,8 L0,16" fill="none" stroke="#323232" stroke-width="2"></path></marker><marker id="SvgjsMarker3414" markerWidth="14" markerHeight="12" refX="16" refY="6" viewBox="0 0 14 12" orient="auto" markerUnits="userSpaceOnUse"><path id="SvgjsPath3415" d="M1,1 L14,6 L1,11L1,1" fill="#ffffff" stroke="#323232" stroke-width="2"></path></marker><marker id="SvgjsMarker3430" markerWidth="16" markerHeight="16" refX="11" refY="8" viewBox="0 0 16 16" orient="auto" markerUnits="userSpaceOnUse"><path id="SvgjsPath3431" d="M0,0 L10,8 L0,16" fill="none" stroke="#323232" stroke-width="2"></path></marker><marker id="SvgjsMarker3456" markerWidth="14" markerHeight="12" refX="16" refY="6" viewBox="0 0 14 12" orient="auto" markerUnits="userSpaceOnUse"><path id="SvgjsPath3457" d="M1,1 L14,6 L1,11L1,1" fill="#ffffff" stroke="#323232" stroke-width="2"></path></marker><marker id="SvgjsMarker3476" markerWidth="16" markerHeight="16" refX="11" refY="8" viewBox="0 0 16 16" orient="auto" markerUnits="userSpaceOnUse"><path id="SvgjsPath3477" d="M0,0 L10,8 L0,16" fill="none" stroke="#323232" stroke-width="2"></path></marker><marker id="SvgjsMarker3504" markerWidth="14" markerHeight="12" refX="16" refY="6" viewBox="0 0 14 12" orient="auto" markerUnits="userSpaceOnUse"><path id="SvgjsPath3505" d="M1,1 L14,6 L1,11L1,1" fill="#ffffff" stroke="#323232" stroke-width="2"></path></marker><marker id="SvgjsMarker3538" markerWidth="14" markerHeight="12" refX="16" refY="6" viewBox="0 0 14 12" orient="auto" markerUnits="userSpaceOnUse"><path id="SvgjsPath3539" d="M1,1 L14,6 L1,11L1,1" fill="#ffffff" stroke="#323232" stroke-width="2"></path></marker><marker id="SvgjsMarker3554" markerWidth="14" markerHeight="12" refX="16" refY="6" viewBox="0 0 14 12" orient="auto" markerUnits="userSpaceOnUse"><path id="SvgjsPath3555" d="M1,1 L14,6 L1,11L1,1" fill="#ffffff" stroke="#323232" stroke-width="2"></path></marker><marker id="SvgjsMarker3558" markerWidth="16" markerHeight="16" refX="11" refY="8" viewBox="0 0 16 16" orient="auto" markerUnits="userSpaceOnUse"><path id="SvgjsPath3559" d="M0,0 L10,8 L0,16" fill="none" stroke="#323232" stroke-width="2"></path></marker><marker id="SvgjsMarker3576" markerWidth="14" markerHeight="12" refX="16" refY="6" viewBox="0 0 14 12" orient="auto" markerUnits="userSpaceOnUse"><path id="SvgjsPath3577" d="M1,1 L14,6 L1,11L1,1" fill="#ffffff" stroke="#323232" stroke-width="2"></path></marker><marker id="SvgjsMarker3606" markerWidth="16" markerHeight="16" refX="11" refY="8" viewBox="0 0 16 16" orient="auto" markerUnits="userSpaceOnUse"><path id="SvgjsPath3607" d="M0,0 L10,8 L0,16" fill="none" stroke="#323232" stroke-width="2"></path></marker><marker id="SvgjsMarker3610" markerWidth="14" markerHeight="12" refX="16" refY="6" viewBox="0 0 14 12" orient="auto" markerUnits="userSpaceOnUse"><path id="SvgjsPath3611" d="M1,1 L14,6 L1,11L1,1" fill="#ffffff" stroke="#323232" stroke-width="2"></path></marker><marker id="SvgjsMarker3614" markerWidth="14" markerHeight="12" refX="16" refY="6" viewBox="0 0 14 12" orient="auto" markerUnits="userSpaceOnUse"><path id="SvgjsPath3615" d="M1,1 L14,6 L1,11L1,1" fill="#ffffff" stroke="#323232" stroke-width="2"></path></marker><marker id="SvgjsMarker3618" markerWidth="16" markerHeight="16" refX="11" refY="8" viewBox="0 0 16 16" orient="auto" markerUnits="userSpaceOnUse"><path id="SvgjsPath3619" d="M0,0 L10,8 L0,16" fill="none" stroke="#323232" stroke-width="2"></path></marker><marker id="SvgjsMarker3622" markerWidth="16" markerHeight="16" refX="11" refY="8" viewBox="0 0 16 16" orient="auto" markerUnits="userSpaceOnUse"><path id="SvgjsPath3623" d="M0,0 L10,8 L0,16" fill="none" stroke="#323232" stroke-width="2"></path></marker></defs><g id="SvgjsG3252" transform="translate(126.10623729228973,245.199951171875)"><path id="SvgjsPath3253" d="M 0 4Q 0 0 4 0L 1088.9000035524368 0Q 1092.9000035524368 0 1092.9000035524368 4L 1092.9000035524368 86.79999542236328Q 1092.9000035524368 90.79999542236328 1088.9000035524368 90.79999542236328L 4 90.79999542236328Q 0 90.79999542236328 0 86.79999542236328Z" stroke="#323232" stroke-width="2" fill-opacity="1" fill="#ffffff"></path><path id="SvgjsPath3254" d="M 0 30L 1092.9000035524368 30M 0 60L 1092.9000035524368 60" stroke="#323232" stroke-width="2" fill="none"></path><path id="SvgjsPath3255" d="M 0 0L 1092.9000035524368 0L 1092.9000035524368 90.79999542236328L 0 90.79999542236328Z" stroke="none" fill="none"></path><g id="SvgjsG3256"><text id="SvgjsText3257" font-family="微软雅黑" text-anchor="middle" font-size="13px" width="100" fill="#323232" font-weight="700" align="middle" anchor="middle" family="微软雅黑" size="13px" weight="700" font-style="" y="5.05" transform="rotate(0)"><tspan id="SvgjsTspan3258" dy="16" x="546.5"><tspan id="SvgjsTspan3259" style="text-decoration:;">TokenEndpoint</tspan></tspan></text></g><g id="SvgjsG3260"><text id="SvgjsText3261" font-family="微软雅黑" text-anchor="start" font-size="13px" width="0" fill="#323232" font-weight="400" align="middle" anchor="start" family="微软雅黑" size="13px" weight="400" font-style="" y="35.05" transform="rotate(0)"></text></g><g id="SvgjsG3262"><text id="SvgjsText3263" font-family="微软雅黑" text-anchor="start" font-size="13px" width="545" fill="#323232" font-weight="400" align="middle" anchor="start" family="微软雅黑" size="13px" weight="400" font-style="" y="65.05" transform="rotate(0)"><tspan id="SvgjsTspan3264" dy="16" x="10"><tspan id="SvgjsTspan3265" style="text-decoration:;">postAccessToken(Principal principal, @RequestParam Map&lt;String, String&gt; parameters): ResponseEntity&lt;OAuth2AccessToken&gt; </tspan></tspan></text></g></g><g id="SvgjsG3266" transform="translate(29.006240844726562,537.199951171875)"><path id="SvgjsPath3267" d="M 0 4Q 0 0 4 0L 327.8000030517578 0Q 331.8000030517578 0 331.8000030517578 4L 331.8000030517578 95Q 331.8000030517578 99 327.8000030517578 99L 4 99Q 0 99 0 95Z" stroke="#323232" stroke-width="2" fill-opacity="1" fill="#ffffff"></path><path id="SvgjsPath3268" d="M 0 30L 331.8000030517578 30M 0 62L 331.8000030517578 62" stroke="#323232" stroke-width="2" fill="none"></path><path id="SvgjsPath3269" d="M 0 0L 331.8000030517578 0L 331.8000030517578 99L 0 99Z" stroke="none" fill="none"></path><g id="SvgjsG3270"><text id="SvgjsText3271" font-family="微软雅黑" text-anchor="middle" font-size="13px" width="159" fill="#323232" font-weight="700" align="middle" anchor="middle" family="微软雅黑" size="13px" weight="700" font-style="" y="5.05" transform="rotate(0)"><tspan id="SvgjsTspan3272" dy="16" x="166"><tspan id="SvgjsTspan3273" style="text-decoration:;">JdbcClientDetailsService</tspan></tspan></text></g><g id="SvgjsG3274"><text id="SvgjsText3275" font-family="微软雅黑" text-anchor="start" font-size="13px" width="0" fill="#323232" font-weight="400" align="middle" anchor="start" family="微软雅黑" size="13px" weight="400" font-style="" y="35.05" transform="rotate(0)"></text></g><g id="SvgjsG3276"><text id="SvgjsText3277" font-family="微软雅黑" text-anchor="start" font-size="13px" width="306" fill="#323232" font-weight="400" align="middle" anchor="start" family="微软雅黑" size="13px" weight="400" font-style="" y="76.05" transform="rotate(0)"><tspan id="SvgjsTspan3278" dy="16" x="10"><tspan id="SvgjsTspan3279" style="text-decoration:;">loadClientByClientId(String clientId): ClientDetails </tspan></tspan></text></g></g><g id="SvgjsG3280" transform="translate(387.03123995661736,24.999954223632812)"><path id="SvgjsPath3281" d="M 0 4Q 0 0 4 0L 567.0499982237816 0Q 571.0499982237816 0 571.0499982237816 4L 571.0499982237816 154Q 571.0499982237816 158 567.0499982237816 158L 4 158Q 0 158 0 154Z" stroke="#323232" stroke-width="2" fill-opacity="1" fill="#ffffff"></path><path id="SvgjsPath3282" d="M 0 30L 571.0499982237816 30M 0 96L 571.0499982237816 96" stroke="#323232" stroke-width="2" fill="none"></path><path id="SvgjsPath3283" d="M 0 0L 571.0499982237816 0L 571.0499982237816 158L 0 158Z" stroke="none" fill="none"></path><g id="SvgjsG3284"><text id="SvgjsText3285" font-family="微软雅黑" text-anchor="middle" font-size="13px" width="115" fill="#323232" font-weight="700" align="middle" anchor="middle" family="微软雅黑" size="13px" weight="700" font-style="" y="5.05" transform="rotate(0)"><tspan id="SvgjsTspan3286" dy="16" x="286"><tspan id="SvgjsTspan3287" style="text-decoration:;">AbstractEndpoint</tspan></tspan></text></g><g id="SvgjsG3288"><text id="SvgjsText3289" font-family="微软雅黑" text-anchor="start" font-size="13px" width="339" fill="#323232" font-weight="400" align="middle" anchor="start" family="微软雅黑" size="13px" weight="400" font-style="" y="28.05" transform="rotate(0)"><tspan id="SvgjsTspan3290" dy="16" x="10"><tspan id="SvgjsTspan3291" style="text-decoration:;">tokenGranter: TokenGranter</tspan></tspan><tspan id="SvgjsTspan3292" dy="16" x="10"><tspan id="SvgjsTspan3293" style="text-decoration:;">clientDetailsService: ClientDetailsService</tspan></tspan><tspan id="SvgjsTspan3294" dy="16" x="10"><tspan id="SvgjsTspan3295" style="text-decoration:;">oAuth2RequestFactory: OAuth2RequestFactory</tspan></tspan><tspan id="SvgjsTspan3296" dy="16" x="10"><tspan id="SvgjsTspan3297" style="text-decoration:;">defaultOAuth2RequestFactory: OAuth2RequestFactory</tspan></tspan></text></g><g id="SvgjsG3298"><text id="SvgjsText3299" font-family="微软雅黑" text-anchor="start" font-size="13px" width="325" fill="#323232" font-weight="400" align="middle" anchor="start" family="微软雅黑" size="13px" weight="400" font-style="" y="100.64999847412109" transform="rotate(0)"><tspan id="SvgjsTspan3300" dy="16" x="10"><tspan id="SvgjsTspan3301" style="text-decoration:;">getClientDetailsService(): ClientDetailsService </tspan></tspan><tspan id="SvgjsTspan3302" dy="16" x="10"><tspan id="SvgjsTspan3303" style="text-decoration:;">getOAuth2RequestFactory(): OAuth2RequestFactory</tspan></tspan><tspan id="SvgjsTspan3304" dy="16" x="10"><tspan id="SvgjsTspan3305" style="text-decoration:;">getTokenGranter(): TokenGranter</tspan></tspan></text></g></g><g id="SvgjsG3306" transform="translate(28.006240844726562,401.199951171875)"><path id="SvgjsPath3307" d="M 0 4Q 0 0 4 0L 329.8000030517578 0Q 333.8000030517578 0 333.8000030517578 4L 333.8000030517578 67Q 333.8000030517578 71 329.8000030517578 71L 4 71Q 0 71 0 67Z" stroke="#323232" stroke-width="2" fill-opacity="1" fill="#ffffff"></path><path id="SvgjsPath3308" d="M 0 30L 333.8000030517578 30" stroke="#323232" stroke-width="2" fill="none"></path><path id="SvgjsPath3309" d="M 0 0L 333.8000030517578 0L 333.8000030517578 71L 0 71Z" stroke="none" fill="none"></path><g id="SvgjsG3310"><text id="SvgjsText3311" font-family="微软雅黑" text-anchor="middle" font-size="13px" width="129" fill="#323232" font-weight="700" align="middle" anchor="middle" family="微软雅黑" size="13px" weight="700" font-style="" y="5.05" transform="rotate(0)"><tspan id="SvgjsTspan3312" dy="16" x="167"><tspan id="SvgjsTspan3313" style="text-decoration:;">ClientDetailsService</tspan></tspan></text></g><g id="SvgjsG3314"><text id="SvgjsText3315" font-family="微软雅黑" text-anchor="start" font-size="13px" width="287" fill="#323232" font-weight="400" align="middle" anchor="start" family="微软雅黑" size="13px" weight="400" font-style="" y="40.55" transform="rotate(0)"><tspan id="SvgjsTspan3316" dy="16" x="10"><tspan id="SvgjsTspan3317" style="text-decoration:;">loadClientByClientId(String var1): ClientDetails </tspan></tspan></text></g></g><g id="SvgjsG3318"><path id="SvgjsPath3319" d="M194.90624237060547 537.199951171875L194.90624237060547 504.699951171875L194.90624237060547 504.699951171875L194.90624237060547 472.199951171875" stroke-dasharray="8,5" stroke="#323232" stroke-width="2" fill="none" marker-end="url(#SvgjsMarker3320)"></path></g><g id="SvgjsG3322" transform="translate(28.006240844726562,698.199951171875)"><path id="SvgjsPath3323" d="M 0 4Q 0 0 4 0L 329.8000030517578 0Q 333.8000030517578 0 333.8000030517578 4L 333.8000030517578 92Q 333.8000030517578 96 329.8000030517578 96L 4 96Q 0 96 0 92Z" stroke="#323232" stroke-width="2" fill-opacity="1" fill="#ffffff"></path><path id="SvgjsPath3324" d="M 0 30L 333.8000030517578 30M 0 60L 333.8000030517578 60" stroke="#323232" stroke-width="2" fill="none"></path><path id="SvgjsPath3325" d="M 0 0L 333.8000030517578 0L 333.8000030517578 96L 0 96Z" stroke="none" fill="none"></path><g id="SvgjsG3326"><text id="SvgjsText3327" font-family="微软雅黑" text-anchor="middle" font-size="13px" width="165" fill="#323232" font-weight="700" align="middle" anchor="middle" family="微软雅黑" size="13px" weight="700" font-style="" y="5.05" transform="rotate(0)"><tspan id="SvgjsTspan3328" dy="16" x="167"><tspan id="SvgjsTspan3329" style="text-decoration:;">RedisClientDetailsService</tspan></tspan></text></g><g id="SvgjsG3330"><text id="SvgjsText3331" font-family="微软雅黑" text-anchor="start" font-size="13px" width="263" fill="#323232" font-weight="400" align="middle" anchor="start" family="微软雅黑" size="13px" weight="400" font-style="" y="35.05" transform="rotate(0)"><tspan id="SvgjsTspan3332" dy="16" x="10"><tspan id="SvgjsTspan3333" style="text-decoration:;">stringRedisTemplate: StringRedisTemplate </tspan></tspan></text></g><g id="SvgjsG3334"><text id="SvgjsText3335" font-family="微软雅黑" text-anchor="start" font-size="13px" width="306" fill="#323232" font-weight="400" align="middle" anchor="start" family="微软雅黑" size="13px" weight="400" font-style="" y="65.05" transform="rotate(0)"><tspan id="SvgjsTspan3336" dy="16" x="10"><tspan id="SvgjsTspan3337" style="text-decoration:;">loadClientByClientId(String clientId): ClientDetails </tspan></tspan></text></g></g><g id="SvgjsG3338"><path id="SvgjsPath3339" d="M194.90624237060547 698.199951171875L194.90624237060547 667.199951171875L194.90624237060547 667.199951171875L194.90624237060547 636.199951171875" stroke="#323232" stroke-width="2" fill="none" marker-end="url(#SvgjsMarker3340)"></path></g><g id="SvgjsG3342" transform="translate(523.8062438964844,401.199951171875)"><path id="SvgjsPath3343" d="M 0 4Q 0 0 4 0L 530 0Q 534 0 534 4L 534 67Q 534 71 530 71L 4 71Q 0 71 0 67Z" stroke="#323232" stroke-width="2" fill-opacity="1" fill="#ffffff"></path><path id="SvgjsPath3344" d="M 0 30L 534 30" stroke="#323232" stroke-width="2" fill="none"></path><path id="SvgjsPath3345" d="M 0 0L 534 0L 534 71L 0 71Z" stroke="none" fill="none"></path><g id="SvgjsG3346"><text id="SvgjsText3347" font-family="微软雅黑" text-anchor="middle" font-size="13px" width="152" fill="#323232" font-weight="700" align="middle" anchor="middle" family="微软雅黑" size="13px" weight="700" font-style="" y="5.05" transform="rotate(0)"><tspan id="SvgjsTspan3348" dy="16" x="267"><tspan id="SvgjsTspan3349" style="text-decoration:;">OAuth2RequestFactory</tspan></tspan></text></g><g id="SvgjsG3350"><text id="SvgjsText3351" font-family="微软雅黑" text-anchor="start" font-size="13px" width="405" fill="#323232" font-weight="400" align="middle" anchor="start" family="微软雅黑" size="13px" weight="400" font-style="" y="40.55" transform="rotate(0)"><tspan id="SvgjsTspan3352" dy="16" x="10"><tspan id="SvgjsTspan3353" style="text-decoration:;">createTokenRequest(Map&lt;String, String&gt; var1, ClientDetails var2): TokenRequest </tspan></tspan></text></g></g><g id="SvgjsG3354" transform="translate(423.8062438964844,537.199951171875)"><path id="SvgjsPath3355" d="M 0 4Q 0 0 4 0L 730 0Q 734 0 734 4L 734 95Q 734 99 730 99L 4 99Q 0 99 0 95Z" stroke="#323232" stroke-width="2" fill-opacity="1" fill="#ffffff"></path><path id="SvgjsPath3356" d="M 0 30L 734 30M 0 62L 734 62" stroke="#323232" stroke-width="2" fill="none"></path><path id="SvgjsPath3357" d="M 0 0L 734 0L 734 99L 0 99Z" stroke="none" fill="none"></path><g id="SvgjsG3358"><text id="SvgjsText3359" font-family="微软雅黑" text-anchor="middle" font-size="13px" width="200" fill="#323232" font-weight="700" align="middle" anchor="middle" family="微软雅黑" size="13px" weight="700" font-style="" y="5.05" transform="rotate(0)"><tspan id="SvgjsTspan3360" dy="16" x="367"><tspan id="SvgjsTspan3361" style="text-decoration:;">DefaultOAuth2RequestFactory</tspan></tspan></text></g><g id="SvgjsG3362"><text id="SvgjsText3363" font-family="微软雅黑" text-anchor="start" font-size="13px" width="0" fill="#323232" font-weight="400" align="middle" anchor="start" family="微软雅黑" size="13px" weight="400" font-style="" y="35.05" transform="rotate(0)"></text></g><g id="SvgjsG3364"><text id="SvgjsText3365" font-family="微软雅黑" text-anchor="start" font-size="13px" width="591" fill="#323232" font-weight="400" align="middle" anchor="start" family="微软雅黑" size="13px" weight="400" font-style="" y="67.05" transform="rotate(0)"><tspan id="SvgjsTspan3366" dy="16" x="10"><tspan id="SvgjsTspan3367" style="text-decoration:;">createTokenRequest(Map&lt;String, String&gt; requestParameters, ClientDetails authenticatedClient): TokenRequest </tspan></tspan></text></g></g><g id="SvgjsG3368"><path id="SvgjsPath3369" d="M790.8062438964844 537.199951171875L790.8062438964844 504.699951171875L790.8062438964844 504.699951171875L790.8062438964844 472.199951171875" stroke-dasharray="8,5" stroke="#323232" stroke-width="2" fill="none" marker-end="url(#SvgjsMarker3370)"></path></g><g id="SvgjsG3372"><path id="SvgjsPath3373" d="M790.8062438964844 401.199951171875L790.8062438964844 370.2999496459961L790.8062438964844 370.2999496459961L790.8062438964844 339.3999481201172" stroke="#323232" stroke-width="2" fill="none" marker-end="url(#SvgjsMarker3374)"></path></g><g id="SvgjsG3376"><path id="SvgjsPath3377" d="M194.90624237060547 401.199951171875L194.90624237060547 369.7999496459961L194.90624237060547 369.7999496459961L194.90624237060547 338.3999481201172" stroke="#323232" stroke-width="2" fill="none" marker-end="url(#SvgjsMarker3378)"></path></g><g id="SvgjsG3380" transform="translate(751.9562435746193,821.199951171875)"><path id="SvgjsPath3381" d="M 0 4Q 0 0 4 0L 396 0Q 400 0 400 4L 400 59Q 400 63 396 63L 4 63Q 0 63 0 59Z" stroke="#323232" stroke-width="2" fill-opacity="1" fill="#ffffff"></path><path id="SvgjsPath3382" d="M 0 30L 400 30" stroke="#323232" stroke-width="2" fill="none"></path><path id="SvgjsPath3383" d="M 0 0L 400 0L 400 63L 0 63Z" stroke="none" fill="none"></path><g id="SvgjsG3384"><text id="SvgjsText3385" font-family="微软雅黑" text-anchor="middle" font-size="13px" width="90" fill="#323232" font-weight="700" align="middle" anchor="middle" family="微软雅黑" size="13px" weight="700" font-style="" y="5.05" transform="rotate(0)"><tspan id="SvgjsTspan3386" dy="16" x="200"><tspan id="SvgjsTspan3387" style="text-decoration:;">TokenGranter </tspan></tspan></text></g><g id="SvgjsG3388"><text id="SvgjsText3389" font-family="微软雅黑" text-anchor="start" font-size="13px" width="370" fill="#323232" font-weight="400" align="middle" anchor="start" family="微软雅黑" size="13px" weight="400" font-style="" y="36.55" transform="rotate(0)"><tspan id="SvgjsTspan3390" dy="16" x="10"><tspan id="SvgjsTspan3391" style="text-decoration:;">grant(String var1, TokenRequest var2): OAuth2AccessToken </tspan></tspan></text></g></g><g id="SvgjsG3392" transform="translate(614.1062432527542,967.8999633789062)"><path id="SvgjsPath3393" d="M 0 4Q 0 0 4 0L 671.7000006437302 0Q 675.7000006437302 0 675.7000006437302 4L 675.7000006437302 100.79998779296875Q 675.7000006437302 104.79998779296875 671.7000006437302 104.79998779296875L 4 104.79998779296875Q 0 104.79998779296875 0 100.79998779296875Z" stroke="#323232" stroke-width="2" fill-opacity="1" fill="#ffffff"></path><path id="SvgjsPath3394" d="M 0 30L 675.7000006437302 30M 0 62L 675.7000006437302 62" stroke="#323232" stroke-width="2" fill="none"></path><path id="SvgjsPath3395" d="M 0 0L 675.7000006437302 0L 675.7000006437302 104.79998779296875L 0 104.79998779296875Z" stroke="none" fill="none"></path><g id="SvgjsG3396"><text id="SvgjsText3397" font-family="微软雅黑" text-anchor="middle" font-size="13px" width="146" fill="#323232" font-weight="700" align="middle" anchor="middle" family="微软雅黑" size="13px" weight="700" font-style="" y="5.05" transform="rotate(0)"><tspan id="SvgjsTspan3398" dy="16" x="338"><tspan id="SvgjsTspan3399" style="text-decoration:;">AbstractTokenGranter</tspan></tspan></text></g><g id="SvgjsG3400"><text id="SvgjsText3401" font-family="微软雅黑" text-anchor="start" font-size="13px" width="305" fill="#323232" font-weight="400" align="middle" anchor="start" family="微软雅黑" size="13px" weight="400" font-style="" y="28.05" transform="rotate(0)"><tspan id="SvgjsTspan3402" dy="16" x="10"><tspan id="SvgjsTspan3403" style="text-decoration:;">clientDetailsService: ClientDetailsService </tspan></tspan><tspan id="SvgjsTspan3404" dy="16" x="10"><tspan id="SvgjsTspan3405" style="text-decoration:;">tokenServices: AuthorizationServerTokenServices </tspan></tspan></text></g><g id="SvgjsG3406"><text id="SvgjsText3407" font-family="微软雅黑" text-anchor="start" font-size="13px" width="545" fill="#323232" font-weight="400" align="middle" anchor="start" family="微软雅黑" size="13px" weight="400" font-style="" y="60.05" transform="rotate(0)"><tspan id="SvgjsTspan3408" dy="16" x="10"><tspan id="SvgjsTspan3409" style="text-decoration:;">grant(String grantType, TokenRequest tokenRequest): OAuth2AccessToken </tspan></tspan><tspan id="SvgjsTspan3410" dy="16" x="10"><tspan id="SvgjsTspan3411" style="text-decoration:;">getAccessToken(ClientDetails client, TokenRequest tokenRequest): OAuth2AccessToken</tspan></tspan></text></g></g><g id="SvgjsG3412"><path id="SvgjsPath3413" d="M951.9562435746193 967.8999633789062L951.9562435746193 926.0499572753906L951.9562435746193 926.0499572753906L951.9562435746193 884.199951171875" stroke-dasharray="8,5" stroke="#323232" stroke-width="2" fill="none" marker-end="url(#SvgjsMarker3414)"></path></g><g id="SvgjsG3416" transform="translate(614.1062432527542,1135.3999633789062)"><path id="SvgjsPath3417" d="M 0 4Q 0 0 4 0L 671.7000006437302 0Q 675.7000006437302 0 675.7000006437302 4L 675.7000006437302 67.79998779296875Q 675.7000006437302 71.79998779296875 671.7000006437302 71.79998779296875L 4 71.79998779296875Q 0 71.79998779296875 0 67.79998779296875Z" stroke="#323232" stroke-width="2" fill-opacity="1" fill="#ffffff"></path><path id="SvgjsPath3418" d="M 0 32L 675.7000006437302 32" stroke="#323232" stroke-width="2" fill="none"></path><path id="SvgjsPath3419" d="M 0 0L 675.7000006437302 0L 675.7000006437302 71.79998779296875L 0 71.79998779296875Z" stroke="none" fill="none"></path><g id="SvgjsG3420"><text id="SvgjsText3421" font-family="微软雅黑" text-anchor="middle" font-size="13px" width="225" fill="#323232" font-weight="700" align="middle" anchor="middle" family="微软雅黑" size="13px" weight="700" font-style="" y="6.05" transform="rotate(0)"><tspan id="SvgjsTspan3422" dy="16" x="338"><tspan id="SvgjsTspan3423" style="text-decoration:;">AuthorizationServerTokenServices</tspan></tspan></text></g><g id="SvgjsG3424"><text id="SvgjsText3425" font-family="微软雅黑" text-anchor="start" font-size="13px" width="432" fill="#323232" font-weight="400" align="middle" anchor="start" family="微软雅黑" size="13px" weight="400" font-style="" y="41.94999389648437" transform="rotate(0)"><tspan id="SvgjsTspan3426" dy="16" x="10"><tspan id="SvgjsTspan3427" style="text-decoration:;">createAccessToken(OAuth2Authentication var1): OAuth2AccessToken </tspan></tspan></text></g></g><g id="SvgjsG3428"><path id="SvgjsPath3429" d="M951.9562435746193 1135.3999633789062L951.9562435746193 1104.0499572753906L951.9562435746193 1104.0499572753906L951.9562435746193 1072.699951171875" stroke="#323232" stroke-width="2" fill="none" marker-end="url(#SvgjsMarker3430)"></path></g><g id="SvgjsG3432" transform="translate(614.1062432527542,1271.3999633789062)"><path id="SvgjsPath3433" d="M 0 4Q 0 0 4 0L 671.7000006437302 0Q 675.7000006437302 0 675.7000006437302 4L 675.7000006437302 125.79998779296875Q 675.7000006437302 129.79998779296875 671.7000006437302 129.79998779296875L 4 129.79998779296875Q 0 129.79998779296875 0 125.79998779296875Z" stroke="#323232" stroke-width="2" fill-opacity="1" fill="#ffffff"></path><path id="SvgjsPath3434" d="M 0 30L 675.7000006437302 30M 0 60L 675.7000006437302 60" stroke="#323232" stroke-width="2" fill="none"></path><path id="SvgjsPath3435" d="M 0 0L 675.7000006437302 0L 675.7000006437302 129.79998779296875L 0 129.79998779296875Z" stroke="none" fill="none"></path><g id="SvgjsG3436"><text id="SvgjsText3437" font-family="微软雅黑" text-anchor="middle" font-size="13px" width="142" fill="#323232" font-weight="700" align="middle" anchor="middle" family="微软雅黑" size="13px" weight="700" font-style="" y="5.05" transform="rotate(0)"><tspan id="SvgjsTspan3438" dy="16" x="338"><tspan id="SvgjsTspan3439" style="text-decoration:;">DefaultTokenServices</tspan></tspan></text></g><g id="SvgjsG3440"><text id="SvgjsText3441" font-family="微软雅黑" text-anchor="start" font-size="13px" width="147" fill="#323232" font-weight="400" align="middle" anchor="start" family="微软雅黑" size="13px" weight="400" font-style="" y="35.05" transform="rotate(0)"><tspan id="SvgjsTspan3442" dy="16" x="10"><tspan id="SvgjsTspan3443" style="text-decoration:;">tokenStore: TokenStore </tspan></tspan></text></g><g id="SvgjsG3444"><text id="SvgjsText3445" font-family="微软雅黑" text-anchor="start" font-size="13px" width="506" fill="#323232" font-weight="400" align="middle" anchor="start" family="微软雅黑" size="13px" weight="400" font-style="" y="58.05" transform="rotate(0)"><tspan id="SvgjsTspan3446" dy="16" x="10"><tspan id="SvgjsTspan3447" style="text-decoration:;">createAccessToken(OAuth2Authentication authentication): OAuth2AccessToken </tspan></tspan><tspan id="SvgjsTspan3448" dy="16" x="10"><tspan id="SvgjsTspan3449" style="text-decoration:;">createRefreshToken(OAuth2Authentication authentication): OAuth2RefreshToken</tspan></tspan><tspan id="SvgjsTspan3450" dy="16" x="10"><tspan id="SvgjsTspan3451" style="text-decoration:;">createAccessToken(OAuth2Authentication authentication, OAuth2RefreshToken </tspan></tspan><tspan id="SvgjsTspan3452" dy="16" x="10"><tspan id="SvgjsTspan3453" style="text-decoration:;">refreshToken): OAuth2AccessToken</tspan></tspan></text></g></g><g id="SvgjsG3454"><path id="SvgjsPath3455" d="M951.9562435746193 1271.3999633789062L951.9562435746193 1239.2999572753906L951.9562435746193 1239.2999572753906L951.9562435746193 1207.199951171875" stroke-dasharray="8,5" stroke="#323232" stroke-width="2" fill="none" marker-end="url(#SvgjsMarker3456)"></path></g><g id="SvgjsG3458" transform="translate(614.1062432527542,1465.3999633789062)"><path id="SvgjsPath3459" d="M 0 4Q 0 0 4 0L 671.7000006437302 0Q 675.7000006437302 0 675.7000006437302 4L 675.7000006437302 81.79998779296875Q 675.7000006437302 85.79998779296875 671.7000006437302 85.79998779296875L 4 85.79998779296875Q 0 85.79998779296875 0 81.79998779296875Z" stroke="#323232" stroke-width="2" fill-opacity="1" fill="#ffffff"></path><path id="SvgjsPath3460" d="M 0 30L 675.7000006437302 30" stroke="#323232" stroke-width="2" fill="none"></path><path id="SvgjsPath3461" d="M 0 0L 675.7000006437302 0L 675.7000006437302 85.79998779296875L 0 85.79998779296875Z" stroke="none" fill="none"></path><g id="SvgjsG3462"><text id="SvgjsText3463" font-family="微软雅黑" text-anchor="middle" font-size="13px" width="75" fill="#323232" font-weight="700" align="middle" anchor="middle" family="微软雅黑" size="13px" weight="700" font-style="" y="5.05" transform="rotate(0)"><tspan id="SvgjsTspan3464" dy="16" x="338"><tspan id="SvgjsTspan3465" style="text-decoration:;">TokenStore</tspan></tspan></text></g><g id="SvgjsG3466"><text id="SvgjsText3467" font-family="微软雅黑" text-anchor="start" font-size="13px" width="500" fill="#323232" font-weight="400" align="middle" anchor="start" family="微软雅黑" size="13px" weight="400" font-style="" y="31.949993896484376" transform="rotate(0)"><tspan id="SvgjsTspan3468" dy="16" x="10"><tspan id="SvgjsTspan3469" style="text-decoration:;">getAccessToken(OAuth2Authentication var1): OAuth2AccessToken </tspan></tspan><tspan id="SvgjsTspan3470" dy="16" x="10"><tspan id="SvgjsTspan3471" style="text-decoration:;">storeAccessToken(OAuth2AccessToken var1, OAuth2Authentication var2): void</tspan></tspan><tspan id="SvgjsTspan3472" dy="16" x="10"><tspan id="SvgjsTspan3473" style="text-decoration:;">storeRefreshToken(OAuth2RefreshToken var1, OAuth2Authentication var2): void</tspan></tspan></text></g></g><g id="SvgjsG3474"><path id="SvgjsPath3475" d="M951.9562435746193 1465.3999633789062L951.9562435746193 1433.2999572753906L951.9562435746193 1433.2999572753906L951.9562435746193 1401.199951171875" stroke="#323232" stroke-width="2" fill="none" marker-end="url(#SvgjsMarker3476)"></path></g><g id="SvgjsG3478" transform="translate(614.1062432527542,1612.4000244140625)"><path id="SvgjsPath3479" d="M 0 4Q 0 0 4 0L 671.7000006437302 0Q 675.7000006437302 0 675.7000006437302 4L 675.7000006437302 154.7999267578125Q 675.7000006437302 158.7999267578125 671.7000006437302 158.7999267578125L 4 158.7999267578125Q 0 158.7999267578125 0 154.7999267578125Z" stroke="#323232" stroke-width="2" fill-opacity="1" fill="#ffffff"></path><path id="SvgjsPath3480" d="M 0 30L 675.7000006437302 30M 0 60L 675.7000006437302 60" stroke="#323232" stroke-width="2" fill="none"></path><path id="SvgjsPath3481" d="M 0 0L 675.7000006437302 0L 675.7000006437302 158.7999267578125L 0 158.7999267578125Z" stroke="none" fill="none"></path><g id="SvgjsG3482"><text id="SvgjsText3483" font-family="微软雅黑" text-anchor="middle" font-size="13px" width="111" fill="#323232" font-weight="700" align="middle" anchor="middle" family="微软雅黑" size="13px" weight="700" font-style="" y="5.05" transform="rotate(0)"><tspan id="SvgjsTspan3484" dy="16" x="338"><tspan id="SvgjsTspan3485" style="text-decoration:;">RedisTokenStore</tspan></tspan></text></g><g id="SvgjsG3486"><text id="SvgjsText3487" font-family="微软雅黑" text-anchor="start" font-size="13px" width="359" fill="#323232" font-weight="400" align="middle" anchor="start" family="微软雅黑" size="13px" weight="400" font-style="" y="35.05" transform="rotate(0)"><tspan id="SvgjsTspan3488" dy="16" x="10"><tspan id="SvgjsTspan3489" style="text-decoration:;">authenticationKeyGenerator: AuthenticationKeyGenerator</tspan></tspan></text></g><g id="SvgjsG3490"><text id="SvgjsText3491" font-family="微软雅黑" text-anchor="start" font-size="13px" width="618" fill="#323232" font-weight="400" align="middle" anchor="start" family="微软雅黑" size="13px" weight="400" font-style="" y="66.05" transform="rotate(0)"><tspan id="SvgjsTspan3492" dy="16" x="10"><tspan id="SvgjsTspan3493" style="text-decoration:;">getAccessToken(OAuth2Authentication authentication): OAuth2AccessToken</tspan></tspan><tspan id="SvgjsTspan3494" dy="16" x="10"><tspan id="SvgjsTspan3495" style="text-decoration:;">serializeKey(String object): byte[]</tspan></tspan><tspan id="SvgjsTspan3496" dy="16" x="10"><tspan id="SvgjsTspan3497" style="text-decoration:;">deserializeAccessToken(byte[] bytes): OAuth2AccessToken</tspan></tspan><tspan id="SvgjsTspan3498" dy="16" x="10"><tspan id="SvgjsTspan3499" style="text-decoration:;">storeAccessToken(OAuth2AccessToken token, OAuth2Authentication authentication): void</tspan></tspan><tspan id="SvgjsTspan3500" dy="16" x="10"><tspan id="SvgjsTspan3501" style="text-decoration:;">storeRefreshToken(OAuth2RefreshToken refreshToken, OAuth2Authentication authentication): void</tspan></tspan></text></g></g><g id="SvgjsG3502"><path id="SvgjsPath3503" d="M951.9562435746193 1612.4000244140625L951.9562435746193 1578.2097706809627L951.9562435746193 1578.2097706809627L951.9562435746193 1544.0195169478627" stroke-dasharray="8,5" stroke="#323232" stroke-width="2" fill="none" marker-end="url(#SvgjsMarker3504)"></path></g><g id="SvgjsG3506" transform="translate(25.006240844726562,1452.0499572753906)"><path id="SvgjsPath3507" d="M 0 4Q 0 0 4 0L 466.8000030517578 0Q 470.8000030517578 0 470.8000030517578 4L 470.8000030517578 108.5Q 470.8000030517578 112.5 466.8000030517578 112.5L 4 112.5Q 0 112.5 0 108.5Z" stroke="#323232" stroke-width="2" fill-opacity="1" fill="#ffffff"></path><path id="SvgjsPath3508" d="M 0 30L 470.8000030517578 30M 0 62L 470.8000030517578 62" stroke="#323232" stroke-width="2" fill="none"></path><path id="SvgjsPath3509" d="M 0 0L 470.8000030517578 0L 470.8000030517578 112.5L 0 112.5Z" stroke="none" fill="none"></path><g id="SvgjsG3510"><text id="SvgjsText3511" font-family="微软雅黑" text-anchor="middle" font-size="13px" width="175" fill="#323232" font-weight="700" align="middle" anchor="middle" family="微软雅黑" size="13px" weight="700" font-style="" y="5.05" transform="rotate(0)"><tspan id="SvgjsTspan3512" dy="16" x="235.5"><tspan id="SvgjsTspan3513" style="text-decoration:;">AuthorizationServerConfig</tspan></tspan></text></g><g id="SvgjsG3514"><text id="SvgjsText3515" font-family="微软雅黑" text-anchor="start" font-size="13px" width="0" fill="#323232" font-weight="400" align="middle" anchor="start" family="微软雅黑" size="13px" weight="400" font-style="" y="35.05" transform="rotate(0)"></text></g><g id="SvgjsG3516"><text id="SvgjsText3517" font-family="微软雅黑" text-anchor="start" font-size="13px" width="421" fill="#323232" font-weight="400" align="middle" anchor="start" family="微软雅黑" size="13px" weight="400" font-style="" y="70.3" transform="rotate(0)"><tspan id="SvgjsTspan3518" dy="16" x="10"><tspan id="SvgjsTspan3519" style="text-decoration:;">tokenStore(): TokenStore </tspan></tspan><tspan id="SvgjsTspan3520" dy="16" x="10"><tspan id="SvgjsTspan3521" style="text-decoration:;">configure(AuthorizationServerEndpointsConfigurer endpoints): void</tspan></tspan></text></g></g><g id="SvgjsG3522" transform="translate(27.206253051757812,1294.3999633789062)"><path id="SvgjsPath3523" d="M 0 4Q 0 0 4 0L 462.3999786376953 0Q 466.3999786376953 0 466.3999786376953 4L 466.3999786376953 88Q 466.3999786376953 92 462.3999786376953 92L 4 92Q 0 92 0 88Z" stroke="#323232" stroke-width="2" fill-opacity="1" fill="#ffffff"></path><path id="SvgjsPath3524" d="M 0 32L 466.3999786376953 32M 0 64L 466.3999786376953 64" stroke="#323232" stroke-width="2" fill="none"></path><path id="SvgjsPath3525" d="M 0 0L 466.3999786376953 0L 466.3999786376953 92L 0 92Z" stroke="none" fill="none"></path><g id="SvgjsG3526"><text id="SvgjsText3527" font-family="微软雅黑" text-anchor="middle" font-size="13px" width="255" fill="#323232" font-weight="700" align="middle" anchor="middle" family="微软雅黑" size="13px" weight="700" font-style="" y="6.05" transform="rotate(0)"><tspan id="SvgjsTspan3528" dy="16" x="233.5"><tspan id="SvgjsTspan3529" style="text-decoration:;">AuthorizationServerConfigurerAdapter</tspan></tspan></text></g><g id="SvgjsG3530"><text id="SvgjsText3531" font-family="微软雅黑" text-anchor="start" font-size="13px" width="0" fill="#323232" font-weight="400" align="middle" anchor="start" family="微软雅黑" size="13px" weight="400" font-style="" y="37.05" transform="rotate(0)"></text></g><g id="SvgjsG3532"><text id="SvgjsText3533" font-family="微软雅黑" text-anchor="start" font-size="13px" width="421" fill="#323232" font-weight="400" align="middle" anchor="start" family="微软雅黑" size="13px" weight="400" font-style="" y="69.05" transform="rotate(0)"><tspan id="SvgjsTspan3534" dy="16" x="10"><tspan id="SvgjsTspan3535" style="text-decoration:;">configure(AuthorizationServerEndpointsConfigurer endpoints): void </tspan></tspan></text></g></g><g id="SvgjsG3536"><path id="SvgjsPath3537" d="M260.40624237060547 1452.0499572753906L260.40624237060547 1419.2249603271484L260.40624237060547 1419.2249603271484L260.40624237060547 1386.3999633789062" stroke="#323232" stroke-width="2" fill="none" marker-end="url(#SvgjsMarker3538)"></path></g><g id="SvgjsG3540" transform="translate(27.206253051757812,1174.3999633789062)"><path id="SvgjsPath3541" d="M 0 4Q 0 0 4 0L 462.3999786376953 0Q 466.3999786376953 0 466.3999786376953 4L 466.3999786376953 56Q 466.3999786376953 60 462.3999786376953 60L 4 60Q 0 60 0 56Z" stroke="#323232" stroke-width="2" fill-opacity="1" fill="#ffffff"></path><path id="SvgjsPath3542" d="M 0 30L 466.3999786376953 30" stroke="#323232" stroke-width="2" fill="none"></path><path id="SvgjsPath3543" d="M 0 0L 466.3999786376953 0L 466.3999786376953 60L 0 60Z" stroke="none" fill="none"></path><g id="SvgjsG3544"><text id="SvgjsText3545" font-family="微软雅黑" text-anchor="middle" font-size="13px" width="202" fill="#323232" font-weight="700" align="middle" anchor="middle" family="微软雅黑" size="13px" weight="700" font-style="" y="5.05" transform="rotate(0)"><tspan id="SvgjsTspan3546" dy="16" x="233.5"><tspan id="SvgjsTspan3547" style="text-decoration:;">AuthorizationServerConfigurer</tspan></tspan></text></g><g id="SvgjsG3548"><text id="SvgjsText3549" font-family="微软雅黑" text-anchor="start" font-size="13px" width="385" fill="#323232" font-weight="400" align="middle" anchor="start" family="微软雅黑" size="13px" weight="400" font-style="" y="35.05" transform="rotate(0)"><tspan id="SvgjsTspan3550" dy="16" x="10"><tspan id="SvgjsTspan3551" style="text-decoration:;">configure(AuthorizationServerEndpointsConfigurer var1): void</tspan></tspan></text></g></g><g id="SvgjsG3552"><path id="SvgjsPath3553" d="M260.40624237060547 1294.3999633789062L260.40624237060547 1264.3999633789062L260.40624237060547 1264.3999633789062L260.40624237060547 1234.3999633789062" stroke-dasharray="8,5" stroke="#323232" stroke-width="2" fill="none" marker-end="url(#SvgjsMarker3554)"></path></g><g id="SvgjsG3556"><path id="SvgjsPath3557" d="M951.9562435746193 821.199951171875L951.9562435746193 716.699951171875L1195.8062438964844 716.699951171875L1195.8062438964844 340.199951171875" stroke="#323232" stroke-width="2" fill="none" marker-end="url(#SvgjsMarker3558)"></path></g><g id="SvgjsG3560" transform="translate(25.006240844726562,971.6249618530273)"><path id="SvgjsPath3561" d="M 0 4Q 0 0 4 0L 494.8000030517578 0Q 498.8000030517578 0 498.8000030517578 4L 498.8000030517578 93.34999084472656Q 498.8000030517578 97.34999084472656 494.8000030517578 97.34999084472656L 4 97.34999084472656Q 0 97.34999084472656 0 93.34999084472656Z" stroke="#323232" stroke-width="2" fill-opacity="1" fill="#ffffff"></path><path id="SvgjsPath3562" d="M 0 30L 498.8000030517578 30M 0 60L 498.8000030517578 60" stroke="#323232" stroke-width="2" fill="none"></path><path id="SvgjsPath3563" d="M 0 0L 498.8000030517578 0L 498.8000030517578 97.34999084472656L 0 97.34999084472656Z" stroke="none" fill="none"></path><g id="SvgjsG3564"><text id="SvgjsText3565" font-family="微软雅黑" text-anchor="middle" font-size="13px" width="201" fill="#323232" font-weight="700" align="middle" anchor="middle" family="微软雅黑" size="13px" weight="700" font-style="" y="5.05" transform="rotate(0)"><tspan id="SvgjsTspan3566" dy="16" x="249.5"><tspan id="SvgjsTspan3567" style="text-decoration:;">ClientCredentialsTokenGranter</tspan></tspan></text></g><g id="SvgjsG3568"><text id="SvgjsText3569" font-family="微软雅黑" text-anchor="start" font-size="13px" width="0" fill="#323232" font-weight="400" align="middle" anchor="start" family="微软雅黑" size="13px" weight="400" font-style="" y="35.05" transform="rotate(0)"></text></g><g id="SvgjsG3570"><text id="SvgjsText3571" font-family="微软雅黑" text-anchor="start" font-size="13px" width="466" fill="#323232" font-weight="400" align="middle" anchor="start" family="微软雅黑" size="13px" weight="400" font-style="" y="65.05" transform="rotate(0)"><tspan id="SvgjsTspan3572" dy="16" x="10"><tspan id="SvgjsTspan3573" style="text-decoration:;">grant(String grantType, TokenRequest tokenRequest): OAuth2AccessToken </tspan></tspan></text></g></g><g id="SvgjsG3574"><path id="SvgjsPath3575" d="M672.5562390685081 245.199951171875L672.5562390685081 214.0999526977539L672.5562390685081 214.0999526977539L672.5562390685081 182.9999542236328" stroke="#323232" stroke-width="2" fill="none" marker-end="url(#SvgjsMarker3576)"></path></g><g id="SvgjsG3578" transform="translate(31.806228637695312,1637.2999877929688)"><path id="SvgjsPath3579" d="M 0 4Q 0 0 4 0L 466.8000030517578 0Q 470.8000030517578 0 470.8000030517578 4L 470.8000030517578 67Q 470.8000030517578 71 466.8000030517578 71L 4 71Q 0 71 0 67Z" stroke="#323232" stroke-width="2" fill-opacity="1" fill="#ffffff"></path><path id="SvgjsPath3580" d="M 0 30L 470.8000030517578 30" stroke="#323232" stroke-width="2" fill="none"></path><path id="SvgjsPath3581" d="M 0 0L 470.8000030517578 0L 470.8000030517578 71L 0 71Z" stroke="none" fill="none"></path><g id="SvgjsG3582"><text id="SvgjsText3583" font-family="微软雅黑" text-anchor="middle" font-size="13px" width="188" fill="#323232" font-weight="700" align="middle" anchor="middle" family="微软雅黑" size="13px" weight="700" font-style="" y="5.05" transform="rotate(0)"><tspan id="SvgjsTspan3584" dy="16" x="235.5"><tspan id="SvgjsTspan3585" style="text-decoration:;">AuthenticationKeyGenerator</tspan></tspan></text></g><g id="SvgjsG3586"><text id="SvgjsText3587" font-family="微软雅黑" text-anchor="start" font-size="13px" width="288" fill="#323232" font-weight="400" align="middle" anchor="start" family="微软雅黑" size="13px" weight="400" font-style="" y="40.55" transform="rotate(0)"><tspan id="SvgjsTspan3588" dy="16" x="10"><tspan id="SvgjsTspan3589" style="text-decoration:;">extractKey(OAuth2Authentication var1): String </tspan></tspan></text></g></g><g id="SvgjsG3590" transform="translate(34.00624084472656,1767.199951171875)"><path id="SvgjsPath3591" d="M 0 4Q 0 0 4 0L 462.3999786376953 0Q 466.3999786376953 0 466.3999786376953 4L 466.3999786376953 106Q 466.3999786376953 110 462.3999786376953 110L 4 110Q 0 110 0 106Z" stroke="#323232" stroke-width="2" fill-opacity="1" fill="#ffffff"></path><path id="SvgjsPath3592" d="M 0 32L 466.3999786376953 32M 0 64L 466.3999786376953 64" stroke="#323232" stroke-width="2" fill="none"></path><path id="SvgjsPath3593" d="M 0 0L 466.3999786376953 0L 466.3999786376953 110L 0 110Z" stroke="none" fill="none"></path><g id="SvgjsG3594"><text id="SvgjsText3595" font-family="微软雅黑" text-anchor="middle" font-size="13px" width="242" fill="#323232" font-weight="700" align="middle" anchor="middle" family="微软雅黑" size="13px" weight="700" font-style="" y="6.05" transform="rotate(0)"><tspan id="SvgjsTspan3596" dy="16" x="233.5"><tspan id="SvgjsTspan3597" style="text-decoration:;">RandomAuthenticationKeyGenerator</tspan></tspan></text></g><g id="SvgjsG3598"><text id="SvgjsText3599" font-family="微软雅黑" text-anchor="start" font-size="13px" width="0" fill="#323232" font-weight="400" align="middle" anchor="start" family="微软雅黑" size="13px" weight="400" font-style="" y="37.05" transform="rotate(0)"></text></g><g id="SvgjsG3600"><text id="SvgjsText3601" font-family="微软雅黑" text-anchor="start" font-size="13px" width="352" fill="#323232" font-weight="400" align="middle" anchor="start" family="微软雅黑" size="13px" weight="400" font-style="" y="70.05" transform="rotate(0)"><tspan id="SvgjsTspan3602" dy="16" x="10"><tspan id="SvgjsTspan3603" style="text-decoration:;">extractKey(OAuth2Authentication authentication): String </tspan></tspan></text></g></g><g id="SvgjsG3604"><path id="SvgjsPath3605" d="M614.1062432527542 1673.8840613419143L502.6062316894531 1672.7999877929688" stroke="#323232" stroke-width="2" fill="none" marker-end="url(#SvgjsMarker3606)"></path></g><g id="SvgjsG3608"><path id="SvgjsPath3609" d="M267.2062301635742 1767.199951171875L267.2062301635742 1708.2999877929688" stroke-dasharray="8,5" stroke="#323232" stroke-width="2" fill="none" marker-end="url(#SvgjsMarker3610)"></path></g><g id="SvgjsG3612"><path id="SvgjsPath3613" d="M523.8062438964844 1020.2999572753906L614.1062432527542 1020.2999572753906" stroke="#323232" stroke-width="2" fill="none" marker-end="url(#SvgjsMarker3614)"></path></g><g id="SvgjsG3616"><path id="SvgjsPath3617" d="M951.9562435746193 967.8999633789062C 404.8062438964844 815.5999450683594 490.8062438964844 1004.5999450683594 360.2326674601333 471.7808082828594" stroke="#323232" stroke-width="2" fill="none" marker-end="url(#SvgjsMarker3618)"></path></g><g id="SvgjsG3620"><path id="SvgjsPath3621" d="M614.1062432527542 1508.2999572753906C 566.7862435102463 1508.2999572753906 543.1262436389923 1508.2999572753906 495.8062438964844 1508.2999572753906" stroke="#323232" stroke-width="2" fill="none" marker-end="url(#SvgjsMarker3622)"></path></g></svg>