<svg id="SvgjsSvg1354" width="886" height="1033" xmlns="http://www.w3.org/2000/svg" version="1.1" xmlns:xlink="http://www.w3.org/1999/xlink" xmlns:svgjs="http://svgjs.com/svgjs"><defs id="SvgjsDefs1355"><marker id="SvgjsMarker1450" markerWidth="16" markerHeight="16" refX="11" refY="8" viewBox="0 0 16 16" orient="auto" markerUnits="userSpaceOnUse"><path id="SvgjsPath1451" d="M0,0 L10,8 L0,16" fill="none" stroke="#323232" stroke-width="2"></path></marker><marker id="SvgjsMarker1454" markerWidth="16" markerHeight="16" refX="11" refY="8" viewBox="0 0 16 16" orient="auto" markerUnits="userSpaceOnUse"><path id="SvgjsPath1455" d="M0,0 L10,8 L0,16" fill="none" stroke="#323232" stroke-width="2"></path></marker><marker id="SvgjsMarker1458" markerWidth="16" markerHeight="16" refX="11" refY="8" viewBox="0 0 16 16" orient="auto" markerUnits="userSpaceOnUse"><path id="SvgjsPath1459" d="M0,0 L10,8 L0,16" fill="none" stroke="#323232" stroke-width="2"></path></marker><marker id="SvgjsMarker1462" markerWidth="14" markerHeight="12" refX="16" refY="6" viewBox="0 0 14 12" orient="auto" markerUnits="userSpaceOnUse"><path id="SvgjsPath1463" d="M1,1 L14,6 L1,11L1,1" fill="#ffffff" stroke="#323232" stroke-width="2"></path></marker><marker id="SvgjsMarker1522" markerWidth="14" markerHeight="12" refX="16" refY="6" viewBox="0 0 14 12" orient="auto" markerUnits="userSpaceOnUse"><path id="SvgjsPath1523" d="M1,1 L14,6 L1,11L1,1" fill="#ffffff" stroke="#323232" stroke-width="2"></path></marker><marker id="SvgjsMarker1526" markerWidth="14" markerHeight="12" refX="16" refY="6" viewBox="0 0 14 12" orient="auto" markerUnits="userSpaceOnUse"><path id="SvgjsPath1527" d="M1,1 L14,6 L1,11L1,1" fill="#ffffff" stroke="#323232" stroke-width="2"></path></marker></defs><g id="SvgjsG1356" transform="translate(181,25)"><path id="SvgjsPath1357" d="M 0 4Q 0 0 4 0L 604 0Q 608 0 608 4L 608 140Q 608 144 604 144L 4 144Q 0 144 0 140Z" stroke="#323232" stroke-width="2" fill-opacity="1" fill="#ffffff"></path><path id="SvgjsPath1358" d="M 0 30L 608 30M 0 62L 608 62" stroke="#323232" stroke-width="2" fill="none"></path><path id="SvgjsPath1359" d="M 0 0L 608 0L 608 144L 0 144Z" stroke="none" fill="none"></path><g id="SvgjsG1360"><text id="SvgjsText1361" font-family="微软雅黑" text-anchor="middle" font-size="13px" width="88" fill="#323232" font-weight="700" align="middle" anchor="middle" family="微软雅黑" size="13px" weight="700" font-style="" y="5.05" transform="rotate(0)"><tspan id="SvgjsTspan1362" dy="16" x="304"><tspan id="SvgjsTspan1363" style="text-decoration:;">FileController</tspan></tspan></text></g><g id="SvgjsG1364"><text id="SvgjsText1365" font-family="微软雅黑" text-anchor="start" font-size="13px" width="230" fill="#323232" font-weight="400" align="middle" anchor="start" family="微软雅黑" size="13px" weight="400" font-style="" y="36.05" transform="rotate(0)"><tspan id="SvgjsTspan1366" dy="16" x="10"><tspan id="SvgjsTspan1367" style="text-decoration:;"> fileServiceFactory: FileServiceFactory</tspan></tspan></text></g><g id="SvgjsG1368"><text id="SvgjsText1369" font-family="微软雅黑" text-anchor="start" font-size="13px" width="476" fill="#323232" font-weight="400" align="middle" anchor="start" family="微软雅黑" size="13px" weight="400" font-style="" y="68.05" transform="rotate(0)"><tspan id="SvgjsTspan1370" dy="16" x="10"><tspan id="SvgjsTspan1371" style="text-decoration:;">upload(@RequestParam("file") MultipartFile file, String fileSource): FileInfo </tspan></tspan><tspan id="SvgjsTspan1372" dy="16" x="10"><tspan id="SvgjsTspan1373" style="text-decoration:;">uploadLayui(@RequestParam("file") MultipartFile file, String fileSource): Map&lt;String, Object&gt; </tspan></tspan><tspan id="SvgjsTspan1374" dy="16" x="10"><tspan id="SvgjsTspan1375" style="text-decoration:;">delete(@PathVariable String id): void</tspan></tspan><tspan id="SvgjsTspan1376" dy="16" x="10"><tspan id="SvgjsTspan1377" style="text-decoration:;">findFiles(@RequestParam Map&lt;String, Object&gt; params): Page&lt;FileInfo&gt; </tspan></tspan></text></g></g><g id="SvgjsG1378" transform="translate(130,291)"><path id="SvgjsPath1379" d="M 0 4Q 0 0 4 0L 413 0Q 417 0 417 4L 417 100Q 417 104 413 104L 4 104Q 0 104 0 100Z" stroke="#323232" stroke-width="2" fill-opacity="1" fill="#ffffff"></path><path id="SvgjsPath1380" d="M 0 30L 417 30M 0 62L 417 62" stroke="#323232" stroke-width="2" fill="none"></path><path id="SvgjsPath1381" d="M 0 0L 417 0L 417 104L 0 104Z" stroke="none" fill="none"></path><g id="SvgjsG1382"><text id="SvgjsText1383" font-family="微软雅黑" text-anchor="middle" font-size="13px" width="117" fill="#323232" font-weight="700" align="middle" anchor="middle" family="微软雅黑" size="13px" weight="700" font-style="" y="5.05" transform="rotate(0)"><tspan id="SvgjsTspan1384" dy="16" x="208.5"><tspan id="SvgjsTspan1385" style="text-decoration:;">FileServiceFactory</tspan></tspan></text></g><g id="SvgjsG1386"><text id="SvgjsText1387" font-family="微软雅黑" text-anchor="start" font-size="13px" width="202" fill="#323232" font-weight="400" align="middle" anchor="start" family="微软雅黑" size="13px" weight="400" font-style="" y="28.05" transform="rotate(0)"><tspan id="SvgjsTspan1388" dy="16" x="10"><tspan id="SvgjsTspan1389" style="text-decoration:;">localFileServiceImpl: FileService</tspan></tspan><tspan id="SvgjsTspan1390" dy="16" x="10"><tspan id="SvgjsTspan1391" style="text-decoration:;">aliyunFileServiceImpl: FileService</tspan></tspan></text></g><g id="SvgjsG1392"><text id="SvgjsText1393" font-family="微软雅黑" text-anchor="start" font-size="13px" width="269" fill="#323232" font-weight="400" align="middle" anchor="start" family="微软雅黑" size="13px" weight="400" font-style="" y="68.05" transform="rotate(0)"><tspan id="SvgjsTspan1394" dy="16" x="10"><tspan id="SvgjsTspan1395" style="text-decoration:;">init(): viod</tspan></tspan><tspan id="SvgjsTspan1396" dy="16" x="10"><tspan id="SvgjsTspan1397" style="text-decoration:;">getFileService(String fileSource): FileService</tspan></tspan></text></g></g><g id="SvgjsG1398" transform="translate(625,291)"><path id="SvgjsPath1399" d="M 0 4Q 0 0 4 0L 232 0Q 236 0 236 4L 236 100Q 236 104 232 104L 4 104Q 0 104 0 100Z" stroke="#323232" stroke-width="2" fill-opacity="1" fill="#ffffff"></path><path id="SvgjsPath1400" d="M 0 30L 236 30M 0 60L 236 60" stroke="#323232" stroke-width="2" fill="none"></path><path id="SvgjsPath1401" d="M 0 0L 236 0L 236 104L 0 104Z" stroke="none" fill="none"></path><g id="SvgjsG1402"><text id="SvgjsText1403" font-family="微软雅黑" text-anchor="middle" font-size="13px" width="49" fill="#323232" font-weight="700" align="middle" anchor="middle" family="微软雅黑" size="13px" weight="700" font-style="" y="5.05" transform="rotate(0)"><tspan id="SvgjsTspan1404" dy="16" x="118"><tspan id="SvgjsTspan1405" style="text-decoration:;">FileInfo</tspan></tspan></text></g><g id="SvgjsG1406"><text id="SvgjsText1407" font-family="微软雅黑" text-anchor="start" font-size="13px" width="0" fill="#323232" font-weight="400" align="middle" anchor="start" family="微软雅黑" size="13px" weight="400" font-style="" y="35.05" transform="rotate(0)"></text></g><g id="SvgjsG1408"><text id="SvgjsText1409" font-family="微软雅黑" text-anchor="start" font-size="13px" width="0" fill="#323232" font-weight="400" align="middle" anchor="start" family="微软雅黑" size="13px" weight="400" font-style="" y="65.05" transform="rotate(0)"></text></g></g><g id="SvgjsG1410" transform="translate(130,457)"><path id="SvgjsPath1411" d="M 0 4Q 0 0 4 0L 413 0Q 417 0 417 4L 417 69Q 417 73 413 73L 4 73Q 0 73 0 69Z" stroke="#323232" stroke-width="2" fill-opacity="1" fill="#ffffff"></path><path id="SvgjsPath1412" d="M 0 30L 417 30" stroke="#323232" stroke-width="2" fill="none"></path><path id="SvgjsPath1413" d="M 0 0L 417 0L 417 73L 0 73Z" stroke="none" fill="none"></path><g id="SvgjsG1414"><text id="SvgjsText1415" font-family="微软雅黑" text-anchor="middle" font-size="13px" width="69" fill="#323232" font-weight="700" align="middle" anchor="middle" family="微软雅黑" size="13px" weight="700" font-style="" y="5.05" transform="rotate(0)"><tspan id="SvgjsTspan1416" dy="16" x="208.5"><tspan id="SvgjsTspan1417" style="text-decoration:;">FileService</tspan></tspan></text></g><g id="SvgjsG1418"><text id="SvgjsText1419" font-family="微软雅黑" text-anchor="start" font-size="13px" width="216" fill="#323232" font-weight="400" align="middle" anchor="start" family="微软雅黑" size="13px" weight="400" font-style="" y="33.55" transform="rotate(0)"><tspan id="SvgjsTspan1420" dy="16" x="10"><tspan id="SvgjsTspan1421" style="text-decoration:;">upload(MultipartFile file)： FileInfo </tspan></tspan><tspan id="SvgjsTspan1422" dy="16" x="10"><tspan id="SvgjsTspan1423" style="text-decoration:;">delete(FileInfo fileInfo): void</tspan></tspan></text></g></g><g id="SvgjsG1424" transform="translate(127,594)"><path id="SvgjsPath1425" d="M 0 4Q 0 0 4 0L 419 0Q 423 0 423 4L 423 156Q 423 160 419 160L 4 160Q 0 160 0 156Z" stroke="#323232" stroke-width="2" fill-opacity="1" fill="#ffffff"></path><path id="SvgjsPath1426" d="M 0 30L 423 30M 0 60L 423 60" stroke="#323232" stroke-width="2" fill="none"></path><path id="SvgjsPath1427" d="M 0 0L 423 0L 423 160L 0 160Z" stroke="none" fill="none"></path><g id="SvgjsG1428"><text id="SvgjsText1429" font-family="微软雅黑" text-anchor="middle" font-size="13px" width="124" fill="#323232" font-weight="700" align="middle" anchor="middle" family="微软雅黑" size="13px" weight="700" font-style="" y="5.05" transform="rotate(0)"><tspan id="SvgjsTspan1430" dy="16" x="211.5"><tspan id="SvgjsTspan1431" style="text-decoration:;">AbstractFileService</tspan></tspan></text></g><g id="SvgjsG1432"><text id="SvgjsText1433" font-family="微软雅黑" text-anchor="start" font-size="13px" width="0" fill="#323232" font-weight="400" align="middle" anchor="start" family="微软雅黑" size="13px" weight="400" font-style="" y="35.05" transform="rotate(0)"></text></g><g id="SvgjsG1434"><text id="SvgjsText1435" font-family="微软雅黑" text-anchor="start" font-size="13px" width="309" fill="#323232" font-weight="400" align="middle" anchor="start" family="微软雅黑" size="13px" weight="400" font-style="" y="58.05" transform="rotate(0)"><tspan id="SvgjsTspan1436" dy="16" x="10"><tspan id="SvgjsTspan1437" style="text-decoration:;">getFileDao(): FileDao </tspan></tspan><tspan id="SvgjsTspan1438" dy="16" x="10"><tspan id="SvgjsTspan1439" style="text-decoration:;">upload(MultipartFile file): FileInfo</tspan></tspan><tspan id="SvgjsTspan1440" dy="16" x="10"><tspan id="SvgjsTspan1441" style="text-decoration:;">fileSource(): FileSource </tspan></tspan><tspan id="SvgjsTspan1442" dy="16" x="10"><tspan id="SvgjsTspan1443" style="text-decoration:;">uploadFile(MultipartFile file, FileInfo fileInfo): void</tspan></tspan><tspan id="SvgjsTspan1444" dy="16" x="10"><tspan id="SvgjsTspan1445" style="text-decoration:;">deleteFile(FileInfo fileInfo): viod</tspan></tspan><tspan id="SvgjsTspan1446" dy="16" x="10"><tspan id="SvgjsTspan1447" style="text-decoration:;">deleteFile(FileInfo fileInfo): boolean</tspan></tspan></text></g></g><g id="SvgjsG1448"><path id="SvgjsPath1449" d="M485 169L485 230L338.5 230L338.5 291" stroke="#323232" stroke-width="2" fill="none" marker-end="url(#SvgjsMarker1450)"></path></g><g id="SvgjsG1452"><path id="SvgjsPath1453" d="M485 169L485 230L743 230L743 291" stroke="#323232" stroke-width="2" fill="none" marker-end="url(#SvgjsMarker1454)"></path></g><g id="SvgjsG1456"><path id="SvgjsPath1457" d="M338.5 395L338.5 426L338.5 426L338.5 457" stroke="#323232" stroke-width="2" fill="none" marker-end="url(#SvgjsMarker1458)"></path></g><g id="SvgjsG1460"><path id="SvgjsPath1461" d="M338.5 594L338.5 562L338.5 562L338.5 530" stroke-dasharray="8,5" stroke="#323232" stroke-width="2" fill="none" marker-end="url(#SvgjsMarker1462)"></path></g><g id="SvgjsG1464" transform="translate(25,819)"><path id="SvgjsPath1465" d="M 0 4Q 0 0 4 0L 337 0Q 341 0 341 4L 341 185Q 341 189 337 189L 4 189Q 0 189 0 185Z" stroke="#323232" stroke-width="2" fill-opacity="1" fill="#ffffff"></path><path id="SvgjsPath1466" d="M 0 30L 341 30M 0 96L 341 96" stroke="#323232" stroke-width="2" fill="none"></path><path id="SvgjsPath1467" d="M 0 0L 341 0L 341 189L 0 189Z" stroke="none" fill="none"></path><g id="SvgjsG1468"><text id="SvgjsText1469" font-family="微软雅黑" text-anchor="middle" font-size="13px" width="140" fill="#323232" font-weight="700" align="middle" anchor="middle" family="微软雅黑" size="13px" weight="700" font-style="" y="5.05" transform="rotate(0)"><tspan id="SvgjsTspan1470" dy="16" x="170.5"><tspan id="SvgjsTspan1471" style="text-decoration:;">AliyunFileServiceImpl</tspan></tspan></text></g><g id="SvgjsG1472"><text id="SvgjsText1473" font-family="微软雅黑" text-anchor="start" font-size="13px" width="124" fill="#323232" font-weight="400" align="middle" anchor="start" family="微软雅黑" size="13px" weight="400" font-style="" y="28.05" transform="rotate(0)"><tspan id="SvgjsTspan1474" dy="16" x="10"><tspan id="SvgjsTspan1475" style="text-decoration:;">fileDao: FileDao </tspan></tspan><tspan id="SvgjsTspan1476" dy="16" x="10"><tspan id="SvgjsTspan1477" style="text-decoration:;">ossClient: OSSClient</tspan></tspan><tspan id="SvgjsTspan1478" dy="16" x="10"><tspan id="SvgjsTspan1479" style="text-decoration:;">bucketName:String</tspan></tspan><tspan id="SvgjsTspan1480" dy="16" x="10"><tspan id="SvgjsTspan1481" style="text-decoration:;">domian: String</tspan></tspan></text></g><g id="SvgjsG1482"><text id="SvgjsText1483" font-family="微软雅黑" text-anchor="start" font-size="13px" width="309" fill="#323232" font-weight="400" align="middle" anchor="start" family="微软雅黑" size="13px" weight="400" font-style="" y="106.05" transform="rotate(0)"><tspan id="SvgjsTspan1484" dy="16" x="10"><tspan id="SvgjsTspan1485" style="text-decoration:;">getFileDao(): FileDao </tspan></tspan><tspan id="SvgjsTspan1486" dy="16" x="10"><tspan id="SvgjsTspan1487" style="text-decoration:;">fileSource(): FileSource</tspan></tspan><tspan id="SvgjsTspan1488" dy="16" x="10"><tspan id="SvgjsTspan1489" style="text-decoration:;">uploadFile(MultipartFile file, FileInfo fileInfo): void</tspan></tspan><tspan id="SvgjsTspan1490" dy="16" x="10"><tspan id="SvgjsTspan1491" style="text-decoration:;">deleteFile(FileInfo fileInfo): boolean</tspan></tspan></text></g></g><g id="SvgjsG1492" transform="translate(430,819)"><path id="SvgjsPath1493" d="M 0 4Q 0 0 4 0L 322 0Q 326 0 326 4L 326 185Q 326 189 322 189L 4 189Q 0 189 0 185Z" stroke="#323232" stroke-width="2" fill-opacity="1" fill="#ffffff"></path><path id="SvgjsPath1494" d="M 0 30L 326 30M 0 78L 326 78" stroke="#323232" stroke-width="2" fill="none"></path><path id="SvgjsPath1495" d="M 0 0L 326 0L 326 189L 0 189Z" stroke="none" fill="none"></path><g id="SvgjsG1496"><text id="SvgjsText1497" font-family="微软雅黑" text-anchor="middle" font-size="13px" width="132" fill="#323232" font-weight="700" align="middle" anchor="middle" family="微软雅黑" size="13px" weight="700" font-style="" y="5.05" transform="rotate(0)"><tspan id="SvgjsTspan1498" dy="16" x="163"><tspan id="SvgjsTspan1499" style="text-decoration:;">LocalFileServiceImpl</tspan></tspan></text></g><g id="SvgjsG1500"><text id="SvgjsText1501" font-family="微软雅黑" text-anchor="start" font-size="13px" width="122" fill="#323232" font-weight="400" align="middle" anchor="start" family="微软雅黑" size="13px" weight="400" font-style="" y="28.05" transform="rotate(0)"><tspan id="SvgjsTspan1502" dy="16" x="10"><tspan id="SvgjsTspan1503" style="text-decoration:;">FileDao fileDao</tspan></tspan><tspan id="SvgjsTspan1504" dy="16" x="10"><tspan id="SvgjsTspan1505" style="text-decoration:;">urlPrefix: String</tspan></tspan><tspan id="SvgjsTspan1506" dy="16" x="10"><tspan id="SvgjsTspan1507" style="text-decoration:;">localFilePath: String</tspan></tspan></text></g><g id="SvgjsG1508"><text id="SvgjsText1509" font-family="微软雅黑" text-anchor="start" font-size="13px" width="278" fill="#323232" font-weight="400" align="middle" anchor="start" family="微软雅黑" size="13px" weight="400" font-style="" y="84.05" transform="rotate(0)"><tspan id="SvgjsTspan1510" dy="16" x="10"><tspan id="SvgjsTspan1511" style="text-decoration:;">getFileDao(): FileDao </tspan></tspan><tspan id="SvgjsTspan1512" dy="16" x="10"><tspan id="SvgjsTspan1513" style="text-decoration:;">fileSource(): FileSource</tspan></tspan><tspan id="SvgjsTspan1514" dy="16" x="10"><tspan id="SvgjsTspan1515" style="text-decoration:;">uploadFile(MultipartFile file, FileInfo fileInfo): </tspan></tspan><tspan id="SvgjsTspan1516" dy="16" x="10"><tspan id="SvgjsTspan1517" style="text-decoration:;">void</tspan></tspan><tspan id="SvgjsTspan1518" dy="16" x="10"><tspan id="SvgjsTspan1519" style="text-decoration:;">deleteFile(FileInfo fileInfo): boolean</tspan></tspan></text></g></g><g id="SvgjsG1520"><path id="SvgjsPath1521" d="M195.5 819L195.5 786.5L338.5 786.5L338.5 754" stroke="#323232" stroke-width="2" fill="none" marker-end="url(#SvgjsMarker1522)"></path></g><g id="SvgjsG1524"><path id="SvgjsPath1525" d="M593 819L593 786.5L338.5 786.5L338.5 754" stroke="#323232" stroke-width="2" fill="none" marker-end="url(#SvgjsMarker1526)"></path></g></svg>