<svg id="SvgjsSvg1796" width="916" height="478" xmlns="http://www.w3.org/2000/svg" version="1.1" xmlns:xlink="http://www.w3.org/1999/xlink" xmlns:svgjs="http://svgjs.com/svgjs"><defs id="SvgjsDefs1797"><marker id="SvgjsMarker1834" markerWidth="14" markerHeight="12" refX="16" refY="6" viewBox="0 0 14 12" orient="auto" markerUnits="userSpaceOnUse"><path id="SvgjsPath1835" d="M1,1 L14,6 L1,11L1,1" fill="#ffffff" stroke="#323232" stroke-width="2"></path></marker><marker id="SvgjsMarker1850" markerWidth="14" markerHeight="12" refX="16" refY="6" viewBox="0 0 14 12" orient="auto" markerUnits="userSpaceOnUse"><path id="SvgjsPath1851" d="M1,1 L14,6 L1,11L1,1" fill="#ffffff" stroke="#323232" stroke-width="2"></path></marker><marker id="SvgjsMarker1854" markerWidth="16" markerHeight="16" refX="11" refY="8" viewBox="0 0 16 16" orient="auto" markerUnits="userSpaceOnUse"><path id="SvgjsPath1855" d="M0,0 L10,8 L0,16" fill="none" stroke="#323232" stroke-width="2"></path></marker></defs><g id="SvgjsG1798" transform="translate(501,155)"><path id="SvgjsPath1799" d="M 0 4Q 0 0 4 0L 386 0Q 390 0 390 4L 390 98Q 390 102 386 102L 4 102Q 0 102 0 98Z" stroke="#323232" stroke-width="2" fill-opacity="1" fill="#ffffff"></path><path id="SvgjsPath1800" d="M 0 30L 390 30M 0 62L 390 62" stroke="#323232" stroke-width="2" fill="none"></path><path id="SvgjsPath1801" d="M 0 0L 390 0L 390 102L 0 102Z" stroke="none" fill="none"></path><g id="SvgjsG1802"><text id="SvgjsText1803" font-family="微软雅黑" text-anchor="middle" font-size="13px" width="175" fill="#323232" font-weight="700" align="middle" anchor="middle" family="微软雅黑" size="13px" weight="700" font-style="" y="5.05" transform="rotate(0)"><tspan id="SvgjsTspan1804" dy="16" x="195"><tspan id="SvgjsTspan1805" style="text-decoration:;">AuthorizationServerConfig</tspan></tspan></text></g><g id="SvgjsG1806"><text id="SvgjsText1807" font-family="微软雅黑" text-anchor="start" font-size="13px" width="319" fill="#323232" font-weight="400" align="middle" anchor="start" family="微软雅黑" size="13px" weight="400" font-style="" y="36.05" transform="rotate(0)"><tspan id="SvgjsTspan1808" dy="16" x="10"><tspan id="SvgjsTspan1809" style="text-decoration:;"> redisClientDetailsService: RedisClientDetailsService</tspan></tspan></text></g><g id="SvgjsG1810"><text id="SvgjsText1811" font-family="微软雅黑" text-anchor="start" font-size="13px" width="334" fill="#323232" font-weight="400" align="middle" anchor="start" family="微软雅黑" size="13px" weight="400" font-style="" y="67.05" transform="rotate(0)"><tspan id="SvgjsTspan1812" dy="16" x="10"><tspan id="SvgjsTspan1813" style="text-decoration:;">configure(ClientDetailsServiceConfigurer clients): void</tspan></tspan></text></g></g><g id="SvgjsG1814" transform="translate(27,338)"><path id="SvgjsPath1815" d="M 0 4Q 0 0 4 0L 399 0Q 403 0 403 4L 403 111Q 403 115 399 115L 4 115Q 0 115 0 111Z" stroke="#323232" stroke-width="2" fill-opacity="1" fill="#ffffff"></path><path id="SvgjsPath1816" d="M 0 30L 403 30M 0 60L 403 60" stroke="#323232" stroke-width="2" fill="none"></path><path id="SvgjsPath1817" d="M 0 0L 403 0L 403 115L 0 115Z" stroke="none" fill="none"></path><g id="SvgjsG1818"><text id="SvgjsText1819" font-family="微软雅黑" text-anchor="middle" font-size="13px" width="164" fill="#323232" font-weight="700" align="middle" anchor="middle" family="微软雅黑" size="13px" weight="700" font-style="" y="5.05" transform="rotate(0)"><tspan id="SvgjsTspan1820" dy="16" x="201.5"><tspan id="SvgjsTspan1821" style="text-decoration:;">RedisClientDetailsService</tspan></tspan></text></g><g id="SvgjsG1822"><text id="SvgjsText1823" font-family="微软雅黑" text-anchor="start" font-size="13px" width="0" fill="#323232" font-weight="400" align="middle" anchor="start" family="微软雅黑" size="13px" weight="400" font-style="" y="35.05" transform="rotate(0)"></text></g><g id="SvgjsG1824"><text id="SvgjsText1825" font-family="微软雅黑" text-anchor="start" font-size="13px" width="310" fill="#323232" font-weight="400" align="middle" anchor="start" family="微软雅黑" size="13px" weight="400" font-style="" y="58.05" transform="rotate(0)"><tspan id="SvgjsTspan1826" dy="16" x="10"><tspan id="SvgjsTspan1827" style="text-decoration:;font-size: inherit;">RedisClientDetailsService(DataSource dataSource)</tspan></tspan><tspan id="SvgjsTspan1828" dy="16" x="10"><tspan id="SvgjsTspan1829" style="text-decoration:;">loadClientByClientId(String clientId): ClientDetails</tspan></tspan><tspan id="SvgjsTspan1830" dy="16" x="10"><tspan id="SvgjsTspan1831" style="text-decoration:;">cacheAndGetClient(String clientId): ClientDetails </tspan></tspan></text></g></g><g id="SvgjsG1832"><path id="SvgjsPath1833" d="M228.5 338L228.5 305.5L228.5 305.5L228.5 273" stroke="#323232" stroke-width="2" fill="none" marker-end="url(#SvgjsMarker1834)"></path></g><g id="SvgjsG1836" transform="translate(27,25)"><path id="SvgjsPath1837" d="M 0 4Q 0 0 4 0L 399 0Q 403 0 403 4L 403 64Q 403 68 399 68L 4 68Q 0 68 0 64Z" stroke="#323232" stroke-width="2" fill-opacity="1" fill="#ffffff"></path><path id="SvgjsPath1838" d="M 0 30L 403 30" stroke="#323232" stroke-width="2" fill="none"></path><path id="SvgjsPath1839" d="M 0 0L 403 0L 403 68L 0 68Z" stroke="none" fill="none"></path><g id="SvgjsG1840"><text id="SvgjsText1841" font-family="微软雅黑" text-anchor="middle" font-size="13px" width="129" fill="#323232" font-weight="700" align="middle" anchor="middle" family="微软雅黑" size="13px" weight="700" font-style="" y="5.05" transform="rotate(0)"><tspan id="SvgjsTspan1842" dy="16" x="201.5"><tspan id="SvgjsTspan1843" style="text-decoration:;">ClientDetailsService</tspan></tspan></text></g><g id="SvgjsG1844"><text id="SvgjsText1845" font-family="微软雅黑" text-anchor="start" font-size="13px" width="287" fill="#323232" font-weight="400" align="middle" anchor="start" family="微软雅黑" size="13px" weight="400" font-style="" y="39.05" transform="rotate(0)"><tspan id="SvgjsTspan1846" dy="16" x="10"><tspan id="SvgjsTspan1847" style="text-decoration:;">loadClientByClientId(String var1): ClientDetails </tspan></tspan></text></g></g><g id="SvgjsG1848"><path id="SvgjsPath1849" d="M228.5 154L228.5 123.5L228.5 123.5L228.5 93" stroke-dasharray="8,5" stroke="#323232" stroke-width="2" fill="none" marker-end="url(#SvgjsMarker1850)"></path></g><g id="SvgjsG1852"><path id="SvgjsPath1853" d="M430 206L501 206" stroke="#323232" stroke-width="2" fill="none" marker-end="url(#SvgjsMarker1854)"></path></g><g id="SvgjsG1856" transform="translate(25,158)"><path id="SvgjsPath1857" d="M 0 4Q 0 0 4 0L 403 0Q 407 0 407 4L 407 111Q 407 115 403 115L 4 115Q 0 115 0 111Z" stroke="#323232" stroke-width="2" fill-opacity="1" fill="#ffffff"></path><path id="SvgjsPath1858" d="M 0 30L 407 30M 0 60L 407 60" stroke="#323232" stroke-width="2" fill="none"></path><path id="SvgjsPath1859" d="M 0 0L 407 0L 407 115L 0 115Z" stroke="none" fill="none"></path><g id="SvgjsG1860"><text id="SvgjsText1861" font-family="微软雅黑" text-anchor="middle" font-size="13px" width="159" fill="#323232" font-weight="700" align="middle" anchor="middle" family="微软雅黑" size="13px" weight="700" font-style="" y="5.05" transform="rotate(0)"><tspan id="SvgjsTspan1862" dy="16" x="203.5"><tspan id="SvgjsTspan1863" style="text-decoration:;">JdbcClientDetailsService</tspan></tspan></text></g><g id="SvgjsG1864"><text id="SvgjsText1865" font-family="微软雅黑" text-anchor="start" font-size="13px" width="178" fill="#323232" font-weight="400" align="middle" anchor="start" family="微软雅黑" size="13px" weight="400" font-style="" y="35.05" transform="rotate(0)"><tspan id="SvgjsTspan1866" dy="16" x="10"><tspan id="SvgjsTspan1867" style="text-decoration:;">jdbcTemplate: JdbcTemplate</tspan></tspan></text></g><g id="SvgjsG1868"><text id="SvgjsText1869" font-family="微软雅黑" text-anchor="start" font-size="13px" width="306" fill="#323232" font-weight="400" align="middle" anchor="start" family="微软雅黑" size="13px" weight="400" font-style="" y="74.05" transform="rotate(0)"><tspan id="SvgjsTspan1870" dy="16" x="10"><tspan id="SvgjsTspan1871" style="text-decoration:;">JdbcClientDetailsService(DataSource dataSource)</tspan></tspan><tspan id="SvgjsTspan1872" dy="16" x="10"><tspan id="SvgjsTspan1873" style="text-decoration:;">loadClientByClientId(String clientId): ClientDetails</tspan></tspan></text></g></g></svg>