<svg id="SvgjsSvg1598" width="1175" height="1137" xmlns="http://www.w3.org/2000/svg" version="1.1" xmlns:xlink="http://www.w3.org/1999/xlink" xmlns:svgjs="http://svgjs.com/svgjs"><defs id="SvgjsDefs1599"><marker id="SvgjsMarker1632" markerWidth="16" markerHeight="16" refX="11" refY="8" viewBox="0 0 16 16" orient="auto" markerUnits="userSpaceOnUse"><path id="SvgjsPath1633" d="M0,0 L10,8 L0,16" fill="none" stroke="#323232" stroke-width="2"></path></marker><marker id="SvgjsMarker1654" markerWidth="14" markerHeight="12" refX="16" refY="6" viewBox="0 0 14 12" orient="auto" markerUnits="userSpaceOnUse"><path id="SvgjsPath1655" d="M1,1 L14,6 L1,11L1,1" fill="#ffffff" stroke="#323232" stroke-width="2"></path></marker><marker id="SvgjsMarker1714" markerWidth="16" markerHeight="16" refX="11" refY="8" viewBox="0 0 16 16" orient="auto" markerUnits="userSpaceOnUse"><path id="SvgjsPath1715" d="M0,0 L10,8 L0,16" fill="none" stroke="#323232" stroke-width="2"></path></marker><marker id="SvgjsMarker1718" markerWidth="14" markerHeight="12" refX="16" refY="6" viewBox="0 0 14 12" orient="auto" markerUnits="userSpaceOnUse"><path id="SvgjsPath1719" d="M1,1 L14,6 L1,11L1,1" fill="#ffffff" stroke="#323232" stroke-width="2"></path></marker><marker id="SvgjsMarker1752" markerWidth="16" markerHeight="16" refX="11" refY="8" viewBox="0 0 16 16" orient="auto" markerUnits="userSpaceOnUse"><path id="SvgjsPath1753" d="M0,0 L10,8 L0,16" fill="none" stroke="#323232" stroke-width="2"></path></marker><marker id="SvgjsMarker1756" markerWidth="14" markerHeight="12" refX="16" refY="6" viewBox="0 0 14 12" orient="auto" markerUnits="userSpaceOnUse"><path id="SvgjsPath1757" d="M1,1 L14,6 L1,11L1,1" fill="#ffffff" stroke="#323232" stroke-width="2"></path></marker><marker id="SvgjsMarker1784" markerWidth="16" markerHeight="16" refX="11" refY="8" viewBox="0 0 16 16" orient="auto" markerUnits="userSpaceOnUse"><path id="SvgjsPath1785" d="M0,0 L10,8 L0,16" fill="none" stroke="#323232" stroke-width="2"></path></marker><marker id="SvgjsMarker1788" markerWidth="16" markerHeight="16" refX="11" refY="8" viewBox="0 0 16 16" orient="auto" markerUnits="userSpaceOnUse"><path id="SvgjsPath1789" d="M0,0 L10,8 L0,16" fill="none" stroke="#323232" stroke-width="2"></path></marker><marker id="SvgjsMarker1792" markerWidth="16" markerHeight="16" refX="11" refY="8" viewBox="0 0 16 16" orient="auto" markerUnits="userSpaceOnUse"><path id="SvgjsPath1793" d="M0,0 L10,8 L0,16" fill="none" stroke="#323232" stroke-width="2"></path></marker><marker id="SvgjsMarker1796" markerWidth="14" markerHeight="12" refX="16" refY="6" viewBox="0 0 14 12" orient="auto" markerUnits="userSpaceOnUse"><path id="SvgjsPath1797" d="M1,1 L14,6 L1,11L1,1" fill="#ffffff" stroke="#323232" stroke-width="2"></path></marker></defs><g id="SvgjsG1600" transform="translate(153,25)"><path id="SvgjsPath1601" d="M 0 4Q 0 0 4 0L 904 0Q 908 0 908 4L 908 130Q 908 134 904 134L 4 134Q 0 134 0 130Z" stroke="#323232" stroke-width="2" fill-opacity="1" fill="#ffffff"></path><path id="SvgjsPath1602" d="M 0 32L 908 32M 0 66L 908 66" stroke="#323232" stroke-width="2" fill="none"></path><path id="SvgjsPath1603" d="M 0 0L 908 0L 908 134L 0 134Z" stroke="none" fill="none"></path><g id="SvgjsG1604"><text id="SvgjsText1605" font-family="微软雅黑" text-anchor="middle" font-size="13px" width="252" fill="#323232" font-weight="700" align="middle" anchor="middle" family="微软雅黑" size="13px" weight="700" font-style="" y="6.05" transform="rotate(0)"><tspan id="SvgjsTspan1606" dy="16" x="454"><tspan id="SvgjsTspan1607" style="text-decoration:;">OAuth2AuthenticationProcessingFilter</tspan></tspan></text></g><g id="SvgjsG1608"><text id="SvgjsText1609" font-family="微软雅黑" text-anchor="start" font-size="13px" width="300" fill="#323232" font-weight="400" align="middle" anchor="start" family="微软雅黑" size="13px" weight="400" font-style="" y="30.05" transform="rotate(0)"><tspan id="SvgjsTspan1610" dy="16" x="10"><tspan id="SvgjsTspan1611" style="text-decoration:;">tokenExtractor: TokenExtractor </tspan></tspan><tspan id="SvgjsTspan1612" dy="16" x="10"><tspan id="SvgjsTspan1613" style="text-decoration:;">authenticationManager: AuthenticationManager</tspan></tspan></text></g><g id="SvgjsG1614"><text id="SvgjsText1615" font-family="微软雅黑" text-anchor="start" font-size="13px" width="449" fill="#323232" font-weight="400" align="middle" anchor="start" family="微软雅黑" size="13px" weight="400" font-style="" y="92.05" transform="rotate(0)"><tspan id="SvgjsTspan1616" dy="16" x="10"><tspan id="SvgjsTspan1617" style="text-decoration:;">doFilter(ServletRequest req, ServletResponse res, FilterChain chain): void </tspan></tspan></text></g></g><g id="SvgjsG1618" transform="translate(25,223)"><path id="SvgjsPath1619" d="M 0 4Q 0 0 4 0L 381.5 0Q 385.5 0 385.5 4L 385.5 82Q 385.5 86 381.5 86L 4 86Q 0 86 0 82Z" stroke="#323232" stroke-width="2" fill-opacity="1" fill="#ffffff"></path><path id="SvgjsPath1620" d="M 0 30L 385.5 30" stroke="#323232" stroke-width="2" fill="none"></path><path id="SvgjsPath1621" d="M 0 0L 385.5 0L 385.5 86L 0 86Z" stroke="none" fill="none"></path><g id="SvgjsG1622"><text id="SvgjsText1623" font-family="微软雅黑" text-anchor="middle" font-size="13px" width="100" fill="#323232" font-weight="700" align="middle" anchor="middle" family="微软雅黑" size="13px" weight="700" font-style="" y="5.05" transform="rotate(0)"><tspan id="SvgjsTspan1624" dy="16" x="193"><tspan id="SvgjsTspan1625" style="text-decoration:;">TokenExtractor</tspan></tspan></text></g><g id="SvgjsG1626"><text id="SvgjsText1627" font-family="微软雅黑" text-anchor="start" font-size="13px" width="305" fill="#323232" font-weight="400" align="middle" anchor="start" family="微软雅黑" size="13px" weight="400" font-style="" y="48.05" transform="rotate(0)"><tspan id="SvgjsTspan1628" dy="16" x="10"><tspan id="SvgjsTspan1629" style="text-decoration:;"> extract(HttpServletRequest var1): Authentication</tspan></tspan></text></g></g><g id="SvgjsG1630"><path id="SvgjsPath1631" d="M217.75 223L217.75 191L289.3726235741444 191L289.3726235741444 159" stroke="#323232" stroke-width="2" fill="none" marker-end="url(#SvgjsMarker1632)"></path></g><g id="SvgjsG1634" transform="translate(25,370)"><path id="SvgjsPath1635" d="M 0 4Q 0 0 4 0L 381.5 0Q 385.5 0 385.5 4L 385.5 126Q 385.5 130 381.5 130L 4 130Q 0 130 0 126Z" stroke="#323232" stroke-width="2" fill-opacity="1" fill="#ffffff"></path><path id="SvgjsPath1636" d="M 0 30L 385.5 30M 0 60L 385.5 60" stroke="#323232" stroke-width="2" fill="none"></path><path id="SvgjsPath1637" d="M 0 0L 385.5 0L 385.5 130L 0 130Z" stroke="none" fill="none"></path><g id="SvgjsG1638"><text id="SvgjsText1639" font-family="微软雅黑" text-anchor="middle" font-size="13px" width="142" fill="#323232" font-weight="700" align="middle" anchor="middle" family="微软雅黑" size="13px" weight="700" font-style="" y="5.05" transform="rotate(0)"><tspan id="SvgjsTspan1640" dy="16" x="193"><tspan id="SvgjsTspan1641" style="text-decoration:;">BearerTokenExtractor</tspan></tspan></text></g><g id="SvgjsG1642"><text id="SvgjsText1643" font-family="微软雅黑" text-anchor="start" font-size="13px" width="0" fill="#323232" font-weight="400" align="middle" anchor="start" family="微软雅黑" size="13px" weight="400" font-style="" y="35.05" transform="rotate(0)"></text></g><g id="SvgjsG1644"><text id="SvgjsText1645" font-family="微软雅黑" text-anchor="start" font-size="13px" width="350" fill="#323232" font-weight="400" align="middle" anchor="start" family="微软雅黑" size="13px" weight="400" font-style="" y="66.05" transform="rotate(0)"><tspan id="SvgjsTspan1646" dy="16" x="10"><tspan id="SvgjsTspan1647" style="text-decoration:;">extract(HttpServletRequest request): Authentication </tspan></tspan><tspan id="SvgjsTspan1648" dy="16" x="10"><tspan id="SvgjsTspan1649" style="text-decoration:;">extractToken(HttpServletRequest request): String</tspan></tspan><tspan id="SvgjsTspan1650" dy="16" x="10"><tspan id="SvgjsTspan1651" style="text-decoration:;">extractHeaderToken(HttpServletRequest request): String</tspan></tspan></text></g></g><g id="SvgjsG1652"><path id="SvgjsPath1653" d="M217.75 370L217.75 339.5L217.75 339.5L217.75 309" stroke-dasharray="8,5" stroke="#323232" stroke-width="2" fill="none" marker-end="url(#SvgjsMarker1654)"></path></g><g id="SvgjsG1656" transform="translate(468,223)"><path id="SvgjsPath1657" d="M 0 4Q 0 0 4 0L 336 0Q 340 0 340 4L 340 82Q 340 86 336 86L 4 86Q 0 86 0 82Z" stroke="#323232" stroke-width="2" fill-opacity="1" fill="#ffffff"></path><path id="SvgjsPath1658" d="M 0 30L 340 30" stroke="#323232" stroke-width="2" fill="none"></path><path id="SvgjsPath1659" d="M 0 0L 340 0L 340 86L 0 86Z" stroke="none" fill="none"></path><g id="SvgjsG1660"><text id="SvgjsText1661" font-family="微软雅黑" text-anchor="middle" font-size="13px" width="156" fill="#323232" font-weight="700" align="middle" anchor="middle" family="微软雅黑" size="13px" weight="700" font-style="" y="5.05" transform="rotate(0)"><tspan id="SvgjsTspan1662" dy="16" x="170"><tspan id="SvgjsTspan1663" style="text-decoration:;">AuthenticationManager</tspan></tspan></text></g><g id="SvgjsG1664"><text id="SvgjsText1665" font-family="微软雅黑" text-anchor="start" font-size="13px" width="308" fill="#323232" font-weight="400" align="middle" anchor="start" family="微软雅黑" size="13px" weight="400" font-style="" y="48.05" transform="rotate(0)"><tspan id="SvgjsTspan1666" dy="16" x="10"><tspan id="SvgjsTspan1667" style="text-decoration:;">authenticate(Authentication var1): Authentication </tspan></tspan></text></g></g><g id="SvgjsG1668" transform="translate(437,373)"><path id="SvgjsPath1669" d="M 0 4Q 0 0 4 0L 398 0Q 402 0 402 4L 402 98Q 402 102 398 102L 4 102Q 0 102 0 98Z" stroke="#323232" stroke-width="2" fill-opacity="1" fill="#ffffff"></path><path id="SvgjsPath1670" d="M 0 30L 402 30M 0 62L 402 62" stroke="#323232" stroke-width="2" fill="none"></path><path id="SvgjsPath1671" d="M 0 0L 402 0L 402 102L 0 102Z" stroke="none" fill="none"></path><g id="SvgjsG1672"><text id="SvgjsText1673" font-family="微软雅黑" text-anchor="middle" font-size="13px" width="207" fill="#323232" font-weight="700" align="middle" anchor="middle" family="微软雅黑" size="13px" weight="700" font-style="" y="5.05" transform="rotate(0)"><tspan id="SvgjsTspan1674" dy="16" x="201"><tspan id="SvgjsTspan1675" style="text-decoration:;">OAuth2AuthenticationManager</tspan></tspan></text></g><g id="SvgjsG1676"><text id="SvgjsText1677" font-family="微软雅黑" text-anchor="start" font-size="13px" width="277" fill="#323232" font-weight="400" align="middle" anchor="start" family="微软雅黑" size="13px" weight="400" font-style="" y="35.05" transform="rotate(0)"><tspan id="SvgjsTspan1678" dy="16" x="10"><tspan id="SvgjsTspan1679" style="text-decoration:;">tokenServices: ResourceServerTokenServices </tspan></tspan></text></g><g id="SvgjsG1680"><text id="SvgjsText1681" font-family="微软雅黑" text-anchor="start" font-size="13px" width="368" fill="#323232" font-weight="400" align="middle" anchor="start" family="微软雅黑" size="13px" weight="400" font-style="" y="76.05" transform="rotate(0)"><tspan id="SvgjsTspan1682" dy="16" x="10"><tspan id="SvgjsTspan1683" style="text-decoration:;">Authentication authenticate(Authentication authentication)</tspan></tspan></text></g></g><g id="SvgjsG1684" transform="translate(440,538)"><path id="SvgjsPath1685" d="M 0 4Q 0 0 4 0L 392 0Q 396 0 396 4L 396 60Q 396 64 392 64L 4 64Q 0 64 0 60Z" stroke="#323232" stroke-width="2" fill-opacity="1" fill="#ffffff"></path><path id="SvgjsPath1686" d="M 0 30L 396 30" stroke="#323232" stroke-width="2" fill="none"></path><path id="SvgjsPath1687" d="M 0 0L 396 0L 396 64L 0 64Z" stroke="none" fill="none"></path><g id="SvgjsG1688"><text id="SvgjsText1689" font-family="微软雅黑" text-anchor="middle" font-size="13px" width="195" fill="#323232" font-weight="700" align="middle" anchor="middle" family="微软雅黑" size="13px" weight="700" font-style="" y="5.05" transform="rotate(0)"><tspan id="SvgjsTspan1690" dy="16" x="198"><tspan id="SvgjsTspan1691" style="text-decoration:;">ResourceServerTokenServices</tspan></tspan></text></g><g id="SvgjsG1692"><text id="SvgjsText1693" font-family="微软雅黑" text-anchor="start" font-size="13px" width="352" fill="#323232" font-weight="400" align="middle" anchor="start" family="微软雅黑" size="13px" weight="400" font-style="" y="37.05" transform="rotate(0)"><tspan id="SvgjsTspan1694" dy="16" x="10"><tspan id="SvgjsTspan1695" style="text-decoration:;">loadAuthentication(String var1)： OAuth2Authentication</tspan></tspan></text></g></g><g id="SvgjsG1696" transform="translate(410.5,666)"><path id="SvgjsPath1697" d="M 0 4Q 0 0 4 0L 451 0Q 455 0 455 4L 455 134Q 455 138 451 138L 4 138Q 0 138 0 134Z" stroke="#323232" stroke-width="2" fill-opacity="1" fill="#ffffff"></path><path id="SvgjsPath1698" d="M 0 30L 455 30M 0 60L 455 60" stroke="#323232" stroke-width="2" fill="none"></path><path id="SvgjsPath1699" d="M 0 0L 455 0L 455 138L 0 138Z" stroke="none" fill="none"></path><g id="SvgjsG1700"><text id="SvgjsText1701" font-family="微软雅黑" text-anchor="middle" font-size="13px" width="142" fill="#323232" font-weight="700" align="middle" anchor="middle" family="微软雅黑" size="13px" weight="700" font-style="" y="5.05" transform="rotate(0)"><tspan id="SvgjsTspan1702" dy="16" x="227.5"><tspan id="SvgjsTspan1703" style="text-decoration:;">DefaultTokenServices</tspan></tspan></text></g><g id="SvgjsG1704"><text id="SvgjsText1705" font-family="微软雅黑" text-anchor="start" font-size="13px" width="146" fill="#323232" font-weight="400" align="middle" anchor="start" family="微软雅黑" size="13px" weight="400" font-style="" y="35.05" transform="rotate(0)"><tspan id="SvgjsTspan1706" dy="16" x="10"><tspan id="SvgjsTspan1707" style="text-decoration:;">tokenStore: TokenStore </tspan></tspan></text></g><g id="SvgjsG1708"><text id="SvgjsText1709" font-family="微软雅黑" text-anchor="start" font-size="13px" width="428" fill="#323232" font-weight="400" align="middle" anchor="start" family="微软雅黑" size="13px" weight="400" font-style="" y="65.05" transform="rotate(0)"><tspan id="SvgjsTspan1710" dy="16" x="10"><tspan id="SvgjsTspan1711" style="text-decoration:;">loadAuthentication(String accessTokenValue): OAuth2Authentication </tspan></tspan></text></g></g><g id="SvgjsG1712"><path id="SvgjsPath1713" d="M638 538L638 506.5L638 506.5L638 475" stroke="#323232" stroke-width="2" fill="none" marker-end="url(#SvgjsMarker1714)"></path></g><g id="SvgjsG1716"><path id="SvgjsPath1717" d="M638 666L638 634L638 634L638 602" stroke-dasharray="8,5" stroke="#323232" stroke-width="2" fill="none" marker-end="url(#SvgjsMarker1718)"></path></g><g id="SvgjsG1720" transform="translate(405.375,864)"><path id="SvgjsPath1721" d="M 0 4Q 0 0 4 0L 461.25 0Q 465.25 0 465.25 4L 465.25 78Q 465.25 82 461.25 82L 4 82Q 0 82 0 78Z" stroke="#323232" stroke-width="2" fill-opacity="1" fill="#ffffff"></path><path id="SvgjsPath1722" d="M 0 30L 465.25 30" stroke="#323232" stroke-width="2" fill="none"></path><path id="SvgjsPath1723" d="M 0 0L 465.25 0L 465.25 82L 0 82Z" stroke="none" fill="none"></path><g id="SvgjsG1724"><text id="SvgjsText1725" font-family="微软雅黑" text-anchor="middle" font-size="13px" width="75" fill="#323232" font-weight="700" align="middle" anchor="middle" family="微软雅黑" size="13px" weight="700" font-style="" y="5.05" transform="rotate(0)"><tspan id="SvgjsTspan1726" dy="16" x="233"><tspan id="SvgjsTspan1727" style="text-decoration:;">TokenStore </tspan></tspan></text></g><g id="SvgjsG1728"><text id="SvgjsText1729" font-family="微软雅黑" text-anchor="start" font-size="13px" width="434" fill="#323232" font-weight="400" align="middle" anchor="start" family="微软雅黑" size="13px" weight="400" font-style="" y="38.05" transform="rotate(0)"><tspan id="SvgjsTspan1730" dy="16" x="10"><tspan id="SvgjsTspan1731" style="text-decoration:;">readAccessToken(String var1): OAuth2AccessToken </tspan></tspan><tspan id="SvgjsTspan1732" dy="16" x="10"><tspan id="SvgjsTspan1733" style="text-decoration:;">readAuthentication(OAuth2AccessToken var1): OAuth2Authentication</tspan></tspan></text></g></g><g id="SvgjsG1734" transform="translate(403.9375,1010)"><path id="SvgjsPath1735" d="M 0 4Q 0 0 4 0L 464.125 0Q 468.125 0 468.125 4L 468.125 98Q 468.125 102 464.125 102L 4 102Q 0 102 0 98Z" stroke="#323232" stroke-width="2" fill-opacity="1" fill="#ffffff"></path><path id="SvgjsPath1736" d="M 0 30L 468.125 30M 0 60L 468.125 60" stroke="#323232" stroke-width="2" fill="none"></path><path id="SvgjsPath1737" d="M 0 0L 468.125 0L 468.125 102L 0 102Z" stroke="none" fill="none"></path><g id="SvgjsG1738"><text id="SvgjsText1739" font-family="微软雅黑" text-anchor="middle" font-size="13px" width="110" fill="#323232" font-weight="700" align="middle" anchor="middle" family="微软雅黑" size="13px" weight="700" font-style="" y="5.05" transform="rotate(0)"><tspan id="SvgjsTspan1740" dy="16" x="234.5"><tspan id="SvgjsTspan1741" style="text-decoration:;">RedisTokenStore</tspan></tspan></text></g><g id="SvgjsG1742"><text id="SvgjsText1743" font-family="微软雅黑" text-anchor="start" font-size="13px" width="0" fill="#323232" font-weight="400" align="middle" anchor="start" family="微软雅黑" size="13px" weight="400" font-style="" y="35.05" transform="rotate(0)"></text></g><g id="SvgjsG1744"><text id="SvgjsText1745" font-family="微软雅黑" text-anchor="start" font-size="13px" width="443" fill="#323232" font-weight="400" align="middle" anchor="start" family="微软雅黑" size="13px" weight="400" font-style="" y="58.05" transform="rotate(0)"><tspan id="SvgjsTspan1746" dy="16" x="10"><tspan id="SvgjsTspan1747" style="text-decoration:;">readAccessToken(String tokenValue): OAuth2AccessToken </tspan></tspan><tspan id="SvgjsTspan1748" dy="16" x="10"><tspan id="SvgjsTspan1749" style="text-decoration:;">readAuthentication(OAuth2AccessToken token): OAuth2Authentication </tspan></tspan></text></g></g><g id="SvgjsG1750"><path id="SvgjsPath1751" d="M638 864L638 834L638 834L638 804" stroke="#323232" stroke-width="2" fill="none" marker-end="url(#SvgjsMarker1752)"></path></g><g id="SvgjsG1754"><path id="SvgjsPath1755" d="M638 1010L638 978L638 978L638 946" stroke-dasharray="8,5" stroke="#323232" stroke-width="2" fill="none" marker-end="url(#SvgjsMarker1756)"></path></g><g id="SvgjsG1758" transform="translate(854,223)"><path id="SvgjsPath1759" d="M 0 4Q 0 0 4 0L 292 0Q 296 0 296 4L 296 82Q 296 86 292 86L 4 86Q 0 86 0 82Z" stroke="#323232" stroke-width="2" fill-opacity="1" fill="#ffffff"></path><path id="SvgjsPath1760" d="M 0 30L 296 30" stroke="#323232" stroke-width="2" fill="none"></path><path id="SvgjsPath1761" d="M 0 0L 296 0L 296 86L 0 86Z" stroke="none" fill="none"></path><g id="SvgjsG1762"><text id="SvgjsText1763" font-family="微软雅黑" text-anchor="middle" font-size="13px" width="149" fill="#323232" font-weight="700" align="middle" anchor="middle" family="微软雅黑" size="13px" weight="700" font-style="" y="5.05" transform="rotate(0)"><tspan id="SvgjsTspan1764" dy="16" x="148"><tspan id="SvgjsTspan1765" style="text-decoration:;">SecurityContextHolder</tspan></tspan></text></g><g id="SvgjsG1766"><text id="SvgjsText1767" font-family="微软雅黑" text-anchor="start" font-size="13px" width="183" fill="#323232" font-weight="400" align="middle" anchor="start" family="微软雅黑" size="13px" weight="400" font-style="" y="48.05" transform="rotate(0)"><tspan id="SvgjsTspan1768" dy="16" x="10"><tspan id="SvgjsTspan1769" style="text-decoration:;">getContext(): SecurityContext </tspan></tspan></text></g></g><g id="SvgjsG1770" transform="translate(854,373)"><path id="SvgjsPath1771" d="M 0 4Q 0 0 4 0L 292 0Q 296 0 296 4L 296 65Q 296 69 292 69L 4 69Q 0 69 0 65Z" stroke="#323232" stroke-width="2" fill-opacity="1" fill="#ffffff"></path><path id="SvgjsPath1772" d="M 0 30L 296 30" stroke="#323232" stroke-width="2" fill="none"></path><path id="SvgjsPath1773" d="M 0 0L 296 0L 296 69L 0 69Z" stroke="none" fill="none"></path><g id="SvgjsG1774"><text id="SvgjsText1775" font-family="微软雅黑" text-anchor="middle" font-size="13px" width="104" fill="#323232" font-weight="700" align="middle" anchor="middle" family="微软雅黑" size="13px" weight="700" font-style="" y="5.05" transform="rotate(0)"><tspan id="SvgjsTspan1776" dy="16" x="148"><tspan id="SvgjsTspan1777" style="text-decoration:;">SecurityContext </tspan></tspan></text></g><g id="SvgjsG1778"><text id="SvgjsText1779" font-family="微软雅黑" text-anchor="start" font-size="13px" width="275" fill="#323232" font-weight="400" align="middle" anchor="start" family="微软雅黑" size="13px" weight="400" font-style="" y="39.55" transform="rotate(0)"><tspan id="SvgjsTspan1780" dy="16" x="10"><tspan id="SvgjsTspan1781" style="text-decoration:;">setAuthentication(Authentication var1): void</tspan></tspan></text></g></g><g id="SvgjsG1782"><path id="SvgjsPath1783" d="M1002 373L1002 309" stroke="#323232" stroke-width="2" fill="none" marker-end="url(#SvgjsMarker1784)"></path></g><g id="SvgjsG1786"><path id="SvgjsPath1787" d="M1002 223L1002 191L950 191L950 159" stroke="#323232" stroke-width="2" fill="none" marker-end="url(#SvgjsMarker1788)"></path></g><g id="SvgjsG1790"><path id="SvgjsPath1791" d="M638 223L639 159" stroke="#323232" stroke-width="2" fill="none" marker-end="url(#SvgjsMarker1792)"></path></g><g id="SvgjsG1794"><path id="SvgjsPath1795" d="M638 373L638 309" stroke-dasharray="8,5" stroke="#323232" stroke-width="2" fill="none" marker-end="url(#SvgjsMarker1796)"></path></g></svg>