<svg id="SvgjsSvg1342" width="1317.0999755859375" height="989.2000732421875" xmlns="http://www.w3.org/2000/svg" version="1.1" xmlns:xlink="http://www.w3.org/1999/xlink" xmlns:svgjs="http://svgjs.com/svgjs"><defs id="SvgjsDefs1343"><marker id="SvgjsMarker1394" markerWidth="14" markerHeight="12" refX="16" refY="6" viewBox="0 0 14 12" orient="auto" markerUnits="userSpaceOnUse"><path id="SvgjsPath1395" d="M1,1 L14,6 L1,11L1,1" fill="#ffffff" stroke="#323232" stroke-width="2"></path></marker><marker id="SvgjsMarker1398" markerWidth="14" markerHeight="12" refX="16" refY="6" viewBox="0 0 14 12" orient="auto" markerUnits="userSpaceOnUse"><path id="SvgjsPath1399" d="M1,1 L14,6 L1,11L1,1" fill="#ffffff" stroke="#323232" stroke-width="2"></path></marker><marker id="SvgjsMarker1402" markerWidth="16" markerHeight="16" refX="11" refY="8" viewBox="0 0 16 16" orient="auto" markerUnits="userSpaceOnUse"><path id="SvgjsPath1403" d="M0,0 L10,8 L0,16" fill="none" stroke="#323232" stroke-width="2"></path></marker><marker id="SvgjsMarker1430" markerWidth="16" markerHeight="16" refX="11" refY="8" viewBox="0 0 16 16" orient="auto" markerUnits="userSpaceOnUse"><path id="SvgjsPath1431" d="M0,0 L10,8 L0,16" fill="none" stroke="#323232" stroke-width="2"></path></marker><marker id="SvgjsMarker1466" markerWidth="14" markerHeight="12" refX="16" refY="6" viewBox="0 0 14 12" orient="auto" markerUnits="userSpaceOnUse"><path id="SvgjsPath1467" d="M1,1 L14,6 L1,11L1,1" fill="#ffffff" stroke="#323232" stroke-width="2"></path></marker><marker id="SvgjsMarker1500" markerWidth="14" markerHeight="12" refX="16" refY="6" viewBox="0 0 14 12" orient="auto" markerUnits="userSpaceOnUse"><path id="SvgjsPath1501" d="M1,1 L14,6 L1,11L1,1" fill="#ffffff" stroke="#323232" stroke-width="2"></path></marker><marker id="SvgjsMarker1504" markerWidth="14" markerHeight="12" refX="16" refY="6" viewBox="0 0 14 12" orient="auto" markerUnits="userSpaceOnUse"><path id="SvgjsPath1505" d="M1,1 L14,6 L1,11L1,1" fill="#ffffff" stroke="#323232" stroke-width="2"></path></marker><marker id="SvgjsMarker1508" markerWidth="16" markerHeight="16" refX="11" refY="8" viewBox="0 0 16 16" orient="auto" markerUnits="userSpaceOnUse"><path id="SvgjsPath1509" d="M0,0 L10,8 L0,16" fill="none" stroke="#323232" stroke-width="2"></path></marker></defs><g id="SvgjsG1344" transform="translate(64.75,186)"><path id="SvgjsPath1345" d="M 0 4Q 0 0 4 0L 398 0Q 402 0 402 4L 402 86Q 402 90 398 90L 4 90Q 0 90 0 86Z" stroke="#323232" stroke-width="2" fill-opacity="1" fill="#ffffff"></path><path id="SvgjsPath1346" d="M 0 30L 402 30M 0 60L 402 60" stroke="#323232" stroke-width="2" fill="none"></path><path id="SvgjsPath1347" d="M 0 0L 402 0L 402 90L 0 90Z" stroke="none" fill="none"></path><g id="SvgjsG1348"><text id="SvgjsText1349" font-family="微软雅黑" text-anchor="middle" font-size="13px" width="207" fill="#323232" font-weight="700" align="middle" anchor="middle" family="微软雅黑" size="13px" weight="700" font-style="" y="5.05" transform="rotate(0)"><tspan id="SvgjsTspan1350" dy="16" x="201"><tspan id="SvgjsTspan1351" style="text-decoration:;">OAuth2AuthenticationManager</tspan></tspan></text></g><g id="SvgjsG1352"><text id="SvgjsText1353" font-family="微软雅黑" text-anchor="start" font-size="13px" width="277" fill="#323232" font-weight="400" align="middle" anchor="start" family="微软雅黑" size="13px" weight="400" font-style="" y="35.05" transform="rotate(0)"><tspan id="SvgjsTspan1354" dy="16" x="10"><tspan id="SvgjsTspan1355" style="text-decoration:;">tokenServices: ResourceServerTokenServices </tspan></tspan></text></g><g id="SvgjsG1356"><text id="SvgjsText1357" font-family="微软雅黑" text-anchor="start" font-size="13px" width="371" fill="#323232" font-weight="400" align="middle" anchor="start" family="微软雅黑" size="13px" weight="400" font-style="" y="65.05" transform="rotate(0)"><tspan id="SvgjsTspan1358" dy="16" x="10"><tspan id="SvgjsTspan1359" style="text-decoration:;">authenticate(Authentication authentication): Authentication </tspan></tspan></text></g></g><g id="SvgjsG1360" transform="translate(64.75,335.20000076293945)"><path id="SvgjsPath1361" d="M 0 4Q 0 0 4 0L 398 0Q 402 0 402 4L 402 58.79999923706055Q 402 62.79999923706055 398 62.79999923706055L 4 62.79999923706055Q 0 62.79999923706055 0 58.79999923706055Z" stroke="#323232" stroke-width="2" fill-opacity="1" fill="#ffffff"></path><path id="SvgjsPath1362" d="M 0 30L 402 30" stroke="#323232" stroke-width="2" fill="none"></path><path id="SvgjsPath1363" d="M 0 0L 402 0L 402 62.79999923706055L 0 62.79999923706055Z" stroke="none" fill="none"></path><g id="SvgjsG1364"><text id="SvgjsText1365" font-family="微软雅黑" text-anchor="middle" font-size="13px" width="195" fill="#323232" font-weight="700" align="middle" anchor="middle" family="微软雅黑" size="13px" weight="700" font-style="" y="5.05" transform="rotate(0)"><tspan id="SvgjsTspan1366" dy="16" x="201"><tspan id="SvgjsTspan1367" style="text-decoration:;">ResourceServerTokenServices</tspan></tspan></text></g><g id="SvgjsG1368"><text id="SvgjsText1369" font-family="微软雅黑" text-anchor="start" font-size="13px" width="352" fill="#323232" font-weight="400" align="middle" anchor="start" family="微软雅黑" size="13px" weight="400" font-style="" y="36.44999961853027" transform="rotate(0)"><tspan id="SvgjsTspan1370" dy="16" x="10"><tspan id="SvgjsTspan1371" style="text-decoration:;">loadAuthentication(String var1)： OAuth2Authentication</tspan></tspan></text></g></g><g id="SvgjsG1372" transform="translate(25,462)"><path id="SvgjsPath1373" d="M 0 4Q 0 0 4 0L 477.5 0Q 481.5 0 481.5 4L 481.5 122.69999694824219Q 481.5 126.69999694824219 477.5 126.69999694824219L 4 126.69999694824219Q 0 126.69999694824219 0 122.69999694824219Z" stroke="#323232" stroke-width="2" fill-opacity="1" fill="#ffffff"></path><path id="SvgjsPath1374" d="M 0 30L 481.5 30M 0 60L 481.5 60" stroke="#323232" stroke-width="2" fill="none"></path><path id="SvgjsPath1375" d="M 0 0L 481.5 0L 481.5 126.69999694824219L 0 126.69999694824219Z" stroke="none" fill="none"></path><g id="SvgjsG1376"><text id="SvgjsText1377" font-family="微软雅黑" text-anchor="middle" font-size="13px" width="150" fill="#323232" font-weight="700" align="middle" anchor="middle" family="微软雅黑" size="13px" weight="700" font-style="" y="5.05" transform="rotate(0)"><tspan id="SvgjsTspan1378" dy="16" x="241"><tspan id="SvgjsTspan1379" style="text-decoration:;">UserInfoTokenServices</tspan></tspan></text></g><g id="SvgjsG1380"><text id="SvgjsText1381" font-family="微软雅黑" text-anchor="start" font-size="13px" width="232" fill="#323232" font-weight="400" align="middle" anchor="start" family="微软雅黑" size="13px" weight="400" font-style="" y="35.05" transform="rotate(0)"><tspan id="SvgjsTspan1382" dy="16" x="10"><tspan id="SvgjsTspan1383" style="text-decoration:;">restTemplate: OAuth2RestOperations </tspan></tspan></text></g><g id="SvgjsG1384"><text id="SvgjsText1385" font-family="微软雅黑" text-anchor="start" font-size="13px" width="394" fill="#323232" font-weight="400" align="middle" anchor="start" family="微软雅黑" size="13px" weight="400" font-style="" y="66.05" transform="rotate(0)"><tspan id="SvgjsTspan1386" dy="16" x="10"><tspan id="SvgjsTspan1387" style="text-decoration:;">loadAuthentication(String accessToken): OAuth2Authentication </tspan></tspan><tspan id="SvgjsTspan1388" dy="16" x="10"><tspan id="SvgjsTspan1389" style="text-decoration:;">getMap(String path, String accessToken): Map&lt;String, Object&gt;</tspan></tspan><tspan id="SvgjsTspan1390" dy="16" x="10"><tspan id="SvgjsTspan1391" style="text-decoration:;">extractAuthentication(Map&lt;String, Object&gt; map): OAuth2Authentication </tspan></tspan></text></g></g><g id="SvgjsG1392"><path id="SvgjsPath1393" d="M265.75 462L265.75 430L265.75 430L265.75 398" stroke-dasharray="8,5" stroke="#323232" stroke-width="2" fill="none" marker-end="url(#SvgjsMarker1394)"></path></g><g id="SvgjsG1396"><path id="SvgjsPath1397" d="M265.75 186L264.5820588953354 123.2857142857143" stroke-dasharray="8,5" stroke="#323232" stroke-width="2" fill="none" marker-end="url(#SvgjsMarker1398)"></path></g><g id="SvgjsG1400"><path id="SvgjsPath1401" d="M265.75 335.20000076293945L265.75 305.6000003814697L265.75 305.6000003814697L265.75 276" stroke="#323232" stroke-width="2" fill="none" marker-end="url(#SvgjsMarker1402)"></path></g><g id="SvgjsG1404" transform="translate(67.20001220703125,25)"><path id="SvgjsPath1405" d="M 0 4Q 0 0 4 0L 393.0999755859375 0Q 397.0999755859375 0 397.0999755859375 4L 397.0999755859375 92Q 397.0999755859375 96 393.0999755859375 96L 4 96Q 0 96 0 92Z" stroke="#323232" stroke-width="2" fill-opacity="1" fill="#ffffff"></path><path id="SvgjsPath1406" d="M 0 30L 397.0999755859375 30" stroke="#323232" stroke-width="2" fill="none"></path><path id="SvgjsPath1407" d="M 0 0L 397.0999755859375 0L 397.0999755859375 96L 0 96Z" stroke="none" fill="none"></path><g id="SvgjsG1408"><text id="SvgjsText1409" font-family="微软雅黑" text-anchor="middle" font-size="13px" width="156" fill="#323232" font-weight="700" align="middle" anchor="middle" family="微软雅黑" size="13px" weight="700" font-style="" y="5.05" transform="rotate(0)"><tspan id="SvgjsTspan1410" dy="16" x="199"><tspan id="SvgjsTspan1411" style="text-decoration:;">AuthenticationManager</tspan></tspan></text></g><g id="SvgjsG1412"><text id="SvgjsText1413" font-family="微软雅黑" text-anchor="start" font-size="13px" width="308" fill="#323232" font-weight="400" align="middle" anchor="start" family="微软雅黑" size="13px" weight="400" font-style="" y="53.05" transform="rotate(0)"><tspan id="SvgjsTspan1414" dy="16" x="10"><tspan id="SvgjsTspan1415" style="text-decoration:;">authenticate(Authentication var1): Authentication </tspan></tspan></text></g></g><g id="SvgjsG1416" transform="translate(571.2999877929688,462)"><path id="SvgjsPath1417" d="M 0 4Q 0 0 4 0L 320.20001220703125 0Q 324.20001220703125 0 324.20001220703125 4L 324.20001220703125 122.69999694824219Q 324.20001220703125 126.69999694824219 320.20001220703125 126.69999694824219L 4 126.69999694824219Q 0 126.69999694824219 0 122.69999694824219Z" stroke="#323232" stroke-width="2" fill-opacity="1" fill="#ffffff"></path><path id="SvgjsPath1418" d="M 0 30L 324.20001220703125 30" stroke="#323232" stroke-width="2" fill="none"></path><path id="SvgjsPath1419" d="M 0 0L 324.20001220703125 0L 324.20001220703125 126.69999694824219L 0 126.69999694824219Z" stroke="none" fill="none"></path><g id="SvgjsG1420"><text id="SvgjsText1421" font-family="微软雅黑" text-anchor="middle" font-size="13px" width="151" fill="#323232" font-weight="700" align="middle" anchor="middle" family="微软雅黑" size="13px" weight="700" font-style="" y="5.05" transform="rotate(0)"><tspan id="SvgjsTspan1422" dy="16" x="162.5"><tspan id="SvgjsTspan1423" style="text-decoration:;">OAuth2RestOperations</tspan></tspan></text></g><g id="SvgjsG1424"><text id="SvgjsText1425" font-family="微软雅黑" text-anchor="start" font-size="13px" width="301" fill="#323232" font-weight="400" align="middle" anchor="start" family="微软雅黑" size="13px" weight="400" font-style="" y="68.39999847412109" transform="rotate(0)"><tspan id="SvgjsTspan1426" dy="16" x="10"><tspan id="SvgjsTspan1427" style="text-decoration:;">getOAuth2ClientContext(): OAuth2ClientContext</tspan></tspan></text></g></g><g id="SvgjsG1428"><path id="SvgjsPath1429" d="M506.5 525.3499984741211L571.2999877929688 525.3499984741211" stroke="#323232" stroke-width="2" fill="none" marker-end="url(#SvgjsMarker1430)"></path></g><g id="SvgjsG1432" transform="translate(635.5,708.2000427246094)"><path id="SvgjsPath1433" d="M 0 4Q 0 0 4 0L 538 0Q 542 0 542 4L 542 87.00001525878906Q 542 91.00001525878906 538 91.00001525878906L 4 91.00001525878906Q 0 91.00001525878906 0 87.00001525878906Z" stroke="#323232" stroke-width="2" fill-opacity="1" fill="#ffffff"></path><path id="SvgjsPath1434" d="M 0 30L 542 30M 0 62L 542 62" stroke="#323232" stroke-width="2" fill="none"></path><path id="SvgjsPath1435" d="M 0 0L 542 0L 542 91.00001525878906L 0 91.00001525878906Z" stroke="none" fill="none"></path><g id="SvgjsG1436"><text id="SvgjsText1437" font-family="微软雅黑" text-anchor="middle" font-size="13px" width="140" fill="#323232" font-weight="700" align="middle" anchor="middle" family="微软雅黑" size="13px" weight="700" font-style="" y="5.05" transform="rotate(0)"><tspan id="SvgjsTspan1438" dy="16" x="271"><tspan id="SvgjsTspan1439" style="text-decoration:;">OAuth2RestTemplate</tspan></tspan></text></g><g id="SvgjsG1440"><text id="SvgjsText1441" font-family="微软雅黑" text-anchor="start" font-size="13px" width="186" fill="#323232" font-weight="400" align="middle" anchor="start" family="微软雅黑" size="13px" weight="400" font-style="" y="35.05" transform="rotate(0)"><tspan id="SvgjsTspan1442" dy="16" x="10"><tspan id="SvgjsTspan1443" style="text-decoration:;">context: OAuth2ClientContext </tspan></tspan></text></g><g id="SvgjsG1444"><text id="SvgjsText1445" font-family="微软雅黑" text-anchor="start" font-size="13px" width="302" fill="#323232" font-weight="400" align="middle" anchor="start" family="微软雅黑" size="13px" weight="400" font-style="" y="67.05" transform="rotate(0)"><tspan id="SvgjsTspan1446" dy="16" x="10"><tspan id="SvgjsTspan1447" style="text-decoration:;">getOAuth2ClientContext(): OAuth2ClientContext</tspan></tspan></text></g></g><g id="SvgjsG1448" transform="translate(934.1000003814697,462)"><path id="SvgjsPath1449" d="M 0 4Q 0 0 4 0L 353.59999656677246 0Q 357.59999656677246 0 357.59999656677246 4L 357.59999656677246 122.69999694824219Q 357.59999656677246 126.69999694824219 353.59999656677246 126.69999694824219L 4 126.69999694824219Q 0 126.69999694824219 0 122.69999694824219Z" stroke="#323232" stroke-width="2" fill-opacity="1" fill="#ffffff"></path><path id="SvgjsPath1450" d="M 0 30L 357.59999656677246 30M 0 60L 357.59999656677246 60" stroke="#323232" stroke-width="2" fill="none"></path><path id="SvgjsPath1451" d="M 0 0L 357.59999656677246 0L 357.59999656677246 126.69999694824219L 0 126.69999694824219Z" stroke="none" fill="none"></path><g id="SvgjsG1452"><text id="SvgjsText1453" font-family="微软雅黑" text-anchor="middle" font-size="13px" width="90" fill="#323232" font-weight="700" align="middle" anchor="middle" family="微软雅黑" size="13px" weight="700" font-style="" y="5.05" transform="rotate(0)"><tspan id="SvgjsTspan1454" dy="16" x="179"><tspan id="SvgjsTspan1455" style="text-decoration:;">RestTemplate</tspan></tspan></text></g><g id="SvgjsG1456"><text id="SvgjsText1457" font-family="微软雅黑" text-anchor="start" font-size="13px" width="0" fill="#323232" font-weight="400" align="middle" anchor="start" family="微软雅黑" size="13px" weight="400" font-style="" y="35.05" transform="rotate(0)"></text></g><g id="SvgjsG1458"><text id="SvgjsText1459" font-family="微软雅黑" text-anchor="start" font-size="13px" width="269" fill="#323232" font-weight="400" align="middle" anchor="start" family="微软雅黑" size="13px" weight="400" font-style="" y="74.05" transform="rotate(0)"><tspan id="SvgjsTspan1460" dy="16" x="10"><tspan id="SvgjsTspan1461" style="text-decoration:;">getForEntity(String url, Class&lt;T&gt; responseType, </tspan></tspan><tspan id="SvgjsTspan1462" dy="16" x="10"><tspan id="SvgjsTspan1463" style="text-decoration:;">Object... uriVariables): &lt;T&gt; ResponseEntity&lt;T&gt; </tspan></tspan></text></g></g><g id="SvgjsG1464"><path id="SvgjsPath1465" d="M906.5 708.2000427246094L906.5 648.4500198364258L733.3999938964844 648.4500198364258L733.3999938964844 588.6999969482422" stroke-dasharray="8,5" stroke="#323232" stroke-width="2" fill="none" marker-end="url(#SvgjsMarker1466)"></path></g><g id="SvgjsG1468" transform="translate(186.75,712.700065612793)"><path id="SvgjsPath1469" d="M 0 4Q 0 0 4 0L 322 0Q 326 0 326 4L 326 77.99996948242188Q 326 81.99996948242188 322 81.99996948242188L 4 81.99996948242188Q 0 81.99996948242188 0 77.99996948242188Z" stroke="#323232" stroke-width="2" fill-opacity="1" fill="#ffffff"></path><path id="SvgjsPath1470" d="M 0 30L 326 30" stroke="#323232" stroke-width="2" fill="none"></path><path id="SvgjsPath1471" d="M 0 0L 326 0L 326 81.99996948242188L 0 81.99996948242188Z" stroke="none" fill="none"></path><g id="SvgjsG1472"><text id="SvgjsText1473" font-family="微软雅黑" text-anchor="middle" font-size="13px" width="140" fill="#323232" font-weight="700" align="middle" anchor="middle" family="微软雅黑" size="13px" weight="700" font-style="" y="5.05" transform="rotate(0)"><tspan id="SvgjsTspan1474" dy="16" x="163"><tspan id="SvgjsTspan1475" style="text-decoration:;">OAuth2ClientContext</tspan></tspan></text></g><g id="SvgjsG1476"><text id="SvgjsText1477" font-family="微软雅黑" text-anchor="start" font-size="13px" width="304" fill="#323232" font-weight="400" align="middle" anchor="start" family="微软雅黑" size="13px" weight="400" font-style="" y="38.049984741210935" transform="rotate(0)"><tspan id="SvgjsTspan1478" dy="16" x="10"><tspan id="SvgjsTspan1479" style="text-decoration:;">getAccessToken(): OAuth2AccessTokensetAccess</tspan></tspan><tspan id="SvgjsTspan1480" dy="16" x="10"><tspan id="SvgjsTspan1481" style="text-decoration:;">Token(OAuth2AccessToken var1): void </tspan></tspan></text></g></g><g id="SvgjsG1482" transform="translate(141,860.2000122070312)"><path id="SvgjsPath1483" d="M 0 4Q 0 0 4 0L 413.5 0Q 417.5 0 417.5 4L 417.5 100Q 417.5 104 413.5 104L 4 104Q 0 104 0 100Z" stroke="#323232" stroke-width="2" fill-opacity="1" fill="#ffffff"></path><path id="SvgjsPath1484" d="M 0 30L 417.5 30M 0 60L 417.5 60" stroke="#323232" stroke-width="2" fill="none"></path><path id="SvgjsPath1485" d="M 0 0L 417.5 0L 417.5 104L 0 104Z" stroke="none" fill="none"></path><g id="SvgjsG1486"><text id="SvgjsText1487" font-family="微软雅黑" text-anchor="middle" font-size="13px" width="188" fill="#323232" font-weight="700" align="middle" anchor="middle" family="微软雅黑" size="13px" weight="700" font-style="" y="5.05" transform="rotate(0)"><tspan id="SvgjsTspan1488" dy="16" x="209"><tspan id="SvgjsTspan1489" style="text-decoration:;">DefaultOAuth2ClientContext</tspan></tspan></text></g><g id="SvgjsG1490"><text id="SvgjsText1491" font-family="微软雅黑" text-anchor="start" font-size="13px" width="0" fill="#323232" font-weight="400" align="middle" anchor="start" family="微软雅黑" size="13px" weight="400" font-style="" y="35.05" transform="rotate(0)"></text></g><g id="SvgjsG1492"><text id="SvgjsText1493" font-family="微软雅黑" text-anchor="start" font-size="13px" width="350" fill="#323232" font-weight="400" align="middle" anchor="start" family="微软雅黑" size="13px" weight="400" font-style="" y="58.05" transform="rotate(0)"><tspan id="SvgjsTspan1494" dy="16" x="10"><tspan id="SvgjsTspan1495" style="text-decoration:;">getAccessToken(): OAuth2AccessToken </tspan></tspan><tspan id="SvgjsTspan1496" dy="16" x="10"><tspan id="SvgjsTspan1497" style="text-decoration:;">setAccessToken(OAuth2AccessToken accessToken): void</tspan></tspan></text></g></g><g id="SvgjsG1498"><path id="SvgjsPath1499" d="M349.75 860.2000122070312L349.75 794.7000350952148" stroke-dasharray="8,5" stroke="#323232" stroke-width="2" fill="none" marker-end="url(#SvgjsMarker1500)"></path></g><g id="SvgjsG1502"><path id="SvgjsPath1503" d="M906.5 708.2000427246094L906.5 648.4500305769177L1098.906955320939 648.4500305769177L1098.906955320939 588.7000184292259" stroke="#323232" stroke-width="2" fill="none" marker-end="url(#SvgjsMarker1504)"></path></g><g id="SvgjsG1506"><path id="SvgjsPath1507" d="M635.5 753.7000503540039L512.75 753.7000503540039" stroke="#323232" stroke-width="2" fill="none" marker-end="url(#SvgjsMarker1508)"></path></g></svg>