<svg id="SvgjsSvg1522" width="527" height="952" xmlns="http://www.w3.org/2000/svg" version="1.1" xmlns:xlink="http://www.w3.org/1999/xlink" xmlns:svgjs="http://svgjs.com/svgjs"><defs id="SvgjsDefs1523"><marker id="SvgjsMarker1582" markerWidth="14" markerHeight="12" refX="16" refY="6" viewBox="0 0 14 12" orient="auto" markerUnits="userSpaceOnUse"><path id="SvgjsPath1583" d="M1,1 L14,6 L1,11L1,1" fill="#ffffff" stroke="#323232" stroke-width="2"></path></marker><marker id="SvgjsMarker1624" markerWidth="16" markerHeight="16" refX="11" refY="8" viewBox="0 0 16 16" orient="auto" markerUnits="userSpaceOnUse"><path id="SvgjsPath1625" d="M0,0 L10,8 L0,16" fill="none" stroke="#323232" stroke-width="2"></path></marker><marker id="SvgjsMarker1628" markerWidth="14" markerHeight="12" refX="16" refY="6" viewBox="0 0 14 12" orient="auto" markerUnits="userSpaceOnUse"><path id="SvgjsPath1629" d="M1,1 L14,6 L1,11L1,1" fill="#ffffff" stroke="#323232" stroke-width="2"></path></marker><marker id="SvgjsMarker1632" markerWidth="14" markerHeight="12" refX="16" refY="6" viewBox="0 0 14 12" orient="auto" markerUnits="userSpaceOnUse"><path id="SvgjsPath1633" d="M1,1 L14,6 L1,11L1,1" fill="#ffffff" stroke="#323232" stroke-width="2"></path></marker><marker id="SvgjsMarker1636" markerWidth="16" markerHeight="16" refX="11" refY="8" viewBox="0 0 16 16" orient="auto" markerUnits="userSpaceOnUse"><path id="SvgjsPath1637" d="M0,0 L10,8 L0,16" fill="none" stroke="#323232" stroke-width="2"></path></marker></defs><g id="SvgjsG1524" transform="translate(93.53125,25)"><path id="SvgjsPath1525" d="M 0 4Q 0 0 4 0L 336 0Q 340 0 340 4L 340 82Q 340 86 336 86L 4 86Q 0 86 0 82Z" stroke="#323232" stroke-width="2" fill-opacity="1" fill="#ffffff"></path><path id="SvgjsPath1526" d="M 0 30L 340 30" stroke="#323232" stroke-width="2" fill="none"></path><path id="SvgjsPath1527" d="M 0 0L 340 0L 340 86L 0 86Z" stroke="none" fill="none"></path><g id="SvgjsG1528"><text id="SvgjsText1529" font-family="微软雅黑" text-anchor="middle" font-size="13px" width="156" fill="#323232" font-weight="700" align="middle" anchor="middle" family="微软雅黑" size="13px" weight="700" font-style="" y="5.05" transform="rotate(0)"><tspan id="SvgjsTspan1530" dy="16" x="170"><tspan id="SvgjsTspan1531" style="text-decoration:;">AuthenticationManager</tspan></tspan></text></g><g id="SvgjsG1532"><text id="SvgjsText1533" font-family="微软雅黑" text-anchor="start" font-size="13px" width="308" fill="#323232" font-weight="400" align="middle" anchor="start" family="微软雅黑" size="13px" weight="400" font-style="" y="48.05" transform="rotate(0)"><tspan id="SvgjsTspan1534" dy="16" x="10"><tspan id="SvgjsTspan1535" style="text-decoration:;">authenticate(Authentication var1): Authentication </tspan></tspan></text></g></g><g id="SvgjsG1536" transform="translate(62.53125,171)"><path id="SvgjsPath1537" d="M 0 4Q 0 0 4 0L 398 0Q 402 0 402 4L 402 86Q 402 90 398 90L 4 90Q 0 90 0 86Z" stroke="#323232" stroke-width="2" fill-opacity="1" fill="#ffffff"></path><path id="SvgjsPath1538" d="M 0 30L 402 30M 0 60L 402 60" stroke="#323232" stroke-width="2" fill="none"></path><path id="SvgjsPath1539" d="M 0 0L 402 0L 402 90L 0 90Z" stroke="none" fill="none"></path><g id="SvgjsG1540"><text id="SvgjsText1541" font-family="微软雅黑" text-anchor="middle" font-size="13px" width="207" fill="#323232" font-weight="700" align="middle" anchor="middle" family="微软雅黑" size="13px" weight="700" font-style="" y="5.05" transform="rotate(0)"><tspan id="SvgjsTspan1542" dy="16" x="201"><tspan id="SvgjsTspan1543" style="text-decoration:;">OAuth2AuthenticationManager</tspan></tspan></text></g><g id="SvgjsG1544"><text id="SvgjsText1545" font-family="微软雅黑" text-anchor="start" font-size="13px" width="277" fill="#323232" font-weight="400" align="middle" anchor="start" family="微软雅黑" size="13px" weight="400" font-style="" y="35.05" transform="rotate(0)"><tspan id="SvgjsTspan1546" dy="16" x="10"><tspan id="SvgjsTspan1547" style="text-decoration:;">tokenServices: ResourceServerTokenServices </tspan></tspan></text></g><g id="SvgjsG1548"><text id="SvgjsText1549" font-family="微软雅黑" text-anchor="start" font-size="13px" width="371" fill="#323232" font-weight="400" align="middle" anchor="start" family="微软雅黑" size="13px" weight="400" font-style="" y="65.05" transform="rotate(0)"><tspan id="SvgjsTspan1550" dy="16" x="10"><tspan id="SvgjsTspan1551" style="text-decoration:;">authenticate(Authentication authentication): Authentication </tspan></tspan></text></g></g><g id="SvgjsG1552" transform="translate(62.53125,321)"><path id="SvgjsPath1553" d="M 0 4Q 0 0 4 0L 398 0Q 402 0 402 4L 402 60Q 402 64 398 64L 4 64Q 0 64 0 60Z" stroke="#323232" stroke-width="2" fill-opacity="1" fill="#ffffff"></path><path id="SvgjsPath1554" d="M 0 30L 402 30" stroke="#323232" stroke-width="2" fill="none"></path><path id="SvgjsPath1555" d="M 0 0L 402 0L 402 64L 0 64Z" stroke="none" fill="none"></path><g id="SvgjsG1556"><text id="SvgjsText1557" font-family="微软雅黑" text-anchor="middle" font-size="13px" width="195" fill="#323232" font-weight="700" align="middle" anchor="middle" family="微软雅黑" size="13px" weight="700" font-style="" y="5.05" transform="rotate(0)"><tspan id="SvgjsTspan1558" dy="16" x="201"><tspan id="SvgjsTspan1559" style="text-decoration:;">ResourceServerTokenServices</tspan></tspan></text></g><g id="SvgjsG1560"><text id="SvgjsText1561" font-family="微软雅黑" text-anchor="start" font-size="13px" width="352" fill="#323232" font-weight="400" align="middle" anchor="start" family="微软雅黑" size="13px" weight="400" font-style="" y="37.05" transform="rotate(0)"><tspan id="SvgjsTspan1562" dy="16" x="10"><tspan id="SvgjsTspan1563" style="text-decoration:;">loadAuthentication(String var1)： OAuth2Authentication</tspan></tspan></text></g></g><g id="SvgjsG1564" transform="translate(36.03125,448)"><path id="SvgjsPath1565" d="M 0 4Q 0 0 4 0L 451 0Q 455 0 455 4L 455 94Q 455 98 451 98L 4 98Q 0 98 0 94Z" stroke="#323232" stroke-width="2" fill-opacity="1" fill="#ffffff"></path><path id="SvgjsPath1566" d="M 0 30L 455 30M 0 60L 455 60" stroke="#323232" stroke-width="2" fill="none"></path><path id="SvgjsPath1567" d="M 0 0L 455 0L 455 98L 0 98Z" stroke="none" fill="none"></path><g id="SvgjsG1568"><text id="SvgjsText1569" font-family="微软雅黑" text-anchor="middle" font-size="13px" width="142" fill="#323232" font-weight="700" align="middle" anchor="middle" family="微软雅黑" size="13px" weight="700" font-style="" y="5.05" transform="rotate(0)"><tspan id="SvgjsTspan1570" dy="16" x="227.5"><tspan id="SvgjsTspan1571" style="text-decoration:;">DefaultTokenServices</tspan></tspan></text></g><g id="SvgjsG1572"><text id="SvgjsText1573" font-family="微软雅黑" text-anchor="start" font-size="13px" width="146" fill="#323232" font-weight="400" align="middle" anchor="start" family="微软雅黑" size="13px" weight="400" font-style="" y="35.05" transform="rotate(0)"><tspan id="SvgjsTspan1574" dy="16" x="10"><tspan id="SvgjsTspan1575" style="text-decoration:;">tokenStore: TokenStore </tspan></tspan></text></g><g id="SvgjsG1576"><text id="SvgjsText1577" font-family="微软雅黑" text-anchor="start" font-size="13px" width="428" fill="#323232" font-weight="400" align="middle" anchor="start" family="微软雅黑" size="13px" weight="400" font-style="" y="65.05" transform="rotate(0)"><tspan id="SvgjsTspan1578" dy="16" x="10"><tspan id="SvgjsTspan1579" style="text-decoration:;">loadAuthentication(String accessTokenValue): OAuth2Authentication </tspan></tspan></text></g></g><g id="SvgjsG1580"><path id="SvgjsPath1581" d="M263.53125 448L263.53125 416.5L263.53125 416.5L263.53125 385" stroke-dasharray="8,5" stroke="#323232" stroke-width="2" fill="none" marker-end="url(#SvgjsMarker1582)"></path></g><g id="SvgjsG1584" transform="translate(30.90625,612)"><path id="SvgjsPath1585" d="M 0 4Q 0 0 4 0L 461.25 0Q 465.25 0 465.25 4L 465.25 78Q 465.25 82 461.25 82L 4 82Q 0 82 0 78Z" stroke="#323232" stroke-width="2" fill-opacity="1" fill="#ffffff"></path><path id="SvgjsPath1586" d="M 0 30L 465.25 30" stroke="#323232" stroke-width="2" fill="none"></path><path id="SvgjsPath1587" d="M 0 0L 465.25 0L 465.25 82L 0 82Z" stroke="none" fill="none"></path><g id="SvgjsG1588"><text id="SvgjsText1589" font-family="微软雅黑" text-anchor="middle" font-size="13px" width="75" fill="#323232" font-weight="700" align="middle" anchor="middle" family="微软雅黑" size="13px" weight="700" font-style="" y="5.05" transform="rotate(0)"><tspan id="SvgjsTspan1590" dy="16" x="233"><tspan id="SvgjsTspan1591" style="text-decoration:;">TokenStore </tspan></tspan></text></g><g id="SvgjsG1592"><text id="SvgjsText1593" font-family="微软雅黑" text-anchor="start" font-size="13px" width="434" fill="#323232" font-weight="400" align="middle" anchor="start" family="微软雅黑" size="13px" weight="400" font-style="" y="38.05" transform="rotate(0)"><tspan id="SvgjsTspan1594" dy="16" x="10"><tspan id="SvgjsTspan1595" style="text-decoration:;">readAccessToken(String var1): OAuth2AccessToken </tspan></tspan><tspan id="SvgjsTspan1596" dy="16" x="10"><tspan id="SvgjsTspan1597" style="text-decoration:;">readAuthentication(OAuth2AccessToken var1): OAuth2Authentication</tspan></tspan></text></g></g><g id="SvgjsG1598" transform="translate(25,762)"><path id="SvgjsPath1599" d="M 0 4Q 0 0 4 0L 473.0625 0Q 477.0625 0 477.0625 4L 477.0625 161Q 477.0625 165 473.0625 165L 4 165Q 0 165 0 161Z" stroke="#323232" stroke-width="2" fill-opacity="1" fill="#ffffff"></path><path id="SvgjsPath1600" d="M 0 30L 477.0625 30M 0 60L 477.0625 60" stroke="#323232" stroke-width="2" fill="none"></path><path id="SvgjsPath1601" d="M 0 0L 477.0625 0L 477.0625 165L 0 165Z" stroke="none" fill="none"></path><g id="SvgjsG1602"><text id="SvgjsText1603" font-family="微软雅黑" text-anchor="middle" font-size="13px" width="111" fill="#323232" font-weight="700" align="middle" anchor="middle" family="微软雅黑" size="13px" weight="700" font-style="" y="5.05" transform="rotate(0)"><tspan id="SvgjsTspan1604" dy="16" x="239"><tspan id="SvgjsTspan1605" style="text-decoration:;">RedisTokenStore</tspan></tspan></text></g><g id="SvgjsG1606"><text id="SvgjsText1607" font-family="微软雅黑" text-anchor="start" font-size="13px" width="0" fill="#323232" font-weight="400" align="middle" anchor="start" family="微软雅黑" size="13px" weight="400" font-style="" y="35.05" transform="rotate(0)"></text></g><g id="SvgjsG1608"><text id="SvgjsText1609" font-family="微软雅黑" text-anchor="start" font-size="13px" width="443" fill="#323232" font-weight="400" align="middle" anchor="start" family="微软雅黑" size="13px" weight="400" font-style="" y="58.05" transform="rotate(0)"><tspan id="SvgjsTspan1610" dy="16" x="10"><tspan id="SvgjsTspan1611" style="text-decoration:;">readAccessToken(String tokenValue): OAuth2AccessToken</tspan></tspan><tspan id="SvgjsTspan1612" dy="16" x="10"><tspan id="SvgjsTspan1613" style="text-decoration:;">serializeKey(String object): byte[]</tspan></tspan><tspan id="SvgjsTspan1614" dy="16" x="10"><tspan id="SvgjsTspan1615" style="text-decoration:;">deserializeAccessToken(byte[] bytes): OAuth2AccessToken</tspan></tspan><tspan id="SvgjsTspan1616" dy="16" x="10"><tspan id="SvgjsTspan1617" style="text-decoration:;">readAuthentication(OAuth2AccessToken token): OAuth2Authentication </tspan></tspan><tspan id="SvgjsTspan1618" dy="16" x="10"><tspan id="SvgjsTspan1619" style="text-decoration:;">readAuthentication(String token): OAuth2Authentication</tspan></tspan><tspan id="SvgjsTspan1620" dy="16" x="10"><tspan id="SvgjsTspan1621" style="text-decoration:;">deserializeAuthentication(byte[] bytes): OAuth2Authentication</tspan></tspan></text></g></g><g id="SvgjsG1622"><path id="SvgjsPath1623" d="M263.53125 612L263.53125 579L263.53125 579L263.53125 546" stroke="#323232" stroke-width="2" fill="none" marker-end="url(#SvgjsMarker1624)"></path></g><g id="SvgjsG1626"><path id="SvgjsPath1627" d="M263.53125 762L263.53125 728L263.53125 728L263.53125 694" stroke-dasharray="8,5" stroke="#323232" stroke-width="2" fill="none" marker-end="url(#SvgjsMarker1628)"></path></g><g id="SvgjsG1630"><path id="SvgjsPath1631" d="M263.53125 171L263.53125 111" stroke-dasharray="8,5" stroke="#323232" stroke-width="2" fill="none" marker-end="url(#SvgjsMarker1632)"></path></g><g id="SvgjsG1634"><path id="SvgjsPath1635" d="M263.53125 321L263.53125 291L263.53125 291L263.53125 261" stroke="#323232" stroke-width="2" fill="none" marker-end="url(#SvgjsMarker1636)"></path></g></svg>