<svg id="SvgjsSvg1636" width="1244.0999908447266" height="1705.4000244140625" xmlns="http://www.w3.org/2000/svg" version="1.1" xmlns:xlink="http://www.w3.org/1999/xlink" xmlns:svgjs="http://svgjs.com/svgjs"><defs id="SvgjsDefs1637"><marker id="SvgjsMarker1706" markerWidth="14" markerHeight="12" refX="16" refY="6" viewBox="0 0 14 12" orient="auto" markerUnits="userSpaceOnUse"><path id="SvgjsPath1707" d="M1,1 L14,6 L1,11L1,1" fill="#ffffff" stroke="#323232" stroke-width="2"></path></marker><marker id="SvgjsMarker1726" markerWidth="14" markerHeight="12" refX="16" refY="6" viewBox="0 0 14 12" orient="auto" markerUnits="userSpaceOnUse"><path id="SvgjsPath1727" d="M1,1 L14,6 L1,11L1,1" fill="#ffffff" stroke="#323232" stroke-width="2"></path></marker><marker id="SvgjsMarker1756" markerWidth="14" markerHeight="12" refX="16" refY="6" viewBox="0 0 14 12" orient="auto" markerUnits="userSpaceOnUse"><path id="SvgjsPath1757" d="M1,1 L14,6 L1,11L1,1" fill="#ffffff" stroke="#323232" stroke-width="2"></path></marker><marker id="SvgjsMarker1760" markerWidth="16" markerHeight="16" refX="11" refY="8" viewBox="0 0 16 16" orient="auto" markerUnits="userSpaceOnUse"><path id="SvgjsPath1761" d="M0,0 L10,8 L0,16" fill="none" stroke="#323232" stroke-width="2"></path></marker><marker id="SvgjsMarker1764" markerWidth="16" markerHeight="16" refX="11" refY="8" viewBox="0 0 16 16" orient="auto" markerUnits="userSpaceOnUse"><path id="SvgjsPath1765" d="M0,0 L10,8 L0,16" fill="none" stroke="#323232" stroke-width="2"></path></marker><marker id="SvgjsMarker1798" markerWidth="14" markerHeight="12" refX="16" refY="6" viewBox="0 0 14 12" orient="auto" markerUnits="userSpaceOnUse"><path id="SvgjsPath1799" d="M1,1 L14,6 L1,11L1,1" fill="#ffffff" stroke="#323232" stroke-width="2"></path></marker><marker id="SvgjsMarker1814" markerWidth="16" markerHeight="16" refX="11" refY="8" viewBox="0 0 16 16" orient="auto" markerUnits="userSpaceOnUse"><path id="SvgjsPath1815" d="M0,0 L10,8 L0,16" fill="none" stroke="#323232" stroke-width="2"></path></marker><marker id="SvgjsMarker1834" markerWidth="14" markerHeight="12" refX="16" refY="6" viewBox="0 0 14 12" orient="auto" markerUnits="userSpaceOnUse"><path id="SvgjsPath1835" d="M1,1 L14,6 L1,11L1,1" fill="#ffffff" stroke="#323232" stroke-width="2"></path></marker><marker id="SvgjsMarker1850" markerWidth="16" markerHeight="16" refX="11" refY="8" viewBox="0 0 16 16" orient="auto" markerUnits="userSpaceOnUse"><path id="SvgjsPath1851" d="M0,0 L10,8 L0,16" fill="none" stroke="#323232" stroke-width="2"></path></marker><marker id="SvgjsMarker1868" markerWidth="14" markerHeight="12" refX="16" refY="6" viewBox="0 0 14 12" orient="auto" markerUnits="userSpaceOnUse"><path id="SvgjsPath1869" d="M1,1 L14,6 L1,11L1,1" fill="#ffffff" stroke="#323232" stroke-width="2"></path></marker><marker id="SvgjsMarker1888" markerWidth="16" markerHeight="16" refX="11" refY="8" viewBox="0 0 16 16" orient="auto" markerUnits="userSpaceOnUse"><path id="SvgjsPath1889" d="M0,0 L10,8 L0,16" fill="none" stroke="#323232" stroke-width="2"></path></marker><marker id="SvgjsMarker1906" markerWidth="14" markerHeight="12" refX="16" refY="6" viewBox="0 0 14 12" orient="auto" markerUnits="userSpaceOnUse"><path id="SvgjsPath1907" d="M1,1 L14,6 L1,11L1,1" fill="#ffffff" stroke="#323232" stroke-width="2"></path></marker><marker id="SvgjsMarker1922" markerWidth="14" markerHeight="12" refX="16" refY="6" viewBox="0 0 14 12" orient="auto" markerUnits="userSpaceOnUse"><path id="SvgjsPath1923" d="M1,1 L14,6 L1,11L1,1" fill="#ffffff" stroke="#323232" stroke-width="2"></path></marker><marker id="SvgjsMarker1926" markerWidth="16" markerHeight="16" refX="11" refY="8" viewBox="0 0 16 16" orient="auto" markerUnits="userSpaceOnUse"><path id="SvgjsPath1927" d="M0,0 L10,8 L0,16" fill="none" stroke="#323232" stroke-width="2"></path></marker><marker id="SvgjsMarker1944" markerWidth="14" markerHeight="12" refX="16" refY="6" viewBox="0 0 14 12" orient="auto" markerUnits="userSpaceOnUse"><path id="SvgjsPath1945" d="M1,1 L14,6 L1,11L1,1" fill="#ffffff" stroke="#323232" stroke-width="2"></path></marker><marker id="SvgjsMarker1948" markerWidth="14" markerHeight="12" refX="16" refY="6" viewBox="0 0 14 12" orient="auto" markerUnits="userSpaceOnUse"><path id="SvgjsPath1949" d="M1,1 L14,6 L1,11L1,1" fill="#ffffff" stroke="#323232" stroke-width="2"></path></marker></defs><g id="SvgjsG1638" transform="translate(126.10623729228973,245.1999969482422)"><path id="SvgjsPath1639" d="M 0 4Q 0 0 4 0L 1088.9000035524368 0Q 1092.9000035524368 0 1092.9000035524368 4L 1092.9000035524368 86.79999542236328Q 1092.9000035524368 90.79999542236328 1088.9000035524368 90.79999542236328L 4 90.79999542236328Q 0 90.79999542236328 0 86.79999542236328Z" stroke="#323232" stroke-width="2" fill-opacity="1" fill="#ffffff"></path><path id="SvgjsPath1640" d="M 0 30L 1092.9000035524368 30M 0 60L 1092.9000035524368 60" stroke="#323232" stroke-width="2" fill="none"></path><path id="SvgjsPath1641" d="M 0 0L 1092.9000035524368 0L 1092.9000035524368 90.79999542236328L 0 90.79999542236328Z" stroke="none" fill="none"></path><g id="SvgjsG1642"><text id="SvgjsText1643" font-family="微软雅黑" text-anchor="middle" font-size="13px" width="100" fill="#323232" font-weight="700" align="middle" anchor="middle" family="微软雅黑" size="13px" weight="700" font-style="" y="5.05" transform="rotate(0)"><tspan id="SvgjsTspan1644" dy="16" x="546.5"><tspan id="SvgjsTspan1645" style="text-decoration:;">TokenEndpoint</tspan></tspan></text></g><g id="SvgjsG1646"><text id="SvgjsText1647" font-family="微软雅黑" text-anchor="start" font-size="13px" width="0" fill="#323232" font-weight="400" align="middle" anchor="start" family="微软雅黑" size="13px" weight="400" font-style="" y="35.05" transform="rotate(0)"></text></g><g id="SvgjsG1648"><text id="SvgjsText1649" font-family="微软雅黑" text-anchor="start" font-size="13px" width="545" fill="#323232" font-weight="400" align="middle" anchor="start" family="微软雅黑" size="13px" weight="400" font-style="" y="65.05" transform="rotate(0)"><tspan id="SvgjsTspan1650" dy="16" x="10"><tspan id="SvgjsTspan1651" style="text-decoration:;">postAccessToken(Principal principal, @RequestParam Map&lt;String, String&gt; parameters): ResponseEntity&lt;OAuth2AccessToken&gt; </tspan></tspan></text></g></g><g id="SvgjsG1652" transform="translate(29.006240844726562,537.1999969482422)"><path id="SvgjsPath1653" d="M 0 4Q 0 0 4 0L 327.8000030517578 0Q 331.8000030517578 0 331.8000030517578 4L 331.8000030517578 95Q 331.8000030517578 99 327.8000030517578 99L 4 99Q 0 99 0 95Z" stroke="#323232" stroke-width="2" fill-opacity="1" fill="#ffffff"></path><path id="SvgjsPath1654" d="M 0 30L 331.8000030517578 30M 0 62L 331.8000030517578 62" stroke="#323232" stroke-width="2" fill="none"></path><path id="SvgjsPath1655" d="M 0 0L 331.8000030517578 0L 331.8000030517578 99L 0 99Z" stroke="none" fill="none"></path><g id="SvgjsG1656"><text id="SvgjsText1657" font-family="微软雅黑" text-anchor="middle" font-size="13px" width="159" fill="#323232" font-weight="700" align="middle" anchor="middle" family="微软雅黑" size="13px" weight="700" font-style="" y="5.05" transform="rotate(0)"><tspan id="SvgjsTspan1658" dy="16" x="166"><tspan id="SvgjsTspan1659" style="text-decoration:;">JdbcClientDetailsService</tspan></tspan></text></g><g id="SvgjsG1660"><text id="SvgjsText1661" font-family="微软雅黑" text-anchor="start" font-size="13px" width="0" fill="#323232" font-weight="400" align="middle" anchor="start" family="微软雅黑" size="13px" weight="400" font-style="" y="35.05" transform="rotate(0)"></text></g><g id="SvgjsG1662"><text id="SvgjsText1663" font-family="微软雅黑" text-anchor="start" font-size="13px" width="306" fill="#323232" font-weight="400" align="middle" anchor="start" family="微软雅黑" size="13px" weight="400" font-style="" y="76.05" transform="rotate(0)"><tspan id="SvgjsTspan1664" dy="16" x="10"><tspan id="SvgjsTspan1665" style="text-decoration:;">loadClientByClientId(String clientId): ClientDetails </tspan></tspan></text></g></g><g id="SvgjsG1666" transform="translate(387.03123995661736,25)"><path id="SvgjsPath1667" d="M 0 4Q 0 0 4 0L 567.0499982237816 0Q 571.0499982237816 0 571.0499982237816 4L 571.0499982237816 154Q 571.0499982237816 158 567.0499982237816 158L 4 158Q 0 158 0 154Z" stroke="#323232" stroke-width="2" fill-opacity="1" fill="#ffffff"></path><path id="SvgjsPath1668" d="M 0 30L 571.0499982237816 30M 0 96L 571.0499982237816 96" stroke="#323232" stroke-width="2" fill="none"></path><path id="SvgjsPath1669" d="M 0 0L 571.0499982237816 0L 571.0499982237816 158L 0 158Z" stroke="none" fill="none"></path><g id="SvgjsG1670"><text id="SvgjsText1671" font-family="微软雅黑" text-anchor="middle" font-size="13px" width="115" fill="#323232" font-weight="700" align="middle" anchor="middle" family="微软雅黑" size="13px" weight="700" font-style="" y="5.05" transform="rotate(0)"><tspan id="SvgjsTspan1672" dy="16" x="286"><tspan id="SvgjsTspan1673" style="text-decoration:;">AbstractEndpoint</tspan></tspan></text></g><g id="SvgjsG1674"><text id="SvgjsText1675" font-family="微软雅黑" text-anchor="start" font-size="13px" width="339" fill="#323232" font-weight="400" align="middle" anchor="start" family="微软雅黑" size="13px" weight="400" font-style="" y="28.05" transform="rotate(0)"><tspan id="SvgjsTspan1676" dy="16" x="10"><tspan id="SvgjsTspan1677" style="text-decoration:;">tokenGranter: TokenGranter</tspan></tspan><tspan id="SvgjsTspan1678" dy="16" x="10"><tspan id="SvgjsTspan1679" style="text-decoration:;">clientDetailsService: ClientDetailsService</tspan></tspan><tspan id="SvgjsTspan1680" dy="16" x="10"><tspan id="SvgjsTspan1681" style="text-decoration:;">oAuth2RequestFactory: OAuth2RequestFactory</tspan></tspan><tspan id="SvgjsTspan1682" dy="16" x="10"><tspan id="SvgjsTspan1683" style="text-decoration:;">defaultOAuth2RequestFactory: OAuth2RequestFactory</tspan></tspan></text></g><g id="SvgjsG1684"><text id="SvgjsText1685" font-family="微软雅黑" text-anchor="start" font-size="13px" width="325" fill="#323232" font-weight="400" align="middle" anchor="start" family="微软雅黑" size="13px" weight="400" font-style="" y="100.64999847412109" transform="rotate(0)"><tspan id="SvgjsTspan1686" dy="16" x="10"><tspan id="SvgjsTspan1687" style="text-decoration:;">getClientDetailsService(): ClientDetailsService </tspan></tspan><tspan id="SvgjsTspan1688" dy="16" x="10"><tspan id="SvgjsTspan1689" style="text-decoration:;">getOAuth2RequestFactory(): OAuth2RequestFactory</tspan></tspan><tspan id="SvgjsTspan1690" dy="16" x="10"><tspan id="SvgjsTspan1691" style="text-decoration:;">getTokenGranter(): TokenGranter</tspan></tspan></text></g></g><g id="SvgjsG1692" transform="translate(28.006240844726562,401.1999969482422)"><path id="SvgjsPath1693" d="M 0 4Q 0 0 4 0L 329.8000030517578 0Q 333.8000030517578 0 333.8000030517578 4L 333.8000030517578 67Q 333.8000030517578 71 329.8000030517578 71L 4 71Q 0 71 0 67Z" stroke="#323232" stroke-width="2" fill-opacity="1" fill="#ffffff"></path><path id="SvgjsPath1694" d="M 0 30L 333.8000030517578 30" stroke="#323232" stroke-width="2" fill="none"></path><path id="SvgjsPath1695" d="M 0 0L 333.8000030517578 0L 333.8000030517578 71L 0 71Z" stroke="none" fill="none"></path><g id="SvgjsG1696"><text id="SvgjsText1697" font-family="微软雅黑" text-anchor="middle" font-size="13px" width="129" fill="#323232" font-weight="700" align="middle" anchor="middle" family="微软雅黑" size="13px" weight="700" font-style="" y="5.05" transform="rotate(0)"><tspan id="SvgjsTspan1698" dy="16" x="167"><tspan id="SvgjsTspan1699" style="text-decoration:;">ClientDetailsService</tspan></tspan></text></g><g id="SvgjsG1700"><text id="SvgjsText1701" font-family="微软雅黑" text-anchor="start" font-size="13px" width="287" fill="#323232" font-weight="400" align="middle" anchor="start" family="微软雅黑" size="13px" weight="400" font-style="" y="40.55" transform="rotate(0)"><tspan id="SvgjsTspan1702" dy="16" x="10"><tspan id="SvgjsTspan1703" style="text-decoration:;">loadClientByClientId(String var1): ClientDetails </tspan></tspan></text></g></g><g id="SvgjsG1704"><path id="SvgjsPath1705" d="M194.90624237060547 537.1999969482422L194.90624237060547 504.6999969482422L194.90624237060547 504.6999969482422L194.90624237060547 472.1999969482422" stroke-dasharray="8,5" stroke="#323232" stroke-width="2" fill="none" marker-end="url(#SvgjsMarker1706)"></path></g><g id="SvgjsG1708" transform="translate(28.006240844726562,698.1999969482422)"><path id="SvgjsPath1709" d="M 0 4Q 0 0 4 0L 329.8000030517578 0Q 333.8000030517578 0 333.8000030517578 4L 333.8000030517578 92Q 333.8000030517578 96 329.8000030517578 96L 4 96Q 0 96 0 92Z" stroke="#323232" stroke-width="2" fill-opacity="1" fill="#ffffff"></path><path id="SvgjsPath1710" d="M 0 30L 333.8000030517578 30M 0 60L 333.8000030517578 60" stroke="#323232" stroke-width="2" fill="none"></path><path id="SvgjsPath1711" d="M 0 0L 333.8000030517578 0L 333.8000030517578 96L 0 96Z" stroke="none" fill="none"></path><g id="SvgjsG1712"><text id="SvgjsText1713" font-family="微软雅黑" text-anchor="middle" font-size="13px" width="165" fill="#323232" font-weight="700" align="middle" anchor="middle" family="微软雅黑" size="13px" weight="700" font-style="" y="5.05" transform="rotate(0)"><tspan id="SvgjsTspan1714" dy="16" x="167"><tspan id="SvgjsTspan1715" style="text-decoration:;">RedisClientDetailsService</tspan></tspan></text></g><g id="SvgjsG1716"><text id="SvgjsText1717" font-family="微软雅黑" text-anchor="start" font-size="13px" width="263" fill="#323232" font-weight="400" align="middle" anchor="start" family="微软雅黑" size="13px" weight="400" font-style="" y="35.05" transform="rotate(0)"><tspan id="SvgjsTspan1718" dy="16" x="10"><tspan id="SvgjsTspan1719" style="text-decoration:;">stringRedisTemplate: StringRedisTemplate </tspan></tspan></text></g><g id="SvgjsG1720"><text id="SvgjsText1721" font-family="微软雅黑" text-anchor="start" font-size="13px" width="306" fill="#323232" font-weight="400" align="middle" anchor="start" family="微软雅黑" size="13px" weight="400" font-style="" y="65.05" transform="rotate(0)"><tspan id="SvgjsTspan1722" dy="16" x="10"><tspan id="SvgjsTspan1723" style="text-decoration:;">loadClientByClientId(String clientId): ClientDetails </tspan></tspan></text></g></g><g id="SvgjsG1724"><path id="SvgjsPath1725" d="M194.90624237060547 698.1999969482422L194.90624237060547 667.1999969482422L194.90624237060547 667.1999969482422L194.90624237060547 636.1999969482422" stroke="#323232" stroke-width="2" fill="none" marker-end="url(#SvgjsMarker1726)"></path></g><g id="SvgjsG1728" transform="translate(523.8062438964844,401.1999969482422)"><path id="SvgjsPath1729" d="M 0 4Q 0 0 4 0L 530 0Q 534 0 534 4L 534 67Q 534 71 530 71L 4 71Q 0 71 0 67Z" stroke="#323232" stroke-width="2" fill-opacity="1" fill="#ffffff"></path><path id="SvgjsPath1730" d="M 0 30L 534 30" stroke="#323232" stroke-width="2" fill="none"></path><path id="SvgjsPath1731" d="M 0 0L 534 0L 534 71L 0 71Z" stroke="none" fill="none"></path><g id="SvgjsG1732"><text id="SvgjsText1733" font-family="微软雅黑" text-anchor="middle" font-size="13px" width="152" fill="#323232" font-weight="700" align="middle" anchor="middle" family="微软雅黑" size="13px" weight="700" font-style="" y="5.05" transform="rotate(0)"><tspan id="SvgjsTspan1734" dy="16" x="267"><tspan id="SvgjsTspan1735" style="text-decoration:;">OAuth2RequestFactory</tspan></tspan></text></g><g id="SvgjsG1736"><text id="SvgjsText1737" font-family="微软雅黑" text-anchor="start" font-size="13px" width="405" fill="#323232" font-weight="400" align="middle" anchor="start" family="微软雅黑" size="13px" weight="400" font-style="" y="40.55" transform="rotate(0)"><tspan id="SvgjsTspan1738" dy="16" x="10"><tspan id="SvgjsTspan1739" style="text-decoration:;">createTokenRequest(Map&lt;String, String&gt; var1, ClientDetails var2): TokenRequest </tspan></tspan></text></g></g><g id="SvgjsG1740" transform="translate(373.8062438964844,537.1999969482422)"><path id="SvgjsPath1741" d="M 0 4Q 0 0 4 0L 730 0Q 734 0 734 4L 734 95Q 734 99 730 99L 4 99Q 0 99 0 95Z" stroke="#323232" stroke-width="2" fill-opacity="1" fill="#ffffff"></path><path id="SvgjsPath1742" d="M 0 30L 734 30M 0 62L 734 62" stroke="#323232" stroke-width="2" fill="none"></path><path id="SvgjsPath1743" d="M 0 0L 734 0L 734 99L 0 99Z" stroke="none" fill="none"></path><g id="SvgjsG1744"><text id="SvgjsText1745" font-family="微软雅黑" text-anchor="middle" font-size="13px" width="200" fill="#323232" font-weight="700" align="middle" anchor="middle" family="微软雅黑" size="13px" weight="700" font-style="" y="5.05" transform="rotate(0)"><tspan id="SvgjsTspan1746" dy="16" x="367"><tspan id="SvgjsTspan1747" style="text-decoration:;">DefaultOAuth2RequestFactory</tspan></tspan></text></g><g id="SvgjsG1748"><text id="SvgjsText1749" font-family="微软雅黑" text-anchor="start" font-size="13px" width="0" fill="#323232" font-weight="400" align="middle" anchor="start" family="微软雅黑" size="13px" weight="400" font-style="" y="35.05" transform="rotate(0)"></text></g><g id="SvgjsG1750"><text id="SvgjsText1751" font-family="微软雅黑" text-anchor="start" font-size="13px" width="591" fill="#323232" font-weight="400" align="middle" anchor="start" family="微软雅黑" size="13px" weight="400" font-style="" y="67.05" transform="rotate(0)"><tspan id="SvgjsTspan1752" dy="16" x="10"><tspan id="SvgjsTspan1753" style="text-decoration:;">createTokenRequest(Map&lt;String, String&gt; requestParameters, ClientDetails authenticatedClient): TokenRequest </tspan></tspan></text></g></g><g id="SvgjsG1754"><path id="SvgjsPath1755" d="M740.8062438964844 537.1999969482422L740.8062438964844 504.6999969482422L790.8062438964844 504.6999969482422L790.8062438964844 472.1999969482422" stroke-dasharray="8,5" stroke="#323232" stroke-width="2" fill="none" marker-end="url(#SvgjsMarker1756)"></path></g><g id="SvgjsG1758"><path id="SvgjsPath1759" d="M790.8062438964844 401.1999969482422L790.8062438964844 370.2999954223633L790.8062438964844 370.2999954223633L790.8062438964844 339.3999938964844" stroke="#323232" stroke-width="2" fill="none" marker-end="url(#SvgjsMarker1760)"></path></g><g id="SvgjsG1762"><path id="SvgjsPath1763" d="M194.90624237060547 401.1999969482422L194.90624237060547 369.7999954223633L194.90624237060547 369.7999954223633L194.90624237060547 338.3999938964844" stroke="#323232" stroke-width="2" fill="none" marker-end="url(#SvgjsMarker1764)"></path></g><g id="SvgjsG1766" transform="translate(814.7062433958054,837.4000091552734)"><path id="SvgjsPath1767" d="M 0 4Q 0 0 4 0L 396 0Q 400 0 400 4L 400 59Q 400 63 396 63L 4 63Q 0 63 0 59Z" stroke="#323232" stroke-width="2" fill-opacity="1" fill="#ffffff"></path><path id="SvgjsPath1768" d="M 0 30L 400 30" stroke="#323232" stroke-width="2" fill="none"></path><path id="SvgjsPath1769" d="M 0 0L 400 0L 400 63L 0 63Z" stroke="none" fill="none"></path><g id="SvgjsG1770"><text id="SvgjsText1771" font-family="微软雅黑" text-anchor="middle" font-size="13px" width="90" fill="#323232" font-weight="700" align="middle" anchor="middle" family="微软雅黑" size="13px" weight="700" font-style="" y="5.05" transform="rotate(0)"><tspan id="SvgjsTspan1772" dy="16" x="200"><tspan id="SvgjsTspan1773" style="text-decoration:;">TokenGranter </tspan></tspan></text></g><g id="SvgjsG1774"><text id="SvgjsText1775" font-family="微软雅黑" text-anchor="start" font-size="13px" width="370" fill="#323232" font-weight="400" align="middle" anchor="start" family="微软雅黑" size="13px" weight="400" font-style="" y="36.55" transform="rotate(0)"><tspan id="SvgjsTspan1776" dy="16" x="10"><tspan id="SvgjsTspan1777" style="text-decoration:;">grant(String var1, TokenRequest var2): OAuth2AccessToken </tspan></tspan></text></g></g><g id="SvgjsG1778" transform="translate(610.3062428236008,970.4000091552734)"><path id="SvgjsPath1779" d="M 0 4Q 0 0 4 0L 600.4000005722046 0Q 604.4000005722046 0 604.4000005722046 4L 604.4000005722046 100Q 604.4000005722046 104 600.4000005722046 104L 4 104Q 0 104 0 100Z" stroke="#323232" stroke-width="2" fill-opacity="1" fill="#ffffff"></path><path id="SvgjsPath1780" d="M 0 30L 604.4000005722046 30M 0 62L 604.4000005722046 62" stroke="#323232" stroke-width="2" fill="none"></path><path id="SvgjsPath1781" d="M 0 0L 604.4000005722046 0L 604.4000005722046 104L 0 104Z" stroke="none" fill="none"></path><g id="SvgjsG1782"><text id="SvgjsText1783" font-family="微软雅黑" text-anchor="middle" font-size="13px" width="146" fill="#323232" font-weight="700" align="middle" anchor="middle" family="微软雅黑" size="13px" weight="700" font-style="" y="5.05" transform="rotate(0)"><tspan id="SvgjsTspan1784" dy="16" x="302.5"><tspan id="SvgjsTspan1785" style="text-decoration:;">AbstractTokenGranter</tspan></tspan></text></g><g id="SvgjsG1786"><text id="SvgjsText1787" font-family="微软雅黑" text-anchor="start" font-size="13px" width="304" fill="#323232" font-weight="400" align="middle" anchor="start" family="微软雅黑" size="13px" weight="400" font-style="" y="36.05" transform="rotate(0)"><tspan id="SvgjsTspan1788" dy="16" x="10"><tspan id="SvgjsTspan1789" style="text-decoration:;">tokenServices: AuthorizationServerTokenServices </tspan></tspan></text></g><g id="SvgjsG1790"><text id="SvgjsText1791" font-family="微软雅黑" text-anchor="start" font-size="13px" width="545" fill="#323232" font-weight="400" align="middle" anchor="start" family="微软雅黑" size="13px" weight="400" font-style="" y="60.05" transform="rotate(0)"><tspan id="SvgjsTspan1792" dy="16" x="10"><tspan id="SvgjsTspan1793" style="text-decoration:;">grant(String grantType, TokenRequest tokenRequest): OAuth2AccessToken </tspan></tspan><tspan id="SvgjsTspan1794" dy="16" x="10"><tspan id="SvgjsTspan1795" style="text-decoration:;">getAccessToken(ClientDetails client, TokenRequest tokenRequest): OAuth2AccessToken</tspan></tspan></text></g></g><g id="SvgjsG1796"><path id="SvgjsPath1797" d="M912.5062431097031 970.4000091552734L912.5062431097031 935.4000091552734L1014.7062433958054 935.4000091552734L1014.7062433958054 900.4000091552734" stroke-dasharray="8,5" stroke="#323232" stroke-width="2" fill="none" marker-end="url(#SvgjsMarker1798)"></path></g><g id="SvgjsG1800" transform="translate(610.3062428236008,1135.4000091552734)"><path id="SvgjsPath1801" d="M 0 4Q 0 0 4 0L 600.4000005722046 0Q 604.4000005722046 0 604.4000005722046 4L 604.4000005722046 70Q 604.4000005722046 74 600.4000005722046 74L 4 74Q 0 74 0 70Z" stroke="#323232" stroke-width="2" fill-opacity="1" fill="#ffffff"></path><path id="SvgjsPath1802" d="M 0 32L 604.4000005722046 32" stroke="#323232" stroke-width="2" fill="none"></path><path id="SvgjsPath1803" d="M 0 0L 604.4000005722046 0L 604.4000005722046 74L 0 74Z" stroke="none" fill="none"></path><g id="SvgjsG1804"><text id="SvgjsText1805" font-family="微软雅黑" text-anchor="middle" font-size="13px" width="225" fill="#323232" font-weight="700" align="middle" anchor="middle" family="微软雅黑" size="13px" weight="700" font-style="" y="6.05" transform="rotate(0)"><tspan id="SvgjsTspan1806" dy="16" x="302.5"><tspan id="SvgjsTspan1807" style="text-decoration:;">AuthorizationServerTokenServices</tspan></tspan></text></g><g id="SvgjsG1808"><text id="SvgjsText1809" font-family="微软雅黑" text-anchor="start" font-size="13px" width="432" fill="#323232" font-weight="400" align="middle" anchor="start" family="微软雅黑" size="13px" weight="400" font-style="" y="43.05" transform="rotate(0)"><tspan id="SvgjsTspan1810" dy="16" x="10"><tspan id="SvgjsTspan1811" style="text-decoration:;">createAccessToken(OAuth2Authentication var1): OAuth2AccessToken </tspan></tspan></text></g></g><g id="SvgjsG1812"><path id="SvgjsPath1813" d="M912.5062431097031 1135.4000091552734L912.5062431097031 1104.9000091552734L912.5062431097031 1104.9000091552734L912.5062431097031 1074.4000091552734" stroke="#323232" stroke-width="2" fill="none" marker-end="url(#SvgjsMarker1814)"></path></g><g id="SvgjsG1816" transform="translate(610.3062428236008,1270.4000091552734)"><path id="SvgjsPath1817" d="M 0 4Q 0 0 4 0L 600.4000005722046 0Q 604.4000005722046 0 604.4000005722046 4L 604.4000005722046 100Q 604.4000005722046 104 600.4000005722046 104L 4 104Q 0 104 0 100Z" stroke="#323232" stroke-width="2" fill-opacity="1" fill="#ffffff"></path><path id="SvgjsPath1818" d="M 0 30L 604.4000005722046 30M 0 62L 604.4000005722046 62" stroke="#323232" stroke-width="2" fill="none"></path><path id="SvgjsPath1819" d="M 0 0L 604.4000005722046 0L 604.4000005722046 104L 0 104Z" stroke="none" fill="none"></path><g id="SvgjsG1820"><text id="SvgjsText1821" font-family="微软雅黑" text-anchor="middle" font-size="13px" width="142" fill="#323232" font-weight="700" align="middle" anchor="middle" family="微软雅黑" size="13px" weight="700" font-style="" y="5.05" transform="rotate(0)"><tspan id="SvgjsTspan1822" dy="16" x="302.5"><tspan id="SvgjsTspan1823" style="text-decoration:;">DefaultTokenServices</tspan></tspan></text></g><g id="SvgjsG1824"><text id="SvgjsText1825" font-family="微软雅黑" text-anchor="start" font-size="13px" width="146" fill="#323232" font-weight="400" align="middle" anchor="start" family="微软雅黑" size="13px" weight="400" font-style="" y="35.05" transform="rotate(0)"><tspan id="SvgjsTspan1826" dy="16" x="10"><tspan id="SvgjsTspan1827" style="text-decoration:;">tokenStore: TokenStore </tspan></tspan></text></g><g id="SvgjsG1828"><text id="SvgjsText1829" font-family="微软雅黑" text-anchor="start" font-size="13px" width="492" fill="#323232" font-weight="400" align="middle" anchor="start" family="微软雅黑" size="13px" weight="400" font-style="" y="76.05" transform="rotate(0)"><tspan id="SvgjsTspan1830" dy="16" x="10"><tspan id="SvgjsTspan1831" style="text-decoration:;">OAuth2AccessToken createAccessToken(OAuth2Authentication authentication)</tspan></tspan></text></g></g><g id="SvgjsG1832"><path id="SvgjsPath1833" d="M912.5062431097031 1270.4000091552734L912.5062431097031 1239.9000091552734L912.5062431097031 1239.9000091552734L912.5062431097031 1209.4000091552734" stroke-dasharray="8,5" stroke="#323232" stroke-width="2" fill="none" marker-end="url(#SvgjsMarker1834)"></path></g><g id="SvgjsG1836" transform="translate(614.1062432527542,1435.4000091552734)"><path id="SvgjsPath1837" d="M 0 4Q 0 0 4 0L 592.7999997138977 0Q 596.7999997138977 0 596.7999997138977 4L 596.7999997138977 64Q 596.7999997138977 68 592.7999997138977 68L 4 68Q 0 68 0 64Z" stroke="#323232" stroke-width="2" fill-opacity="1" fill="#ffffff"></path><path id="SvgjsPath1838" d="M 0 30L 596.7999997138977 30" stroke="#323232" stroke-width="2" fill="none"></path><path id="SvgjsPath1839" d="M 0 0L 596.7999997138977 0L 596.7999997138977 68L 0 68Z" stroke="none" fill="none"></path><g id="SvgjsG1840"><text id="SvgjsText1841" font-family="微软雅黑" text-anchor="middle" font-size="13px" width="75" fill="#323232" font-weight="700" align="middle" anchor="middle" family="微软雅黑" size="13px" weight="700" font-style="" y="5.05" transform="rotate(0)"><tspan id="SvgjsTspan1842" dy="16" x="298.5"><tspan id="SvgjsTspan1843" style="text-decoration:;">TokenStore</tspan></tspan></text></g><g id="SvgjsG1844"><text id="SvgjsText1845" font-family="微软雅黑" text-anchor="start" font-size="13px" width="414" fill="#323232" font-weight="400" align="middle" anchor="start" family="微软雅黑" size="13px" weight="400" font-style="" y="39.05" transform="rotate(0)"><tspan id="SvgjsTspan1846" dy="16" x="10"><tspan id="SvgjsTspan1847" style="text-decoration:;">getAccessToken(OAuth2Authentication var1): OAuth2AccessToken </tspan></tspan></text></g></g><g id="SvgjsG1848"><path id="SvgjsPath1849" d="M912.5062431097031 1435.4000091552734L912.5062431097031 1404.9000091552734L912.5062431097031 1404.9000091552734L912.5062431097031 1374.4000091552734" stroke="#323232" stroke-width="2" fill="none" marker-end="url(#SvgjsMarker1850)"></path></g><g id="SvgjsG1852" transform="translate(612.2062430381775,1567.4000701904297)"><path id="SvgjsPath1853" d="M 0 4Q 0 0 4 0L 596.6000001430511 0Q 600.6000001430511 0 600.6000001430511 4L 600.6000001430511 109Q 600.6000001430511 113 596.6000001430511 113L 4 113Q 0 113 0 109Z" stroke="#323232" stroke-width="2" fill-opacity="1" fill="#ffffff"></path><path id="SvgjsPath1854" d="M 0 30L 600.6000001430511 30M 0 62L 600.6000001430511 62" stroke="#323232" stroke-width="2" fill="none"></path><path id="SvgjsPath1855" d="M 0 0L 600.6000001430511 0L 600.6000001430511 113L 0 113Z" stroke="none" fill="none"></path><g id="SvgjsG1856"><text id="SvgjsText1857" font-family="微软雅黑" text-anchor="middle" font-size="13px" width="110" fill="#323232" font-weight="700" align="middle" anchor="middle" family="微软雅黑" size="13px" weight="700" font-style="" y="5.05" transform="rotate(0)"><tspan id="SvgjsTspan1858" dy="16" x="300.5"><tspan id="SvgjsTspan1859" style="text-decoration:;">RedisTokenStore</tspan></tspan></text></g><g id="SvgjsG1860"><text id="SvgjsText1861" font-family="微软雅黑" text-anchor="start" font-size="13px" width="0" fill="#323232" font-weight="400" align="middle" anchor="start" family="微软雅黑" size="13px" weight="400" font-style="" y="35.05" transform="rotate(0)"></text></g><g id="SvgjsG1862"><text id="SvgjsText1863" font-family="微软雅黑" text-anchor="start" font-size="13px" width="478" fill="#323232" font-weight="400" align="middle" anchor="start" family="微软雅黑" size="13px" weight="400" font-style="" y="84.05" transform="rotate(0)"><tspan id="SvgjsTspan1864" dy="16" x="10"><tspan id="SvgjsTspan1865" style="text-decoration:;">getAccessToken(OAuth2Authentication authentication): OAuth2AccessToken</tspan></tspan></text></g></g><g id="SvgjsG1866"><path id="SvgjsPath1867" d="M912.5062431097031 1567.4000701904297L912.5062431097031 1535.4000396728516L912.5062431097031 1535.4000396728516L912.5062431097031 1503.4000091552734" stroke-dasharray="8,5" stroke="#323232" stroke-width="2" fill="none" marker-end="url(#SvgjsMarker1868)"></path></g><g id="SvgjsG1870" transform="translate(25.006240844726562,1413.1500091552734)"><path id="SvgjsPath1871" d="M 0 4Q 0 0 4 0L 462.3999786376953 0Q 466.3999786376953 0 466.3999786376953 4L 466.3999786376953 108.5Q 466.3999786376953 112.5 462.3999786376953 112.5L 4 112.5Q 0 112.5 0 108.5Z" stroke="#323232" stroke-width="2" fill-opacity="1" fill="#ffffff"></path><path id="SvgjsPath1872" d="M 0 30L 466.3999786376953 30M 0 62L 466.3999786376953 62" stroke="#323232" stroke-width="2" fill="none"></path><path id="SvgjsPath1873" d="M 0 0L 466.3999786376953 0L 466.3999786376953 112.5L 0 112.5Z" stroke="none" fill="none"></path><g id="SvgjsG1874"><text id="SvgjsText1875" font-family="微软雅黑" text-anchor="middle" font-size="13px" width="175" fill="#323232" font-weight="700" align="middle" anchor="middle" family="微软雅黑" size="13px" weight="700" font-style="" y="5.05" transform="rotate(0)"><tspan id="SvgjsTspan1876" dy="16" x="233.5"><tspan id="SvgjsTspan1877" style="text-decoration:;">AuthorizationServerConfig</tspan></tspan></text></g><g id="SvgjsG1878"><text id="SvgjsText1879" font-family="微软雅黑" text-anchor="start" font-size="13px" width="0" fill="#323232" font-weight="400" align="middle" anchor="start" family="微软雅黑" size="13px" weight="400" font-style="" y="35.05" transform="rotate(0)"></text></g><g id="SvgjsG1880"><text id="SvgjsText1881" font-family="微软雅黑" text-anchor="start" font-size="13px" width="421" fill="#323232" font-weight="400" align="middle" anchor="start" family="微软雅黑" size="13px" weight="400" font-style="" y="70.3" transform="rotate(0)"><tspan id="SvgjsTspan1882" dy="16" x="10"><tspan id="SvgjsTspan1883" style="text-decoration:;">tokenStore(): TokenStore </tspan></tspan><tspan id="SvgjsTspan1884" dy="16" x="10"><tspan id="SvgjsTspan1885" style="text-decoration:;">configure(AuthorizationServerEndpointsConfigurer endpoints): void</tspan></tspan></text></g></g><g id="SvgjsG1886"><path id="SvgjsPath1887" d="M614.1062432527542 1469.4000091552734L552.756231367588 1469.4000091552734L552.756231367588 1469.4000091552734L491.4062194824219 1469.4000091552734" stroke="#323232" stroke-width="2" fill="none" marker-end="url(#SvgjsMarker1888)"></path></g><g id="SvgjsG1890" transform="translate(25.006240844726562,1261.4000091552734)"><path id="SvgjsPath1891" d="M 0 4Q 0 0 4 0L 462.3999786376953 0Q 466.3999786376953 0 466.3999786376953 4L 466.3999786376953 88Q 466.3999786376953 92 462.3999786376953 92L 4 92Q 0 92 0 88Z" stroke="#323232" stroke-width="2" fill-opacity="1" fill="#ffffff"></path><path id="SvgjsPath1892" d="M 0 32L 466.3999786376953 32M 0 64L 466.3999786376953 64" stroke="#323232" stroke-width="2" fill="none"></path><path id="SvgjsPath1893" d="M 0 0L 466.3999786376953 0L 466.3999786376953 92L 0 92Z" stroke="none" fill="none"></path><g id="SvgjsG1894"><text id="SvgjsText1895" font-family="微软雅黑" text-anchor="middle" font-size="13px" width="255" fill="#323232" font-weight="700" align="middle" anchor="middle" family="微软雅黑" size="13px" weight="700" font-style="" y="6.05" transform="rotate(0)"><tspan id="SvgjsTspan1896" dy="16" x="233.5"><tspan id="SvgjsTspan1897" style="text-decoration:;">AuthorizationServerConfigurerAdapter</tspan></tspan></text></g><g id="SvgjsG1898"><text id="SvgjsText1899" font-family="微软雅黑" text-anchor="start" font-size="13px" width="0" fill="#323232" font-weight="400" align="middle" anchor="start" family="微软雅黑" size="13px" weight="400" font-style="" y="37.05" transform="rotate(0)"></text></g><g id="SvgjsG1900"><text id="SvgjsText1901" font-family="微软雅黑" text-anchor="start" font-size="13px" width="421" fill="#323232" font-weight="400" align="middle" anchor="start" family="微软雅黑" size="13px" weight="400" font-style="" y="69.05" transform="rotate(0)"><tspan id="SvgjsTspan1902" dy="16" x="10"><tspan id="SvgjsTspan1903" style="text-decoration:;">configure(AuthorizationServerEndpointsConfigurer endpoints): void </tspan></tspan></text></g></g><g id="SvgjsG1904"><path id="SvgjsPath1905" d="M258.2062301635742 1413.1500091552734L258.2062301635742 1383.2750091552734L258.2062301635742 1383.2750091552734L258.2062301635742 1353.4000091552734" stroke="#323232" stroke-width="2" fill="none" marker-end="url(#SvgjsMarker1906)"></path></g><g id="SvgjsG1908" transform="translate(25.006240844726562,1135.4000091552734)"><path id="SvgjsPath1909" d="M 0 4Q 0 0 4 0L 462.3999786376953 0Q 466.3999786376953 0 466.3999786376953 4L 466.3999786376953 70Q 466.3999786376953 74 462.3999786376953 74L 4 74Q 0 74 0 70Z" stroke="#323232" stroke-width="2" fill-opacity="1" fill="#ffffff"></path><path id="SvgjsPath1910" d="M 0 30L 466.3999786376953 30" stroke="#323232" stroke-width="2" fill="none"></path><path id="SvgjsPath1911" d="M 0 0L 466.3999786376953 0L 466.3999786376953 74L 0 74Z" stroke="none" fill="none"></path><g id="SvgjsG1912"><text id="SvgjsText1913" font-family="微软雅黑" text-anchor="middle" font-size="13px" width="202" fill="#323232" font-weight="700" align="middle" anchor="middle" family="微软雅黑" size="13px" weight="700" font-style="" y="5.05" transform="rotate(0)"><tspan id="SvgjsTspan1914" dy="16" x="233.5"><tspan id="SvgjsTspan1915" style="text-decoration:;">AuthorizationServerConfigurer</tspan></tspan></text></g><g id="SvgjsG1916"><text id="SvgjsText1917" font-family="微软雅黑" text-anchor="start" font-size="13px" width="351" fill="#323232" font-weight="400" align="middle" anchor="start" family="微软雅黑" size="13px" weight="400" font-style="" y="42.05" transform="rotate(0)"><tspan id="SvgjsTspan1918" dy="16" x="10"><tspan id="SvgjsTspan1919" style="text-decoration:;">configure(AuthorizationServerEndpointsConfigurer var1)</tspan></tspan></text></g></g><g id="SvgjsG1920"><path id="SvgjsPath1921" d="M258.2062301635742 1261.4000091552734L258.2062301635742 1235.4000091552734L258.2062301635742 1235.4000091552734L258.2062301635742 1209.4000091552734" stroke-dasharray="8,5" stroke="#323232" stroke-width="2" fill="none" marker-end="url(#SvgjsMarker1922)"></path></g><g id="SvgjsG1924"><path id="SvgjsPath1925" d="M1014.7062433958054 837.4000091552734L1014.7062433958054 719.2000045776367L1154.606243610382 719.2000045776367L1154.606243610382 345" stroke="#323232" stroke-width="2" fill="none" marker-end="url(#SvgjsMarker1926)"></path></g><g id="SvgjsG1928" transform="translate(25.006240844726562,970.4000091552734)"><path id="SvgjsPath1929" d="M 0 4Q 0 0 4 0L 491 0Q 495 0 495 4L 495 100Q 495 104 491 104L 4 104Q 0 104 0 100Z" stroke="#323232" stroke-width="2" fill-opacity="1" fill="#ffffff"></path><path id="SvgjsPath1930" d="M 0 30L 495 30M 0 62L 495 62" stroke="#323232" stroke-width="2" fill="none"></path><path id="SvgjsPath1931" d="M 0 0L 495 0L 495 104L 0 104Z" stroke="none" fill="none"></path><g id="SvgjsG1932"><text id="SvgjsText1933" font-family="微软雅黑" text-anchor="middle" font-size="13px" width="201" fill="#323232" font-weight="700" align="middle" anchor="middle" family="微软雅黑" size="13px" weight="700" font-style="" y="5.05" transform="rotate(0)"><tspan id="SvgjsTspan1934" dy="16" x="247.5"><tspan id="SvgjsTspan1935" style="text-decoration:;">ClientCredentialsTokenGranter</tspan></tspan></text></g><g id="SvgjsG1936"><text id="SvgjsText1937" font-family="微软雅黑" text-anchor="start" font-size="13px" width="0" fill="#323232" font-weight="400" align="middle" anchor="start" family="微软雅黑" size="13px" weight="400" font-style="" y="35.05" transform="rotate(0)"></text></g><g id="SvgjsG1938"><text id="SvgjsText1939" font-family="微软雅黑" text-anchor="start" font-size="13px" width="463" fill="#323232" font-weight="400" align="middle" anchor="start" family="微软雅黑" size="13px" weight="400" font-style="" y="70.44999389648437" transform="rotate(0)"><tspan id="SvgjsTspan1940" dy="16" x="10"><tspan id="SvgjsTspan1941" style="text-decoration:;">OAuth2AccessToken grant(String grantType, TokenRequest tokenRequest)</tspan></tspan></text></g></g><g id="SvgjsG1942"><path id="SvgjsPath1943" d="M520.0062408447266 1022.4000091552734L565.1562418341637 1022.4000091552734L565.1562418341637 1022.4000091552734L610.3062428236008 1022.4000091552734" stroke="#323232" stroke-width="2" fill="none" marker-end="url(#SvgjsMarker1944)"></path></g><g id="SvgjsG1946"><path id="SvgjsPath1947" d="M672.5562390685081 245.1999969482422L672.5562390685081 214.0999984741211L672.5562390685081 214.0999984741211L672.5562390685081 183" stroke="#323232" stroke-width="2" fill="none" marker-end="url(#SvgjsMarker1948)"></path></g></svg>